<svg xmlns="http://www.w3.org/2000/svg" width="140.452" height="104.395" viewBox="0 0 140.452 104.395">
  <g id="Groupe_932" data-name="Groupe 932" transform="translate(0 0)">
    <g id="Groupe_920" data-name="Groupe 920" transform="translate(34.169 6.871)">
      <path id="Tracé_235" data-name="Tracé 235" d="M3.737,10.92h0a19.294,19.294,0,0,1,7.85.926l.608.24a16.884,16.884,0,0,1,6.229,4.146l1.163-.1L8.2-5.157l-4.511.4L-1.765,11.693c1.733-.3,3.61-.608,5.5-.773M6.378.866,9.91,7.74l-5.82.511Z" transform="translate(1.765 5.157)" fill="#122753"/>
    </g>
    <g id="Groupe_921" data-name="Groupe 921" transform="translate(16.831 40.146)">
      <path id="Tracé_236" data-name="Tracé 236" d="M.165,35.965a.76.76,0,0,0-.24.608c.012.147.318.265.461.253C12.214,34.619,13.315,18.688,14.141,4.688c.546-8.844,1.132-17.252,4.33-20.9a.891.891,0,0,0,.094-.6c-.159-.131-.315-.265-.6-.094C11.444-14.429,10.481-3.642,9.278,7.752,8.38,19.268,7.1,31.4.165,35.965" transform="translate(0.078 16.985)" fill="#122753"/>
    </g>
    <g id="Groupe_922" data-name="Groupe 922" transform="translate(9.515 8.329)">
      <path id="Tracé_237" data-name="Tracé 237" d="M3.835,6.308l9.078,9.907a31.672,31.672,0,0,1,6.353-2.756L17.829-2.979l-4.8.421,1.185,13.53L2.7-1.657l-4.508.4L.109,20.708l4.8-.421L3.688,6.32Z" transform="translate(1.811 2.979)" fill="#122753"/>
    </g>
    <g id="Groupe_923" data-name="Groupe 923" transform="translate(54.471 4.408)">
      <path id="Tracé_239" data-name="Tracé 239" d="M3.737,6.308,15.581,19.345l4.075-.355L17.732-2.979l-4.8.421,1.185,13.53L2.746-1.67l-4.511.4L.158,20.7l4.8-.421Z" transform="translate(1.765 2.979)" fill="#122753"/>
    </g>
    <g id="Groupe_924" data-name="Groupe 924" transform="translate(75.568 2.726)">
      <path id="Tracé_240" data-name="Tracé 240" d="M5.654,15.589l4.8-.421L8.927-2.29l6.4-.561-.4-4.511L-2.67-5.819l.4,4.508,6.4-.558Z" transform="translate(2.67 7.362)" fill="#122753"/>
    </g>
    <g id="Groupe_925" data-name="Groupe 925" transform="translate(78.601 68.675)">
      <path id="Tracé_241" data-name="Tracé 241" d="M3.261,0l-4.8.421L.368,22.243,15.5,20.921l-.38-4.368-10.331.9Z" transform="translate(1.54)" fill="#122753"/>
    </g>
    <g id="Groupe_926" data-name="Groupe 926" transform="translate(57.731 69.641)">
      <path id="Tracé_242" data-name="Tracé 242" d="M8.214,12.3a6.582,6.582,0,0,1-7-6.279c-.334-3.782,2.02-7.067,5.8-7.4A7.553,7.553,0,0,1,12.762.612l2.75-3.76A11.181,11.181,0,0,0,6.636-5.742,11.441,11.441,0,0,0,.121-3.12a31.027,31.027,0,0,1-4,9.586c.012.147.012.147.025.29A11.073,11.073,0,0,0,8.329,16.982a11.263,11.263,0,0,0,8.679-4.72L13.816,9.316a7.932,7.932,0,0,1-5.6,2.983" transform="translate(3.879 5.808)" fill="#122753"/>
    </g>
    <g id="Groupe_927" data-name="Groupe 927" transform="translate(116.442 64.985)">
      <path id="Tracé_243" data-name="Tracé 243" d="M10.4,6.8a4.973,4.973,0,0,0,2.5-4.91,5.178,5.178,0,0,0-1.786-3.657C9.689-2.958,7.747-3.376,5.275-3.157L-4.91-2.266-2.99,19.7l10.478-.917c4.944-.433,7.968-2.75,7.625-6.678-.44-3.336-2.02-4.661-4.717-5.306M.1,1.4,4.9.98C6.94.8,8.18,1.572,8.3,2.881c.14,1.6-1.107,2.444-3.289,2.634L.5,5.911Zm9.985,10.269c.14,1.6-1.1,2.441-3.142,2.619l-5.674.5-.421-4.8L6.382,9.5c2.472-.215,3.566.567,3.707,2.17" transform="translate(4.91 3.213)" fill="#122753"/>
    </g>
    <g id="Groupe_928" data-name="Groupe 928" transform="translate(94.896 66.003)">
      <path id="Tracé_244" data-name="Tracé 244" d="M10.329,8.792c.306,3.492-1.288,5.39-4.2,5.646S1.31,12.954,1,9.462L-.077-2.905l-4.8.418,1.094,12.514c.561,6.4,4.489,9.43,10.31,8.922s9.324-4.043,8.738-10.733L14.182-4.152l-4.947.43Z" transform="translate(4.878 4.152)" fill="#122753"/>
    </g>
    <g id="Groupe_929" data-name="Groupe 929" transform="translate(94.774 1.136)">
      <path id="Tracé_245" data-name="Tracé 245" d="M11.125,12.061,1.087,12.94l-.4-4.511,10.331-.9-.383-4.364-10.328.9L-.073-.3,11.711-1.332,11.331-5.7-5.254-4.246l1.92,21.972,12.657-1.11a15.428,15.428,0,0,1,1.8-4.555" transform="translate(5.254 5.696)" fill="#122753"/>
    </g>
    <g id="Groupe_930" data-name="Groupe 930" transform="translate(0 26.109)">
      <path id="Tracé_246" data-name="Tracé 246" d="M39.8,26.4c-.835-2.859-3.7-7.152-13.321-6.459C35.014,10.254,38.007.9,34.949-5.573c-2.31-4.636-7.526-7.257-13.795-6.855C2.24-10.773-7.358,5.167-9.113,11.916c0,0-.228.754.221.86a.684.684,0,0,0,1.007-.234C-2.9,4.191,2.013-1.664,10.09-4.862c4.4-1.705,11.1-2.145,14.649-.109a8.731,8.731,0,0,1,3.71,5.54C29.356,5.912,25.668,14,17.126,25.309a.446.446,0,0,0,.05.58.75.75,0,0,0,.608.24c8.168-2.179,13.5-1.475,15.4,1.733,2.588,4.464-2.519,13.121-11.036,21.342C14.056,57.244-.927,61.927-8.418,60.09c-3.738-.848-5.412-3.192-5.216-5.995C-13.359,47.181-7,39.44,1.237,36.373c.277-.168.408-.327.24-.6-.028-.293-.33-.412-.62-.387A26.229,26.229,0,0,0-13.2,43.942c-3.741,4.14-5.845,8.573-5.568,11.775a9.724,9.724,0,0,0,5.1,8.056c2.93,1.652,6.8,2.338,11.46,1.93a48.01,48.01,0,0,0,16.426-4.954C32.1,52.294,42.506,35.55,39.8,26.4" transform="translate(18.796 12.469)" fill="#122753"/>
    </g>
    <g id="Groupe_931" data-name="Groupe 931" transform="translate(62.481)">
      <path id="Tracé_247" data-name="Tracé 247" d="M52.8,24.45c-.184-.424-.923-.505-.9-.215-2.36,9.882-11.522,17.43-14.5,13.583-.854-1.39,1.157-5.231,3.071-8.476a5.287,5.287,0,0,0,.44-5.025c-1.456-3.242-6.41-4.57-7.454-4.77a14.955,14.955,0,0,0,2.051-8.389l.147-.016c4.654-.405,7.784-3.174,7.4-7.538C42.724-.178,40.112-1.563,35.5-2.333c-3.872-.686-4.785-1.047-4.91-2.5-.09-1.019.851-1.983,2.6-2.135a10.326,10.326,0,0,1,5.867,1.687l2.154-3.853a11.035,11.035,0,0,0-8.271-2.357c-4.508.4-7.482,3.3-7.136,7.223.38,4.364,3.392,5.275,7.859,6.057,3.713.555,4.5,1.216,4.608,2.382.112,1.309-.988,2.139-3.024,2.316a7.058,7.058,0,0,1-1.758.006c-.147.012-.449-.106-.6-.094l-.147.012c-.3-.118-.592-.094-.751-.228-.306-.118-.449-.106-.754-.228a6.924,6.924,0,0,1-2.294-1.119c-8.33,7.033-3.541,14.824-.377,17.48C27.087,25.525,21.721,36.259,12.662,41.6c-10.506,5.611-5.493-14.181.249-18.936,2.572-2.422,5.823-2.12,3.866,2.3-1.612,3.367-5.468,6.2-6.728,6.893-1.1.829-.561,1.955.564,1.418,5.072-2.351,9.034-5.63,10.786-10.768,1.054-3.024-.857-4.764-4.109-5.063a10.485,10.485,0,0,0-8.645,3.395c-3.105,3.055-6.784,7.922-8.283,12.6C-.986,38.1-5.538,46.412-11.8,50.188c-9.418,4.636-6.749-13.486.147-20.1,2.575-2.425,5.827-2.123,3.869,2.3-1.612,3.367-5.06,5.867-6.584,6.88s-.561,1.955.421,1.428c5.072-2.351,9.034-5.627,10.786-10.765,1.054-3.024-.857-4.764-4.109-5.066C-17.188,23.829-25.468,39.8-24.907,46.2c-.4,8.832,7.323,8.3,9.069,8.152C-7.982,53.664-1.906,44.336-.207,41.989c1.1,4.156,4.944,4.552,8.289,4.258C21.335,45.234,30.528,24.64,31.033,23.714c0,0,4.729,2.079,4.988,3.376s-4.751,9.359-3.5,11.887c1.337,3.551,5.845,3.155,6.575,3.093,7.856-.689,11.843-10.419,12.657-12.838,1.275-2.164,1.559-3.947,1.047-4.782m-21.928-6c-4.76-4.128-1.4-9.262.122-8.66,2.416.814.876,6.668-.122,8.66" transform="translate(24.934 11.547)" fill="#122753"/>
    </g>
  </g>
</svg>
