<svg width="24" height="24" viewBox="0 0 24 24" fill="none" xmlns="http://www.w3.org/2000/svg">
<path fill-rule="evenodd" clip-rule="evenodd" d="M21.8987 5.89706L16.295 20.1741C15.3547 22.5697 12.0517 22.802 10.9572 20.5495L8.9573 16.4336C8.68587 15.875 8.23718 15.4263 7.67858 15.1549L3.56262 13.1549C1.31011 12.0604 1.54242 8.75747 3.93805 7.81719L18.2151 2.21346C20.5761 1.28675 22.8254 3.53601 21.8987 5.89706ZM20.037 5.16633L14.4332 19.4434C14.2672 19.8664 13.9166 20.0836 13.5436 20.1098C13.1792 20.1354 12.905 19.9818 12.7561 19.6755L10.7562 15.5595C10.6713 15.3848 10.5762 15.2162 10.4718 15.0546L14.9258 10.6005C15.3164 10.21 15.3164 9.57684 14.9258 9.18631C14.5353 8.79579 13.9022 8.79579 13.5116 9.18631L9.05758 13.6404C8.89593 13.5359 8.72738 13.4409 8.55265 13.356L4.4367 11.356C4.13032 11.2072 3.97673 10.933 4.00236 10.5686C4.02859 10.1955 4.24578 9.84494 4.66878 9.67892L18.9458 4.07519C19.6816 3.78641 20.3257 4.43059 20.037 5.16633Z" fill="#121212"/>
</svg>
