<svg id="Groupe_1267" data-name="Groupe 1267" xmlns="http://www.w3.org/2000/svg" width="137.948" height="142.436" viewBox="0 0 137.948 142.436">
  <g id="Groupe_933" data-name="Groupe 933" transform="translate(0 0.318)">
    <path id="Tracé_248" data-name="Tracé 248" d="M13.559,21.147c2.176-1.95,8.814-1.95,10.99,0-2.66,3.773-7.206,3.493-12.824,3.666-1.4.427-1.124,2.538-2.287,3.206,1.519-.492,6.516-2.258,10.074-.919C18.3,33.828,6.439,29.9,5.772,37.177c1.357-.546,5.7-4.294,9.618-2.291C14.4,39.694,9.3,40.4,4.86,41.755a37.542,37.542,0,0,1-.919,5.5c1.637-.815,4.262-4.588,8.243-4.581.118,4.132-3.956,7.913-8.243,9.159.359,2.65-.664,3.917-.46,6.412,2.226-2.2,2.793-6.064,6.868-6.412.37,6.319-3.292,8.613-5.949,11.909.427,1.555.61,3.357.916,5.037,1.655-2.772,2.021-6.832,5.5-7.787A14.481,14.481,0,0,1,7.147,73.356c.14,2.3,1.267,3.623,1.831,5.5.65-3.325,1.669-6.272,3.666-8.243,2.693,2.976.944,10.2-1.375,12.361A16.313,16.313,0,0,0,13.559,87.1c.075-2.039-.269-7.7,2.747-8.243,1.924,2.2,1.9,9.123.46,11.905a7.4,7.4,0,0,0,3.206,4.118c-1.059-2.7-.467-7.4.916-9.159,5.393,3.393-.18,13.69,5.5,15.575-.485-2.348-2.2-5.4-.46-7.328,1.447-.226,1.616.826,3.206.46a22.194,22.194,0,0,1,1.371,9.615c.693.833,1.978,1.081,2.75,1.835-.93-2.5-2.775-6.053-.916-8.7,2.919,2.273,4.9,5.479,5.041,10.534.567,1.106,1.874,1.483,3.2,1.831.05-1.433-2.635-4.071-1.831-7.78,3.727,1.921,6.509,4.782,7.328,9.615a11.044,11.044,0,0,0,4.581,1.371c-.032-1.659-3.4-3.924-2.747-7.784,4.761,1.034,7.026,4.57,8.243,9.162,2.14.449,3.809,1.375,5.953,1.827-1.515,1.253-3.752,1.77-5.037,0-3.824,2.226-8.541,5.17-14.655,3.666.822-3.454,3.845-4.7,8.243-4.578-5.662-4.5-12.175,4.452-19.237,0,1.6-2.366,4.527-3.418,8.243-3.666-3.486-3.116-12.846,2.779-17.4-1.375,1.942-2.176,5.26-2.98,9.615-2.75-2.736-3.759-12.329,1.5-16.486-2.287,1.106-2.477,5.4-3.964,8.7-2.75.485-1.705-1.72-.718-1.375-2.294-6.638.086-11.334-1.788-13.74-5.949,3.325-1.1,7.159-.215,8.7,1.831C16.18,90.73,4.705,91.677,3.022,85.262c3.03-1.371,6.646.3,8.247,1.838C8.324,81.948.433,81.754-1.1,75.187c3.213-1.418,5.838,1.411,7.787,2.754C4.691,71.694-2.662,70.8-4.3,64.2c1.666-1.684,6.445.675,6.868,3.206.98-6.929-8.189-7.687-7.787-15.571,3.705.42,5.479,2.768,6.872,5.5C3.345,50.12-5.362,46.964-3.387,39.464c3.019.951,4.8,3.134,5.5,6.416C5.168,39.525-2.985,35.519-.181,28.019,2.6,29.358,4.44,31.638,4.4,35.8c4.337-4.929-3.353-10.049-.46-17.4,3.317.65,4.211,3.73,4.122,7.784,4.448-2.7-1.738-11.589,2.287-16.486,2.459,1.21,3.077,4.254,2.75,8.243,3.425-2.714-.388-12.914,5.041-14.655.8,1.766,2.172,4.98.916,7.328,3.138-1.752,2.2-11.536,6.412-13.74,2.151.574,1.659,6.093.456,7.328,5.184-.621,4.15-11.417,10.534-12.365,1.289,2.377-.4,5.274-1.375,6.868,4.983-1.429,6.653-6.172,14.2-5.037C49.494,1.512,37.8-2.542,34.171,1.451c2.5.854,6.538.18,8.243,1.835C40.687,7.044,33.4,5.856,29.589,4.66a16.9,16.9,0,0,0-5.041,3.662c2.427-1.343,7.324-2.1,10.078-.46-1.375,5.805-13.894.46-15.571,5.956,3.152-1.2,7.9-1.246,10.534.46-2.449,3.35-7.687,3.921-13.74,3.662-1.149.686-1.608,2.057-2.291,3.206" transform="translate(5.235 8.164)" fill="#122753"/>
  </g>
  <g id="Groupe_934" data-name="Groupe 934" transform="translate(66.559 126.966)">
    <path id="Tracé_249" data-name="Tracé 249" d="M16.521,10.829a139.373,139.373,0,0,0-22.9-13.74C-.433-7.754,12.453,2.521,16.98,6.711c.316,1.838-.442,2.61-.46,4.118" transform="translate(6.378 4.181)" fill="#122753"/>
  </g>
  <g id="Groupe_935" data-name="Groupe 935" transform="translate(45.178)">
    <path id="Tracé_250" data-name="Tracé 250" d="M54.376,69.059c1.433-.172,5.166-4.2,8.7-2.294C62.555,72.832,51.532,72.3,48.423,77.3c2.212-1.436,6.172-3.407,9.159-1.371-2.183,5.6-11.614,3.953-15.571,7.784,3.483-.966,8,.381,9.159,3.206-4.287,3.77-13.657-1.763-16.486,2.291,4.032-.061,8.11-.169,9.159,2.75-4.973,3.87-13.23-1.881-16.946.916,3.023.944,7.04.9,7.787,4.125-5.209,3.378-11.844-3.077-17.865-.923,2.585,1.393,6.513,1.433,6.872,5.041-5.529,1.666-10.5-1.07-13.74-3.206-10.394,5.479-21.606,10.15-29.767,17.862-3.967-5.062,2.987-8.516,7.784-10.993a106.767,106.767,0,0,1,21.527-8.7c2.481-3.626,3.877-8.329,8.7-9.615,1.109,2.061-.987,5.888-2.747,7.784,1.091.908,3.439-.815,5.041-.912.969-4.678,3.009-8.29,7.328-9.622.337,3.856-1.318,5.709-2.75,7.787,6.452-.725,3.386-10.968,9.159-12.365,1.009,2.233.531,6.52-.916,7.784,5.188.923.212-14.253,7.787-10.99a14.211,14.211,0,0,1-.916,6.412c5.594-2.854-.075-10.415,5.037-14.655,1.831,1.163,2.459,5.651,1.375,8.243,1.038.862,2.025-2.222,3.206-2.75C48.2,69.77,47.361,62.015,51.17,60.36c.513,2.341,2.646,5.145,1.375,7.784,1.346-.485,1.594-2.068,2.291-3.206-1.562-3.066-3.551-8.854-1.375-12.821,2.208,1.759,3.253,4.678,3.662,8.243,1.361-.941,1.206-3.378,2.291-4.578-1.752-3.479-5.274-7.5-3.666-12.828,2.894,1.228,4.456,3.791,4.581,7.787,1.429-.862,1.059-3.526,1.375-5.5-2.337-3.253-6.33-6.979-5.5-11.909,3.131.84,4.732,3.21,5.956,5.953,1.048-.783.169-3.5.46-5.037-3.705-2.405-7.651-4.567-8.706-9.618,4.129-.007,6.4,1.845,7.787,4.585,1.325-1.659-.284-4.28-.46-5.96-5.041-.758-9.033-2.567-10.53-6.868,4.125-.309,7.392.241,9.159,2.291.14-1.82-1.059-2.3-.916-4.122-5.253-.549-10.182-1.418-11.909-5.5a10.209,10.209,0,0,1,9.618.916c-.1-1.731-1.44-2.222-1.831-3.662-5.335.2-11.094.348-13.28-3.666,2.915-1.339,8.311-2.194,10.99,0C52.793,1.027,50.922,1.523,51.17-.1c-6.05-.057-12.045-.165-14.2-4.122,2.98-1.21,7.371-2.043,10.074,0-.3-1.687-1.691-2.28-2.747-3.206-4.463.955-10.171,0-12.824-2.291,1.522-2.348,7.084-2.237,9.159-.456.725-1.052-2.334-2.23-3.206-3.206-3.935.93-10.046,1.63-13.284-.46.682-2.987,4.549-2.782,8.247-2.75-3.235-4.549-15.212-.359-15.575-7.784,7.676-1.264,9.8,3.023,14.2,5.037.284-1.012-2.818-4.66-.916-7.328,6.078,1.863,5.123,10.753,10.534,13.284-1.1-2.467-1.9-5.6-.456-8.247,5.8,2.273,3.694,11.439,6.868,14.2-.057-2.955-.284-6.089,1.375-7.328C53.884-12.871,49.755-2.868,53.46-.1c-1.292-3.407.467-6.965,2.287-8.7,4.168,4.463-.894,12.867,1.835,16.946C58.713,6.086,58.767,1.393,61.7-.1c4.412,5.7-3.041,11.9-.46,17.4,1.9-2.373,1.468-7.084,5.5-7.328,2.423,7.5-5.192,11.194-2.75,17.406,1.7-2.273,2.14-5.805,5.953-5.956,1.077,8.861-6.416,9.152-5.493,17.862,1.565-2.459,4.064-6.233,7.324-5.5-.449,8.107-8.448,8.649-9.155,16.49,2.133-2.291,3.314-5.54,8.243-5.037-1.314,7.389-9.324,8.082-11.453,14.655,2.366-1.454,3.813-3.824,8.247-3.21-1.684,6.872-9.78,7.328-13.284,12.368" transform="translate(20.992 26.661)" fill="#122753"/>
  </g>
  <g id="Groupe_936" data-name="Groupe 936" transform="translate(28.159 41.792)">
    <path id="Tracé_251" data-name="Tracé 251" d="M.044,8.721a5.961,5.961,0,0,0-.061.837A5.829,5.829,0,0,0,1.8,13.974,6.284,6.284,0,0,0,6.313,15.7a5.832,5.832,0,0,0,4.175-1.583,6.209,6.209,0,0,0,1.91-4.086l.775-7.044L8.341,2.453,7.623,9.676c-.158,1.275-.657,1.91-1.49,1.91q-1.433,0-1.314-1.849L6.144-2.832,1.3-3.367Z" transform="translate(0.017 3.367)" fill="#122753"/>
  </g>
  <g id="Groupe_937" data-name="Groupe 937" transform="translate(29.579 27.199)">
    <path id="Tracé_252" data-name="Tracé 252" d="M4.144,4.049Q4.322,2.2,5.577,2.2q1.314,0,1.314,1.788,0,.183-.718,7.105l4.775.535q.775-6.92.775-6.861,0-6.328-6.685-6.33-5.192,0-5.787,5.493L-1.6,12.087l4.84.535Z" transform="translate(1.6 1.563)" fill="#122753"/>
  </g>
  <path id="Tracé_863" data-name="Tracé 863" d="M6.372,2.323,4.164,2.2,4.455-.4-.029-.9-2.46,14.857l4.714.18L3.568,6.38,6.552,6.5l.714,8.714,4.9.18L11.05.331,6.268-.2Z" transform="translate(44.349 44.335)" fill="#122753"/>
  <path id="Tracé_864" data-name="Tracé 864" d="M4.085,3.619,4.537,14.7l4.75.528L8.084-1.1.8-1.4l-2.38,15.42,4.445.5Z" transform="translate(46.04 28.476)" fill="#122753"/>
  <path id="Tracé_865" data-name="Tracé 865" d="M7.7,9.561,2.027,9.144l.6-8.06,5.791.359.3-4.359L-1.854-3.691-2.971,12.138,7.484,13.3Z" transform="translate(60.811 31.845)" fill="#122753"/>
  <path id="Tracé_866" data-name="Tracé 866" d="M0,11.107l4.775.359L5.834-3.764l-4.75-.524Z" transform="translate(56.69 49.219)" fill="#122753"/>
  <path id="Tracé_867" data-name="Tracé 867" d="M0,9.348l4.714.18L6.028.872,9.012.994l.714,8.714,4.9.18-.9-12.193L2-3.609Z" transform="translate(67.552 49.844)" fill="#122753"/>
  <path id="Tracé_868" data-name="Tracé 868" d="M4.4,3.619l.571,13.945,4.847.539L8.4-1.1,1.114-1.4-1.7,16.824l4.563.506Z" transform="translate(71.392 28.476)" fill="#122753"/>
  <path id="Tracé_869" data-name="Tracé 869" d="M.619,9.009,5.394,8.65,4.608-2.939-.239-3.478Z" transform="translate(83.168 51.198)" fill="#122753"/>
  <g id="Groupe_938" data-name="Groupe 938" transform="translate(90.697 48.584)">
    <path id="Tracé_261" data-name="Tracé 261" d="M.1,3.046a16.582,16.582,0,0,0,1.192,6.8l5.073-.359Q5.289,7.643,5.169,2.928,5.1.87,4.986-.62L-.037-1.176Q.065.467.1,3.046" transform="translate(0.037 1.176)" fill="#122753"/>
  </g>
  <g id="Groupe_939" data-name="Groupe 939" transform="translate(81.579 27.616)">
    <path id="Tracé_262" data-name="Tracé 262" d="M4.305,12.446a3.052,3.052,0,0,1,.6-.061c1.275,0,2.028.47,2.269,1.4A9.779,9.779,0,0,1,7.378,15.2l5.016.556a13.577,13.577,0,0,0-.388-2.355A4.057,4.057,0,0,0,7.59,10.357H7.052q4.534-.894,4.534-5.073,0,.178-.416-4.657Q10.631-4.8,5.142-4.8q-.539,0-6.8.42L-.377,14.338l4.847.539ZM3.35-1.042h.478A2.347,2.347,0,0,1,6.215.031a5.832,5.832,0,0,1,.478,2.747v3.7a1.719,1.719,0,0,1-.775,1.669,5.514,5.514,0,0,1-1.91.3Z" transform="translate(1.662 4.805)" fill="#122753"/>
  </g>
  <g id="Groupe_940" data-name="Groupe 940" transform="translate(97.576 49.346)">
    <path id="Tracé_263" data-name="Tracé 263" d="M5.769,2.108v.478a1.6,1.6,0,0,1-.775,1.551A9.868,9.868,0,0,1,3.144,4.5l-.5-4.768L-2.227-.814l1.012,9.726q2.5-.178,5.073-.416A10.872,10.872,0,0,0,8.572,7.063a4.914,4.914,0,0,0,2.032-4.3V1.749L10.483.6,5.553.048Z" transform="translate(2.227 0.814)" fill="#122753"/>
  </g>
  <g id="Groupe_941" data-name="Groupe 941" transform="translate(95.248 26.246)">
    <path id="Tracé_264" data-name="Tracé 264" d="M3.7,2.842c.556-.039.955-.061,1.2-.061q1.669,0,1.849,1.853L8.577,21.9l4.929.546L11.579,4.213Q10.986-1.1,5.371-1.1q.065,0-6.8.775L.8,21.041l4.872.539Z" transform="translate(1.429 1.097)" fill="#122753"/>
  </g>
  <path id="Tracé_870" data-name="Tracé 870" d="M0,6.981l3.939.057.187-9.733L.154-2.2Z" transform="translate(28.024 88.388)" fill="#122753"/>
  <path id="Tracé_871" data-name="Tracé 871" d="M3.093.044-.846-.017l-.348,20.579,3.953-.492Z" transform="translate(40.151 63.331)" fill="#122753"/>
  <path id="Tracé_872" data-name="Tracé 872" d="M3.108,2.842l1.9,17.384,3.651-.456L6.512-.979-.83-1.1-1.2,21l3.974-.5Z" transform="translate(29.392 64.235)" fill="#122753"/>
  <path id="Tracé_873" data-name="Tracé 873" d="M3.121,5.147,2.443-1.395-1.2-.942-.1,9.146,7,9.265,7.189-1.987l-3.956.5Z" transform="translate(35.706 86.341)" fill="#122753"/>
  <path id="Tracé_874" data-name="Tracé 874" d="M0,9.115l4.714.18L6.028.639,9.012.761,9.73,9.474l4.894.18L13.65-3.519,1.72-2.036Z" transform="translate(43.243 86.133)" fill="#122753"/>
  <path id="Tracé_875" data-name="Tracé 875" d="M4.593,3.619l.578,14.11,4.768-.592L8.592-1.1,1.311-1.4-1.773,18.594,2.988,18Z" transform="translate(46.887 64.532)" fill="#122753"/>
  <path id="Tracé_876" data-name="Tracé 876" d="M0,9.905l4.775.535L6.261-3.824l-4.868.607Z" transform="translate(58.463 85.464)" fill="#122753"/>
  <path id="Tracé_877" data-name="Tracé 877" d="M3.528,12.358l.962.1,6.717-.837L12.78-3.457,8-4,6.691,8.24l-2.686-.3L5.258-4.293.544-4.771-1.362,13.191,3.5,12.584Z" transform="translate(61.321 68.088)" fill="#122753"/>
  <path id="Tracé_878" data-name="Tracé 878" d="M0,11.156l4.775.539,1.669-16L1.555-3.7Z" transform="translate(65.984 84.987)" fill="#122753"/>
  <path id="Tracé_879" data-name="Tracé 879" d="M4.732.43l-4.775-.6L-1.827,14.267l4.937-.614Z" transform="translate(76.71 65.154)" fill="#122753"/>
  <path id="Tracé_880" data-name="Tracé 880" d="M4.554.43l-4.775-.6-1.537,12.5,4.915-.61Z" transform="translate(84.469 66.109)" fill="#122753"/>
  <g id="Groupe_942" data-name="Groupe 942" transform="translate(73.324 78.802)">
    <path id="Tracé_277" data-name="Tracé 277" d="M5.512,10.014c-.158,1.235-.679,1.849-1.551,1.849-.837,0-1.253-.574-1.253-1.731V9.655L4.248-2.893l-4.937.614L-2.067,8.879A8.5,8.5,0,0,0-2.128,9.9a5.763,5.763,0,0,0,1.82,4.359A6.3,6.3,0,0,0,4.2,15.985a5.876,5.876,0,0,0,4.15-1.522,6.333,6.333,0,0,0,1.939-4.028l1.766-14.3-4.911.614Z" transform="translate(2.128 3.866)" fill="#122753"/>
  </g>
  <path id="Tracé_881" data-name="Tracé 881" d="M2.94,9,2.315-2.818l-3.45.427L.136,17.417l4.6.18L7.593-3.475l-3.127.388Z" transform="translate(95.989 80.279)" fill="#122753"/>
  <path id="Tracé_882" data-name="Tracé 882" d="M0,14.052l4.118.18.7-19.657L.668-4.912Z" transform="translate(89.319 83.404)" fill="#122753"/>
  <path id="Tracé_883" data-name="Tracé 883" d="M3.152,3.919l.4,6.226,3.465-.431L6.437-1.272-.786-1.513l-.431,12.254,4.147-.517Z" transform="translate(91.24 66.798)" fill="#122753"/>
  <path id="Tracé_884" data-name="Tracé 884" d="M0,15.736l4.416.118L5.148-6.075.754-5.526Z" transform="translate(103.406 82.258)" fill="#122753"/>
  <path id="Tracé_885" data-name="Tracé 885" d="M2.73,3.919l-.165,4.7,4.391-.546.309-9.342L.282-1.513-1.054,9.067l3.138-.391Z" transform="translate(101.63 67.156)" fill="#122753"/>
</svg>
