<svg width="24" height="24" viewBox="0 0 24 24" fill="none" xmlns="http://www.w3.org/2000/svg">
<path fill-rule="evenodd" clip-rule="evenodd" d="M5 4C3.34315 4 2 5.34315 2 7V7.49497L9.74585 13.3044C11.1043 14.2317 12.895 14.2319 14.2536 13.3048L22 7.49502V7C22 5.34315 20.6569 4 19 4H5ZM19 6H5C4.60088 6 4.25638 6.23382 4.09599 6.57194L10.8001 11.6C11.5112 12.1333 12.4889 12.1333 13.2001 11.6L19.904 6.57201C19.7437 6.23385 19.3991 6 19 6Z" fill="#121212"/>
<path d="M22 8.74502L20 10.245V17C20 17.5523 19.5523 18 19 18H5C4.44772 18 4 17.5523 4 17V10.245L2 8.74497V17C2 18.6569 3.34315 20 5 20H19C20.6569 20 22 18.6569 22 17V8.74502Z" fill="#121212"/>
</svg>
