<svg width="24" height="24" viewBox="0 0 24 24" fill="none" xmlns="http://www.w3.org/2000/svg">
<path d="M14.8293 21C14.4175 22.1652 13.3062 23 12 23C10.6938 23 9.58254 22.1652 9.17071 21H14.8293Z" fill="#121212"/>
<path d="M9 9C9 8.44771 9.44771 8 10 8C10.5523 8 11 8.44772 11 9V15C11 15.5523 10.5523 16 10 16C9.44771 16 9 15.5523 9 15V9Z" fill="#121212"/>
<path fill-rule="evenodd" clip-rule="evenodd" d="M19 20C19.5523 20 20 19.5523 20 19C20 18.4477 19.5523 18 19 18V9C19 5.13401 15.866 2 12 2C8.13401 2 5 5.13401 5 9V18C4.44772 18 4 18.4477 4 19C4 19.5523 4.44772 20 5 20H19ZM17 9V18H7V9C7 6.23858 9.23858 4 12 4C14.7614 4 17 6.23858 17 9Z" fill="#121212"/>
</svg>
