<?xml version="1.0" encoding="utf-8"?>
<!-- Generator: Adobe Illustrator 23.0.3, SVG Export Plug-In . SVG Version: 6.00 Build 0)  -->
<svg version="1.1" id="Calque_1" opacity="0.7" xmlns="http://www.w3.org/2000/svg" xmlns:xlink="http://www.w3.org/1999/xlink"
	 x="0px" y="0px" viewBox="0 0 328.4 300.7" style="enable-background:new 0 0 328.4 300.7;" xml:space="preserve">
<style type="text/css">
	.st0{fill:none;stroke:#FFFFFF;stroke-width:0.7;stroke-linecap:round;stroke-linejoin:round;stroke-miterlimit:10;}
	.st1{fill:#FFFFFF;}
</style>
<g>
	<polyline class="st0" points="155.8,17.6 128.7,3.7 102.6,27.8 155.8,17.6 163.3,68.7 102.6,27.8 72.5,26.3 28.8,68.3 3.2,129 
		8,190.2 50.7,259.9 127.7,297.2 140.8,287.9 142.8,262 90.1,264.7 103.8,245.8 66.4,190.5 29.2,202.2 8,190.2 	"/>
	<polyline class="st0" points="164.5,246.7 154.1,275.8 103.8,245.8 29.2,202.2 	"/>
	<polygon class="st0" points="49.8,229.7 90.1,264.7 50.7,259.9 49.8,229.7 65.1,200.8 115.5,196.9 142.8,262 90.8,245.9 	"/>
	<polyline class="st0" points="154.1,275.8 140.8,287.9 90.1,264.7 127.7,297.2 	"/>
	<line class="st0" x1="128.7" y1="3.7" x2="72.5" y2="26.3"/>
	<polyline class="st0" points="63,57.9 28.8,68.3 17.9,118.9 19.3,169.1 	"/>
	<polyline class="st0" points="102.6,27.8 72.8,99.6 17.9,118.9 29,107.4 52.2,68.2 72.8,99.6 39.8,161.3 19.3,169.1 66.4,190.5 
		29,107.4 28.8,68.3 52.2,68.2 72.5,26.3 63,57.9 104.1,70.1 102.6,27.8 63,57.9 	"/>
	<polyline class="st0" points="63,57.9 60,115.6 29,107.4 11.3,162 29.2,202.2 50.7,259.2 	"/>
	<line class="st0" x1="60" y1="115.6" x2="66.4" y2="190.5"/>
	<line class="st0" x1="11.3" y1="162" x2="3.2" y2="129"/>
	<path class="st0" d="M39.8,161.3l75.7,35.6c0.2,0.8-24.7,49-24.7,49l-25.7-45.1L39.8,161.3l-21.9-42.4L3.2,129l16.1,40L8,190.2
		l3.3-28.2l8,7.1"/>
	<polyline class="st0" points="65.1,200.8 19.3,169.1 49.8,229.7 8,190.2 	"/>
</g>
<g>
	<path class="st1" d="M154.2,273c1.4,0,2.6,1.1,2.6,2.5s-1.1,2.6-2.5,2.6c-1.4,0-2.6-1.1-2.6-2.5C151.7,274.1,152.8,273,154.2,273z"
		/>
	<path class="st1" d="M19.5,165.8c1.9,0,3.5,1.5,3.5,3.5c0,1.9-1.5,3.5-3.5,3.5c-1.9,0-3.5-1.5-3.5-3.5
		C16,167.4,17.5,165.8,19.5,165.8z"/>
	<path class="st1" d="M29.3,200.2c1.1,0,2.1,0.9,2.1,2c0,1.1-0.9,2.1-2,2.1c-1.1,0-2.1-0.9-2.1-2C27.3,201.1,28.2,200.2,29.3,200.2z
		"/>
	<path class="st1" d="M9.3,161.4c0-1.1,0.9-2.1,2-2.1c1.1,0,2.1,0.9,2.1,2c0,1.1-0.9,2.1-2,2.1C10.2,163.5,9.3,162.6,9.3,161.4z"/>
	<path class="st1" d="M62.8,59.7c-1.1,0-2.1-0.9-2.1-2c0-1.1,0.9-2.1,2-2.1c1.1,0,2.1,0.9,2.1,2C64.9,58.8,63.9,59.7,62.8,59.7z"/>
	<path class="st1" d="M59.7,113.5c1.1,0,2.1,0.9,2.1,2c0,1.1-0.9,2.1-2,2.1c-1.1,0-2.1-0.9-2.1-2C57.7,114.4,58.6,113.5,59.7,113.5z
		"/>
	<path class="st1" d="M278.3,255.9c1.9,0,3.5,1.6,3.5,3.5c0,1.9-1.6,3.5-3.5,3.5c-1.9,0-3.5-1.6-3.5-3.5
		C274.8,257.4,276.4,255.9,278.3,255.9z"/>
	<path class="st1" d="M238.9,260.9c1.9,0,3.5,1.6,3.5,3.5c0,1.9-1.6,3.5-3.5,3.5s-3.5-1.6-3.5-3.5
		C235.4,262.4,237,260.9,238.9,260.9z"/>
	<path class="st1" d="M201.4,293.5c1.9,0,3.5,1.6,3.5,3.5c0,1.9-1.6,3.5-3.5,3.5c-1.9,0-3.5-1.6-3.5-3.5
		C197.9,295,199.5,293.5,201.4,293.5z"/>
	<path class="st1" d="M188.3,284.3c1.9,0,3.5,1.6,3.5,3.5c0,1.9-1.6,3.5-3.5,3.5c-1.9,0-3.5-1.6-3.5-3.5
		C184.8,285.9,186.4,284.3,188.3,284.3z"/>
	<path class="st1" d="M174.8,272.9c1.4,0,2.6,1.1,2.6,2.6c0,1.4-1.1,2.6-2.6,2.6c-1.4,0-2.6-1.1-2.6-2.6S173.4,272.9,174.8,272.9z"
		/>
	<path class="st1" d="M279.1,232.7c-1.9,0-3.5-1.6-3.5-3.5c0-1.9,1.6-3.5,3.5-3.5c1.9,0,3.5,1.6,3.5,3.5
		C282.6,231.1,281,232.7,279.1,232.7z"/>
	<path class="st1" d="M263.7,196c2.4,0,4.3,1.9,4.3,4.3s-1.9,4.3-4.3,4.3c-2.4,0-4.3-1.9-4.3-4.3C259.4,198,261.3,196,263.7,196z"/>
	<path class="st1" d="M213.2,190.5c3.4,0,6.1,2.7,6.1,6.1c0,3.4-2.7,6.1-6.1,6.1c-3.4,0-6.1-2.7-6.1-6.1S209.8,190.5,213.2,190.5z"
		/>
	
		<ellipse transform="matrix(0.4435 -0.8963 0.8963 0.4435 16.6173 348.2445)" class="st1" cx="288.7" cy="160.7" rx="4.4" ry="4.4"/>
	<path class="st1" d="M309.1,165.1c1.9,0,3.5,1.6,3.5,3.5c0,1.9-1.6,3.5-3.5,3.5c-1.9,0-3.5-1.6-3.5-3.5
		C305.6,166.7,307.2,165.1,309.1,165.1z"/>
	<path class="st1" d="M320.7,186c1.9,0,3.5,1.6,3.5,3.5c0,1.9-1.6,3.5-3.5,3.5c-1.9,0-3.5-1.6-3.5-3.5
		C317.2,187.6,318.8,186,320.7,186z"/>
	<path class="st1" d="M322.1,128.3c0-1.7,1.4-3.2,3.2-3.2c1.7,0,3.2,1.4,3.2,3.2c0,1.7-1.4,3.2-3.2,3.2
		C323.5,131.5,322.1,130.1,322.1,128.3z"/>
	<path class="st1" d="M307.3,118.2c0-1.7,1.4-3.2,3.2-3.2c1.7,0,3.2,1.4,3.2,3.2s-1.4,3.2-3.2,3.2
		C308.7,121.4,307.3,120,307.3,118.2z"/>
	<path class="st1" d="M299.3,64.6c1.7,0,3.2,1.4,3.2,3.2c0,1.7-1.4,3.2-3.2,3.2c-1.7,0-3.2-1.4-3.2-3.2
		C296.1,66,297.6,64.6,299.3,64.6z"/>
	<path class="st1" d="M255.4,29.1c-1.7,0-3.2-1.4-3.2-3.2s1.4-3.2,3.2-3.2c1.7,0,3.2,1.4,3.2,3.2C258.6,27.6,257.2,29.1,255.4,29.1z
		"/>
	<path class="st1" d="M199.3,6.3c-1.7,0-3.2-1.4-3.2-3.2c0-1.7,1.4-3.2,3.2-3.2c1.7,0,3.2,1.4,3.2,3.2C202.4,4.9,201,6.3,199.3,6.3z
		"/>
	<path class="st1" d="M275.9,63.6c2.3,0,4.1,1.8,4.1,4.1c0,2.3-1.8,4.1-4.1,4.1s-4.1-1.8-4.1-4.1C271.8,65.5,273.6,63.6,275.9,63.6z
		"/>
	<circle class="st1" cx="225.4" cy="27.6" r="4.1"/>
	<path class="st1" d="M255.4,93.2c3.3,0,6,2.7,6,6c0,3.3-2.7,6-6,6c-3.3,0-6-2.7-6-6C249.4,95.9,252.1,93.2,255.4,93.2z"/>
	<path class="st1" d="M265.3,190c0,1.6-1.3,2.9-2.9,2.9c-1.6,0-2.9-1.3-2.9-2.9c0-1.6,1.3-2.9,2.9-2.9
		C264,187.1,265.3,188.4,265.3,190z"/>
	<path class="st1" d="M299.4,199.6c1.1,0,2,0.9,2,2c0,1.1-0.9,2-2,2s-2-0.9-2-2S298.3,199.6,299.4,199.6z"/>
	<path class="st1" d="M317.2,158.7c1.1,0,2,0.9,2,2c0,1.1-0.9,2-2,2c-1.1,0-2-0.9-2-2C315.2,159.6,316.1,158.7,317.2,158.7z"/>
	<path class="st1" d="M299.3,104.7c1.1,0,2,0.9,2,2s-0.9,2-2,2c-1.1,0-2-0.9-2-2C297.3,105.6,298.2,104.7,299.3,104.7z"/>
	<path class="st1" d="M265.3,59.3c-1.1,0-2-0.9-2-2c0-1.1,0.9-2,2-2c1.1,0,2,0.9,2,2C267.3,58.4,266.4,59.3,265.3,59.3z"/>
	<path class="st1" d="M224.1,67c1.6,0,2.8,1.3,2.8,2.8c0,1.6-1.3,2.8-2.8,2.8c-1.6,0-2.8-1.3-2.8-2.8S222.5,67,224.1,67z"/>
	<path class="st1" d="M266.6,115.1c0-1.1,0.9-2,2-2c1.1,0,2,0.9,2,2s-0.9,2-2,2C267.5,117.1,266.6,116.2,266.6,115.1z"/>
	<path class="st1" d="M225.1,242c1.9,0,3.5,1.6,3.5,3.5c0,1.9-1.6,3.5-3.5,3.5c-1.9,0-3.5-1.6-3.5-3.5
		C221.6,243.6,223.2,242,225.1,242z"/>
	<path class="st1" d="M238.2,241c2.5,0,4.6,2.1,4.6,4.6c0,2.5-2.1,4.6-4.6,4.6c-2.5,0-4.6-2.1-4.6-4.6
		C233.6,243,235.6,241,238.2,241z"/>
	
		<ellipse transform="matrix(0.9362 -0.3514 0.3514 0.9362 -80.1668 82.1418)" class="st1" cx="186.2" cy="261.9" rx="4.6" ry="4.6"/>
	<path class="st1" d="M104,67.2c1.6,0,2.8,1.2,2.8,2.8c0,1.6-1.2,2.8-2.8,2.8c-1.6,0-2.8-1.2-2.8-2.8
		C101.2,68.5,102.5,67.2,104,67.2z"/>
	<path class="st1" d="M29,105.3c1.1,0,2.1,0.9,2.1,2c0,1.1-0.9,2.1-2,2.1c-1.1,0-2.1-0.9-2.1-2C27,106.2,27.9,105.3,29,105.3z"/>
	<path class="st1" d="M69.3,190.5c0,1.6-1.3,2.9-2.9,3c-1.6,0-2.9-1.3-3-2.9c0-1.6,1.3-2.9,2.9-3C68,187.5,69.3,188.8,69.3,190.5z"
		/>
	<path class="st1" d="M110.1,193.9c1-1.9,3-3.1,5.3-3.2c3.4,0,6.2,2.7,6.2,6.1c0,3.4-2.7,6.2-6.1,6.2c-3.4,0-6.2-2.7-6.2-6.1
		c0-0.9,0.2-1.8,0.6-2.6C110,194.2,110.1,194.1,110.1,193.9z"/>
	<path class="st1" d="M39.8,156.9c2.4,0,4.4,2,4.4,4.4c0,0.7-0.2,1.4-0.5,2c-0.1,0.1-0.1,0.3-0.2,0.4c-0.8,1.2-2.1,2-3.7,2
		c-2.4,0-4.4-2-4.4-4.4C35.4,158.9,37.4,156.9,39.8,156.9z"/>
	<path class="st1" d="M8,186.7c1.9,0,3.5,1.5,3.5,3.5c0,1.9-1.5,3.5-3.5,3.5c-1.9,0-3.5-1.5-3.5-3.5C4.5,188.3,6,186.7,8,186.7z"/>
	<path class="st1" d="M3.2,125.9c1.7,0,3.2,1.4,3.2,3.2c0,1.7-1.4,3.2-3.2,3.2c-1.7,0-3.2-1.4-3.2-3.2C0,127.3,1.4,125.9,3.2,125.9z
		"/>
	<path class="st1" d="M17.9,115.7c1.7,0,3.2,1.4,3.2,3.2c0,1.7-1.4,3.2-3.2,3.2c-1.7,0-3.2-1.4-3.2-3.2
		C14.8,117.2,16.2,115.7,17.9,115.7z"/>
	<path class="st1" d="M72.5,29.5c-1.7,0-3.2-1.4-3.2-3.2c0-1.7,1.4-3.2,3.2-3.2c1.7,0,3.2,1.4,3.2,3.2C75.7,28,74.3,29.5,72.5,29.5z
		"/>
	<path class="st1" d="M155.8,20.8c-1.7,0-3.2-1.4-3.2-3.2c0-1.7,1.4-3.2,3.2-3.2c1.7,0,3.2,1.4,3.2,3.2
		C159,19.4,157.6,20.8,155.8,20.8z"/>
	<path class="st1" d="M128.6,6.5c-1.7,0-3.2-1.4-3.2-3.2c0-1.7,1.4-3.2,3.2-3.2c1.7,0,3.2,1.4,3.2,3.2
		C131.8,5.1,130.3,6.5,128.6,6.5z"/>
	<path class="st1" d="M48.1,68.3c0-2.3,1.8-4.1,4.1-4.1c2.3,0,4.1,1.8,4.1,4.1c0,2.3-1.8,4.1-4.1,4.1C50,72.3,48.2,70.5,48.1,68.3z"
		/>
	<path class="st1" d="M102.6,23.7c2.3,0,4.1,1.8,4.1,4.1c0,2.3-1.8,4.1-4.1,4.1c-2.3,0-4.1-1.8-4.1-4.1
		C98.5,25.6,100.3,23.7,102.6,23.7z"/>
	<path class="st1" d="M163.3,72.8c-2.3,0-4.1-1.8-4.1-4.1c0-2.3,1.8-4.1,4.1-4.1c2.3,0,4.1,1.8,4.1,4.1
		C167.4,70.9,165.6,72.7,163.3,72.8z"/>
	<ellipse transform="matrix(0.983 -0.1835 0.1835 0.983 -17.0445 15.0615)" class="st1" cx="72.8" cy="99.6" rx="6" ry="6"/>
	<path class="st1" d="M28.8,65.2c1.7,0,3.2,1.4,3.2,3.2c0,1.7-1.4,3.2-3.2,3.2c-1.7,0-3.2-1.4-3.2-3.2
		C25.7,66.6,27.1,65.2,28.8,65.2z"/>
	<path class="st1" d="M50.7,256.4c1.9,0,3.5,1.6,3.5,3.5c0,1.9-1.6,3.5-3.5,3.5c-1.9,0-3.5-1.6-3.5-3.5
		C47.2,258,48.7,256.4,50.7,256.4z"/>
	<path class="st1" d="M90.1,261.2c1.9,0,3.5,1.6,3.5,3.5c0,1.9-1.6,3.5-3.5,3.5c-1.9,0-3.5-1.6-3.5-3.5
		C86.6,262.8,88.1,261.2,90.1,261.2z"/>
	<path class="st1" d="M127.7,293.6c1.9,0,3.5,1.6,3.5,3.5c0,1.9-1.6,3.5-3.5,3.5c-1.9,0-3.5-1.6-3.5-3.5
		C124.2,295.2,125.8,293.7,127.7,293.6z"/>
	<path class="st1" d="M140.8,284.4c1.9,0,3.5,1.6,3.5,3.5c0,1.9-1.6,3.5-3.5,3.5c-1.9,0-3.5-1.6-3.5-3.5
		C137.3,286,138.9,284.4,140.8,284.4z"/>
	<path class="st1" d="M164.5,243.1c1.9,0,3.5,1.6,3.5,3.5c0,1.9-1.6,3.5-3.5,3.5c-1.9,0-3.5-1.6-3.5-3.5
		C161,244.7,162.5,243.2,164.5,243.1z"/>
	<path class="st1" d="M49.8,226.2c1.9,0,3.5,1.6,3.5,3.5c0,1.9-1.6,3.5-3.5,3.5c-1.9,0-3.5-1.6-3.5-3.5
		C46.3,227.8,47.8,226.2,49.8,226.2z"/>
	<path class="st1" d="M65.1,196.5c2.4,0,4.3,1.9,4.3,4.2c0,2.4-1.9,4.3-4.2,4.3c-2.4,0-4.3-1.9-4.3-4.2
		C60.8,198.4,62.7,196.5,65.1,196.5z"/>
	<path class="st1" d="M103.8,242.3c1.9,0,3.5,1.6,3.5,3.5c0,1.9-1.6,3.5-3.5,3.5c-1.9,0-3.5-1.6-3.5-3.5
		C100.3,243.9,101.9,242.3,103.8,242.3z"/>
	
		<ellipse transform="matrix(0.8087 -0.5882 0.5882 0.8087 -127.2641 100.426)" class="st1" cx="90.8" cy="245.9" rx="4.6" ry="4.6"/>
	<path class="st1" d="M138.2,262.1c0-2.5,2-4.6,4.6-4.6c2.5,0,4.6,2,4.6,4.6c0,2.5-2,4.6-4.6,4.6
		C140.3,266.6,138.2,264.6,138.2,262.1z"/>
</g>
</svg>
