<?xml version="1.0" encoding="utf-8"?>
<!-- Generator: Adobe Illustrator 23.0.3, SVG Export Plug-In . SVG Version: 6.00 Build 0)  -->
<svg version="1.1" id="Calque_1" xmlns="http://www.w3.org/2000/svg" xmlns:xlink="http://www.w3.org/1999/xlink" x="0px" y="0px"
	 viewBox="0 0 328.4 300.7" style="enable-background:new 0 0 328.4 300.7;" xml:space="preserve">
<style type="text/css">
	.st0{fill:none;stroke:#FFFFFF;stroke-width:0.7;stroke-linecap:round;stroke-linejoin:round;stroke-miterlimit:10;}
	.st1{fill:#FFFFFF;}
</style>
<g>
	<polyline class="st0" points="172.6,17.6 199.7,3.7 225.8,27.8 172.6,17.6 165.1,68.7 225.8,27.8 255.9,26.3 299.6,68.3 325.2,129 
		320.4,190.2 277.7,259.9 200.7,297.2 187.6,287.9 185.6,262 238.3,264.7 224.6,245.8 262.1,190.5 299.3,202.2 320.4,190.2 	"/>
	<polyline class="st0" points="163.9,246.7 174.3,275.8 224.6,245.8 299.3,202.2 	"/>
	<polygon class="st0" points="278.6,229.7 238.3,264.7 277.7,259.9 278.6,229.7 263.3,200.8 212.9,196.9 185.6,262 237.6,245.9 	"/>
	<polyline class="st0" points="174.3,275.8 187.6,287.9 238.3,264.7 200.7,297.2 	"/>
	<line class="st0" x1="199.7" y1="3.7" x2="255.9" y2="26.3"/>
	<polyline class="st0" points="265.4,57.9 299.6,68.3 310.5,118.9 309.1,169.1 	"/>
	<polyline class="st0" points="225.8,27.8 255.6,99.6 310.5,118.9 299.4,107.4 276.2,68.2 255.6,99.6 288.6,161.3 309.1,169.1 
		262.1,190.5 299.4,107.4 299.6,68.3 276.2,68.2 255.9,26.3 265.4,57.9 224.4,70.1 225.8,27.8 265.4,57.9 	"/>
	<polyline class="st0" points="265.4,57.9 268.4,115.6 299.4,107.4 317.1,162 299.3,202.2 277.7,259.2 	"/>
	<line class="st0" x1="268.4" y1="115.6" x2="262.1" y2="190.5"/>
	<line class="st0" x1="317.1" y1="162" x2="325.2" y2="129"/>
	<path class="st0" d="M288.6,161.3l-75.7,35.6c-0.2,0.8,24.7,49,24.7,49l25.7-45.1L288.6,161.3l21.9-42.4l14.8,10.2l-16.1,40
		l11.3,21.1l-3.3-28.2l-8,7.1"/>
	<polyline class="st0" points="263.3,200.8 309.1,169.1 278.6,229.7 320.4,190.2 	"/>
</g>
<g>
	<path class="st1" d="M174.2,273c-1.4,0-2.6,1.1-2.6,2.5s1.1,2.6,2.5,2.6c1.4,0,2.6-1.1,2.6-2.5C176.7,274.1,175.6,273,174.2,273z"
		/>
	<path class="st1" d="M308.9,165.8c-1.9,0-3.5,1.5-3.5,3.5c0,1.9,1.5,3.5,3.5,3.5c1.9,0,3.5-1.5,3.5-3.5
		C312.4,167.4,310.9,165.8,308.9,165.8z"/>
	<path class="st1" d="M299.1,200.2c-1.1,0-2.1,0.9-2.1,2c0,1.1,0.9,2.1,2,2.1c1.1,0,2.1-0.9,2.1-2
		C301.2,201.1,300.3,200.2,299.1,200.2z"/>
	<path class="st1" d="M319.1,161.4c0-1.1-0.9-2.1-2-2.1c-1.1,0-2.1,0.9-2.1,2c0,1.1,0.9,2.1,2,2.1
		C318.2,163.5,319.1,162.6,319.1,161.4z"/>
	<path class="st1" d="M265.6,59.7c1.1,0,2.1-0.9,2.1-2c0-1.1-0.9-2.1-2-2.1c-1.1,0-2.1,0.9-2.1,2C263.6,58.8,264.5,59.7,265.6,59.7z
		"/>
	<path class="st1" d="M268.7,113.5c-1.1,0-2.1,0.9-2.1,2c0,1.1,0.9,2.1,2,2.1c1.1,0,2.1-0.9,2.1-2
		C270.7,114.4,269.8,113.5,268.7,113.5z"/>
	<path class="st1" d="M50.1,255.9c-1.9,0-3.5,1.6-3.5,3.5c0,1.9,1.6,3.5,3.5,3.5c1.9,0,3.5-1.6,3.5-3.5
		C53.6,257.4,52,255.9,50.1,255.9z"/>
	<path class="st1" d="M89.5,260.9c-1.9,0-3.5,1.6-3.5,3.5c0,1.9,1.6,3.5,3.5,3.5s3.5-1.6,3.5-3.5C93,262.4,91.4,260.9,89.5,260.9z"
		/>
	<path class="st1" d="M127,293.5c-1.9,0-3.5,1.6-3.5,3.5c0,1.9,1.6,3.5,3.5,3.5c1.9,0,3.5-1.6,3.5-3.5
		C130.5,295,128.9,293.5,127,293.5z"/>
	<path class="st1" d="M140.1,284.3c-1.9,0-3.5,1.6-3.5,3.5c0,1.9,1.6,3.5,3.5,3.5c1.9,0,3.5-1.6,3.5-3.5
		C143.6,285.9,142,284.3,140.1,284.3z"/>
	<path class="st1" d="M153.6,272.9c-1.4,0-2.6,1.1-2.6,2.6c0,1.4,1.1,2.6,2.6,2.6c1.4,0,2.6-1.1,2.6-2.6S155,272.9,153.6,272.9z"/>
	<path class="st1" d="M49.3,232.7c1.9,0,3.5-1.6,3.5-3.5c0-1.9-1.6-3.5-3.5-3.5c-1.9,0-3.5,1.6-3.5,3.5
		C45.8,231.1,47.4,232.7,49.3,232.7z"/>
	<path class="st1" d="M64.7,196c-2.4,0-4.3,1.9-4.3,4.3s1.9,4.3,4.3,4.3c2.4,0,4.3-1.9,4.3-4.3C69,198,67.1,196,64.7,196z"/>
	<path class="st1" d="M115.2,190.5c-3.4,0-6.1,2.7-6.1,6.1c0,3.4,2.7,6.1,6.1,6.1c3.4,0,6.1-2.7,6.1-6.1S118.6,190.5,115.2,190.5z"
		/>
	<ellipse transform="matrix(0.8963 -0.4435 0.4435 0.8963 -67.1767 34.2664)" class="st1" cx="39.7" cy="160.7" rx="4.4" ry="4.4"/>
	<path class="st1" d="M19.3,165.1c-1.9,0-3.5,1.6-3.5,3.5c0,1.9,1.6,3.5,3.5,3.5c1.9,0,3.5-1.6,3.5-3.5
		C22.8,166.7,21.2,165.1,19.3,165.1z"/>
	<path class="st1" d="M7.7,186c-1.9,0-3.5,1.6-3.5,3.5c0,1.9,1.6,3.5,3.5,3.5c1.9,0,3.5-1.6,3.5-3.5C11.2,187.6,9.6,186,7.7,186z"/>
	<path class="st1" d="M6.3,128.3c0-1.7-1.4-3.2-3.2-3.2c-1.7,0-3.2,1.4-3.2,3.2c0,1.7,1.4,3.2,3.2,3.2
		C4.9,131.5,6.3,130.1,6.3,128.3z"/>
	<path class="st1" d="M21.1,118.2c0-1.7-1.4-3.2-3.2-3.2c-1.7,0-3.2,1.4-3.2,3.2s1.4,3.2,3.2,3.2C19.7,121.4,21.1,120,21.1,118.2z"
		/>
	<path class="st1" d="M29.1,64.6c-1.7,0-3.2,1.4-3.2,3.2c0,1.7,1.4,3.2,3.2,3.2c1.7,0,3.2-1.4,3.2-3.2C32.3,66,30.8,64.6,29.1,64.6z
		"/>
	<path class="st1" d="M73,29.1c1.7,0,3.2-1.4,3.2-3.2s-1.4-3.2-3.2-3.2c-1.7,0-3.2,1.4-3.2,3.2C69.8,27.6,71.2,29.1,73,29.1z"/>
	<path class="st1" d="M129.1,6.3c1.7,0,3.2-1.4,3.2-3.2c0-1.7-1.4-3.2-3.2-3.2c-1.7,0-3.2,1.4-3.2,3.2C126,4.9,127.4,6.3,129.1,6.3z
		"/>
	<path class="st1" d="M52.5,63.6c-2.3,0-4.1,1.8-4.1,4.1c0,2.3,1.8,4.1,4.1,4.1s4.1-1.8,4.1-4.1C56.6,65.5,54.8,63.6,52.5,63.6z"/>
	<circle class="st1" cx="103" cy="27.6" r="4.1"/>
	<path class="st1" d="M73,93.2c-3.3,0-6,2.7-6,6c0,3.3,2.7,6,6,6c3.3,0,6-2.7,6-6C79,95.9,76.3,93.2,73,93.2z"/>
	<path class="st1" d="M63.1,190c0,1.6,1.3,2.9,2.9,2.9c1.6,0,2.9-1.3,2.9-2.9c0-1.6-1.3-2.9-2.9-2.9C64.4,187.1,63.1,188.4,63.1,190
		z"/>
	<path class="st1" d="M29,199.6c-1.1,0-2,0.9-2,2c0,1.1,0.9,2,2,2s2-0.9,2-2S30.1,199.6,29,199.6z"/>
	<path class="st1" d="M11.2,158.7c-1.1,0-2,0.9-2,2c0,1.1,0.9,2,2,2c1.1,0,2-0.9,2-2C13.2,159.6,12.3,158.7,11.2,158.7z"/>
	<path class="st1" d="M29.1,104.7c-1.1,0-2,0.9-2,2s0.9,2,2,2c1.1,0,2-0.9,2-2C31.1,105.6,30.2,104.7,29.1,104.7z"/>
	<path class="st1" d="M63.1,59.3c1.1,0,2-0.9,2-2c0-1.1-0.9-2-2-2c-1.1,0-2,0.9-2,2C61.1,58.4,62,59.3,63.1,59.3z"/>
	<path class="st1" d="M104.3,67c-1.6,0-2.8,1.3-2.8,2.8c0,1.6,1.3,2.8,2.8,2.8c1.6,0,2.8-1.3,2.8-2.8S105.9,67,104.3,67z"/>
	<path class="st1" d="M61.9,115.1c0-1.1-0.9-2-2-2c-1.1,0-2,0.9-2,2s0.9,2,2,2C60.9,117.1,61.9,116.2,61.9,115.1z"/>
	<path class="st1" d="M103.3,242c-1.9,0-3.5,1.6-3.5,3.5c0,1.9,1.6,3.5,3.5,3.5c1.9,0,3.5-1.6,3.5-3.5
		C106.8,243.6,105.2,242,103.3,242z"/>
	<path class="st1" d="M90.3,241c-2.5,0-4.6,2.1-4.6,4.6c0,2.5,2.1,4.6,4.6,4.6c2.5,0,4.6-2.1,4.6-4.6C94.9,243,92.8,241,90.3,241z"
		/>
	
		<ellipse transform="matrix(0.3514 -0.9362 0.9362 0.3514 -153.0017 303.0155)" class="st1" cx="142.2" cy="261.9" rx="4.6" ry="4.6"/>
	<path class="st1" d="M224.4,67.2c-1.6,0-2.8,1.2-2.8,2.8c0,1.6,1.2,2.8,2.8,2.8c1.6,0,2.8-1.2,2.8-2.8
		C227.2,68.5,225.9,67.2,224.4,67.2z"/>
	<path class="st1" d="M299.4,105.3c-1.1,0-2.1,0.9-2.1,2c0,1.1,0.9,2.1,2,2.1c1.1,0,2.1-0.9,2.1-2
		C301.5,106.2,300.5,105.3,299.4,105.3z"/>
	<path class="st1" d="M259.1,190.5c0,1.6,1.3,2.9,2.9,3c1.6,0,2.9-1.3,3-2.9c0-1.6-1.3-2.9-2.9-3
		C260.5,187.5,259.1,188.8,259.1,190.5z"/>
	<path class="st1" d="M218.3,193.9c-1-1.9-3-3.1-5.3-3.2c-3.4,0-6.2,2.7-6.2,6.1c0,3.4,2.7,6.2,6.1,6.2c3.4,0,6.2-2.7,6.2-6.1
		c0-0.9-0.2-1.8-0.6-2.6C218.4,194.2,218.4,194.1,218.3,193.9z"/>
	<path class="st1" d="M288.6,156.9c-2.4,0-4.4,2-4.4,4.4c0,0.7,0.2,1.4,0.5,2c0.1,0.1,0.1,0.3,0.2,0.4c0.8,1.2,2.1,2,3.7,2
		c2.4,0,4.4-2,4.4-4.4C293,158.9,291.1,156.9,288.6,156.9z"/>
	<path class="st1" d="M320.5,186.7c-1.9,0-3.5,1.5-3.5,3.5c0,1.9,1.5,3.5,3.5,3.5c1.9,0,3.5-1.5,3.5-3.5
		C323.9,188.3,322.4,186.7,320.5,186.7z"/>
	<path class="st1" d="M325.3,125.9c-1.7,0-3.2,1.4-3.2,3.2c0,1.7,1.4,3.2,3.2,3.2c1.7,0,3.2-1.4,3.2-3.2
		C328.4,127.3,327,125.9,325.3,125.9z"/>
	<path class="st1" d="M310.5,115.7c-1.7,0-3.2,1.4-3.2,3.2c0,1.7,1.4,3.2,3.2,3.2c1.7,0,3.2-1.4,3.2-3.2
		C313.7,117.2,312.3,115.7,310.5,115.7z"/>
	<path class="st1" d="M255.9,29.5c1.7,0,3.2-1.4,3.2-3.2c0-1.7-1.4-3.2-3.2-3.2c-1.7,0-3.2,1.4-3.2,3.2
		C252.7,28,254.1,29.5,255.9,29.5z"/>
	<path class="st1" d="M172.6,20.8c1.7,0,3.2-1.4,3.2-3.2c0-1.7-1.4-3.2-3.2-3.2c-1.7,0-3.2,1.4-3.2,3.2
		C169.4,19.4,170.9,20.8,172.6,20.8z"/>
	<path class="st1" d="M199.8,6.5c1.7,0,3.2-1.4,3.2-3.2c0-1.7-1.4-3.2-3.2-3.2c-1.7,0-3.2,1.4-3.2,3.2
		C196.7,5.1,198.1,6.5,199.8,6.5z"/>
	<path class="st1" d="M280.3,68.3c0-2.3-1.8-4.1-4.1-4.1c-2.3,0-4.1,1.8-4.1,4.1c0,2.3,1.8,4.1,4.1,4.1
		C278.4,72.3,280.3,70.5,280.3,68.3z"/>
	<path class="st1" d="M225.8,23.7c-2.3,0-4.1,1.8-4.1,4.1c0,2.3,1.8,4.1,4.1,4.1c2.3,0,4.1-1.8,4.1-4.1
		C229.9,25.6,228.1,23.7,225.8,23.7z"/>
	<path class="st1" d="M165.1,72.8c2.3,0,4.1-1.8,4.1-4.1c0-2.3-1.8-4.1-4.1-4.1c-2.3,0-4.1,1.8-4.1,4.1
		C161,70.9,162.8,72.7,165.1,72.8z"/>
	<ellipse transform="matrix(0.1835 -0.983 0.983 0.1835 110.7383 332.5571)" class="st1" cx="255.6" cy="99.6" rx="6" ry="6"/>
	<path class="st1" d="M299.6,65.2c-1.7,0-3.2,1.4-3.2,3.2c0,1.7,1.4,3.2,3.2,3.2c1.7,0,3.2-1.4,3.2-3.2
		C302.8,66.6,301.3,65.2,299.6,65.2z"/>
	<path class="st1" d="M277.8,256.4c-1.9,0-3.5,1.6-3.5,3.5c0,1.9,1.6,3.5,3.5,3.5c1.9,0,3.5-1.6,3.5-3.5
		C281.3,258,279.7,256.4,277.8,256.4z"/>
	<path class="st1" d="M238.3,261.2c-1.9,0-3.5,1.6-3.5,3.5c0,1.9,1.6,3.5,3.5,3.5c1.9,0,3.5-1.6,3.5-3.5
		C241.8,262.8,240.3,261.2,238.3,261.2z"/>
	<path class="st1" d="M200.7,293.6c-1.9,0-3.5,1.6-3.5,3.5c0,1.9,1.6,3.5,3.5,3.5c1.9,0,3.5-1.6,3.5-3.5
		C204.2,295.2,202.6,293.7,200.7,293.6z"/>
	<path class="st1" d="M187.6,284.4c-1.9,0-3.5,1.6-3.5,3.5c0,1.9,1.6,3.5,3.5,3.5c1.9,0,3.5-1.6,3.5-3.5
		C191.1,286,189.5,284.4,187.6,284.4z"/>
	<path class="st1" d="M164,243.1c-1.9,0-3.5,1.6-3.5,3.5c0,1.9,1.6,3.5,3.5,3.5c1.9,0,3.5-1.6,3.5-3.5
		C167.5,244.7,165.9,243.2,164,243.1z"/>
	<path class="st1" d="M278.7,226.2c-1.9,0-3.5,1.6-3.5,3.5c0,1.9,1.6,3.5,3.5,3.5c1.9,0,3.5-1.6,3.5-3.5
		C282.2,227.8,280.6,226.2,278.7,226.2z"/>
	<path class="st1" d="M263.4,196.5c-2.4,0-4.3,1.9-4.3,4.2c0,2.4,1.9,4.3,4.2,4.3c2.4,0,4.3-1.9,4.3-4.2
		C267.6,198.4,265.7,196.5,263.4,196.5z"/>
	<path class="st1" d="M224.6,242.3c-1.9,0-3.5,1.6-3.5,3.5c0,1.9,1.6,3.5,3.5,3.5c1.9,0,3.5-1.6,3.5-3.5
		C228.1,243.9,226.5,242.3,224.6,242.3z"/>
	
		<ellipse transform="matrix(0.5882 -0.8087 0.8087 0.5882 -100.9959 293.4438)" class="st1" cx="237.6" cy="245.9" rx="4.6" ry="4.6"/>
	<path class="st1" d="M190.2,262.1c0-2.5-2-4.6-4.6-4.6c-2.5,0-4.6,2-4.6,4.6c0,2.5,2,4.6,4.6,4.6
		C188.1,266.6,190.2,264.6,190.2,262.1z"/>
</g>
</svg>
