<?xml version="1.0" encoding="utf-8"?>
<!-- Generator: Adobe Illustrator 16.0.0, SVG Export Plug-In . SVG Version: 6.00 Build 0)  -->
<!DOCTYPE svg PUBLIC "-//W3C//DTD SVG 1.1//EN" "http://www.w3.org/Graphics/SVG/1.1/DTD/svg11.dtd">
<svg version="1.1" id="logo" xmlns="http://www.w3.org/2000/svg" xmlns:xlink="http://www.w3.org/1999/xlink" x="0px" y="0px"
	 width="314px" height="164px" viewBox="69.25 54.8 314 164" enable-background="new 69.25 54.8 314 164" xml:space="preserve">
<g>
	<g>
		<g>
			<path fill="#00AAFF" d="M285.6,210.7h-13.2L270,217.9h-4.4l11-30h4.9l11.1,30H288L285.6,210.7z M278,194l-4.4,13.2h10.8L280,194
				l-0.9-3.101H279L278,194z"/>
			<path fill="#00AAFF" d="M304,207.6l-6,10.3h-4.3l7.8-12.1L293.9,194h4.5l5.9,9.899l5.8-9.899h4.3l-7.4,11.6l7.601,12.2h-4.5
				L304,207.6z"/>
			<path fill="#00AAFF" d="M321.3,190c-1.601,0-2.4-0.5-2.4-2c0-1.3,0.8-2,2.4-2c1.6,0,2.399,0.7,2.399,2
				C323.699,189.4,322.9,190,321.3,190z M319.4,217.9V194.2l3.8-0.2V217.9H319.4z"/>
			<path fill="#00AAFF" d="M356.6,217.9V202c0-3.4-1.9-4.9-5-4.9c-2.6,0-4.7,1.5-4.7,4.5v16.3h-3.8v-16.3c0-3.2-2-4.5-4.7-4.5
				c-2,0-4,1.101-5,2.7v18.1h-3.8v-23.8l2.7-0.2l0.7,2.601h0.1c1.4-1.8,3.8-2.8,6.2-2.8c3.2,0,5.3,1.199,6.399,3.6h0.101
				c1.399-2.5,3.8-3.7,6.7-3.7c4.6,0,7.8,2.7,7.8,8.4V217.9H356.6L356.6,217.9z"/>
			<path fill="#00AAFF" d="M378.9,214.9h-0.1c-1.4,2-4,3.301-7.101,3.301c-4.399,0-7.3-2.301-7.3-7.601c0-4.5,2.9-7.2,8.601-7.2
				c2,0,4,0.4,5.5,0.9v-2.4c0-3.8-1.7-5.1-5.601-5.1c-2.5,0-4.6,0.4-6.7,1.4L365.8,195c2.3-1,4.8-1.601,7.7-1.601
				c6.3,0,8.699,2.601,8.699,8.9v15.4H379.3L378.9,214.9z M378.4,207c-0.6-0.4-2.399-0.9-4.8-0.9c-4,0-5.7,1.601-5.7,4.4
				c0,3.399,2,4.6,4.8,4.6c3,0,5.601-2,5.601-4V207H378.4z"/>
		</g>
		<g>
			<g>
				<g>
					<g>
						
							<linearGradient id="SVGID_1_" gradientUnits="userSpaceOnUse" x1="509.301" y1="-238.5906" x2="509.301" y2="-187.0906" gradientTransform="matrix(1 0 0 -1 -282.5996 -130.3901)">
							<stop  offset="0" style="stop-color:#FFFFFF;stop-opacity:0"/>
							<stop  offset="0.1557" style="stop-color:#C2EBFF;stop-opacity:0.1557"/>
							<stop  offset="0.3239" style="stop-color:#88D7FF;stop-opacity:0.3239"/>
							<stop  offset="0.4866" style="stop-color:#57C7FF;stop-opacity:0.4866"/>
							<stop  offset="0.6395" style="stop-color:#31BAFF;stop-opacity:0.6395"/>
							<stop  offset="0.7804" style="stop-color:#16B1FF;stop-opacity:0.7804"/>
							<stop  offset="0.905" style="stop-color:#06ACFF;stop-opacity:0.905"/>
							<stop  offset="1" style="stop-color:#00AAFF"/>
						</linearGradient>
						<path fill="url(#SVGID_1_)" d="M394.699,108.2C350.9,76.3,291.8,56.7,226.7,56.7c-65.101,0-124.2,19.6-168,51.5H394.699z"/>
						<g>
							<g>
								<path fill="#00AAFF" d="M202.3,117.4c-3.1,0-4.7,2.5-5.2,5.7c-0.5,3.4-2.3,15.3-2.7,18.4c-0.199,1.8-0.399,3.7-2.1,4.5
									c-1.8,0.8-3.9-0.4-5.7-2c-1.8-1.601-28.8-24.601-28.8-24.601c-1.6-1.399-3.5-2-5.4-2c-4.1,0-8,2.5-8,8.7v38.4
									c0,3,2.101,4.899,4.601,4.899c2.8,0,4.6-1.8,5-4.5c0,0,3-18.3,3.3-20.3c0.4-2.399,0.8-4.2,3.1-4.899
									c2.101-0.601,4,0.6,6.9,3.1s27.2,24.5,27.2,24.5c1.899,1.6,3.2,2.2,5.899,2.2c2.4,0,6.7-1,6.7-8.3V123
									C207.2,119.3,205,117.4,202.3,117.4z"/>
								<path fill="#00AAFF" d="M376.3,158.2c-21.2,4.6-45.5-0.301-45.5-15.301c0-11.3,10.5-15.899,18.8-16.6
									c8.7-0.7,15.5,1.1,19,4.8c2.2,2.3,1.6,5.4-2.7,5.601c-3.9,0.199-11.3,0.5-17.5,0.699c-3.5,0.101-5.4,2-5.4,4.5
									c0,2,1.5,4.301,5.5,4.301c5.801,0,20.4,0.1,27.7,0.1c4.8,0,7.2-2.7,7.2-8.2c0-8.8-7.899-22-31.1-22
									c-21,0-36.2,10.5-36.2,27.601c0,24.3,35.7,31.699,61.899,22.699c2.5-0.899,4.7-2.6,4-5.399
									C381.3,158.5,379.3,157.6,376.3,158.2z"/>
								<path fill="#00AAFF" d="M130.4,158.2C109.2,162.8,85,157.9,85,142.9c0-11.3,10.5-15.899,18.8-16.6c8.7-0.7,15.5,1.1,19,4.8
									c2.2,2.3,1.6,5.4-2.7,5.601c-4,0.199-11.399,0.5-17.5,0.699c-3.5,0.101-5.399,2-5.399,4.5c0,2,1.5,4.301,5.5,4.301
									c5.8,0,20.399,0.1,27.699,0.1c4.801,0,7.2-2.7,7.2-8.2c0-8.8-7.899-22-31.1-22c-21,0-36.2,10.5-36.2,27.601
									c0,24.3,35.7,31.699,61.9,22.699c2.5-0.899,4.699-2.6,4-5.399C135.4,158.5,133.4,157.6,130.4,158.2z"/>
								<g>
									<path fill="#00AAFF" d="M294.6,134.9c0.5,13.2,1.7,24.2,2.101,28.101c0.5,5,2.999,6.399,5.6,6.399c2.5,0,5.1-1.3,5.5-6.3
										c0.399-4.2,1.6-17.3,2.3-30.3c0-0.7-0.4-1-1-0.9l-13.8,2.2C294.9,134.1,294.6,134.5,294.6,134.9z"/>
									<path fill="#00AAFF" d="M302.3,116.1c-6.3,0-8.2,5-8.1,8c0,0.601,0.1,2.101,0.199,4.101c0,0.399,0.4,0.899,0.9,0.8
										l14.399-2.3c0.5-0.101,0.7-0.4,0.7-0.801c0-0.699,0.101-1.399,0.101-1.699C310.5,121.2,308.6,116.1,302.3,116.1z"/>
								</g>
								<path fill="#00AAFF" d="M281.1,137.2c-4.8,0-19.6,0.1-29.1,0.1c-4.601,0-5.7,2.5-5.7,4.5c0,1.8,1.2,4.1,5.5,4.3
									c6.5,0.3,14.9,0.7,18.7,0.9c5.2,0.3,5.2,2.899,3.5,5.2c-3.5,4.6-12,7.6-20.9,7.6c-11.6,0-24.3-6.6-24.3-17
									c0-9.8,10.9-20.6,43.3-16c2.8,0.4,5.601-0.1,6.3-2.7c0.7-2.8-1.1-4.6-4.8-5.6c-7.3-1.9-14-2.4-20.399-2.4
									c-21.801,0-39.301,10.4-39.301,27.2c0,18,17.4,26.7,39.101,26.7c24.3,0,36.1-13.2,36.1-24.7
									C289.1,139.5,286.1,137.2,281.1,137.2z"/>
							</g>
						</g>
					</g>
				</g>
			</g>
		</g>
	</g>
	<g>
		<g>
			<path fill="none" stroke="#FFFFFF" stroke-width="0.5" d="M0,0"/>
			<path fill="none" stroke="#FFFFFF" stroke-width="0.5" d="M453.5,274.6"/>
		</g>
	</g>
</g>
</svg>
