<?xml version="1.0" encoding="utf-8"?>
<!-- Generator: Adobe Illustrator 23.0.3, SVG Export Plug-In . SVG Version: 6.00 Build 0)  -->
<svg version="1.1" id="Calque_1" xmlns="http://www.w3.org/2000/svg" xmlns:xlink="http://www.w3.org/1999/xlink" x="0px" y="0px"
	 viewBox="0 0 1078.6 7" style="enable-background:new 0 0 1078.6 7;" xml:space="preserve">
<style type="text/css">
	.st0{fill:#E7328A;}
	.st1{fill:#FDC304;}
	.st2{fill:#E30A18;}
	.st3{fill:#1B9CD9;}
	.st4{fill:#BCCF0D;}
	.st5{fill:#65B331;}
	.st6{fill:#008E3E;}
	.st7{fill:#085DA9;}
	.st8{fill:#5B2581;}
</style>
<g>
	<path class="st0" d="M917.5,0h157.6c1.9,0,3.5,1.6,3.5,3.5c0,1.9-1.6,3.5-3.5,3.5H917.5c-1.9,0-3.5-1.6-3.5-3.5
		C914,1.6,915.6,0,917.5,0z"/>
	<path class="st0" d="M764.3,0h73.9c1.9,0,3.5,1.6,3.5,3.5c0,1.9-1.6,3.5-3.5,3.5h-73.9c-1.9,0-3.5-1.6-3.5-3.5
		C760.8,1.6,762.4,0,764.3,0z"/>
	<path class="st1" d="M582.5,0H665c1.9,0,3.5,1.6,3.5,3.5c0,1.9-1.6,3.5-3.5,3.5h-82.5c-1.9,0-3.5-1.6-3.5-3.5
		C579,1.6,580.6,0,582.5,0z"/>
	<path class="st2" d="M665,0h99.2c1.9,0,3.5,1.6,3.5,3.5c0,1.9-1.6,3.5-3.5,3.5H665c-1.9,0-3.5-1.6-3.5-3.5C661.5,1.6,663.1,0,665,0
		z"/>
	<path class="st3" d="M384.1,0h117c1.9,0,3.5,1.6,3.5,3.5c0,1.9-1.6,3.5-3.5,3.5h-117c-1.9,0-3.5-1.6-3.5-3.5
		C380.6,1.6,382.2,0,384.1,0z"/>
	<path class="st4" d="M132.2,0h164c1.9,0,3.5,1.6,3.5,3.5c0,1.9-1.6,3.5-3.5,3.5h-164c-1.9,0-3.5-1.6-3.5-3.5
		C128.7,1.6,130.3,0,132.2,0z"/>
	<path class="st5" d="M3.5,0h68.7c1.9,0,3.5,1.6,3.5,3.5c0,1.9-1.6,3.5-3.5,3.5H3.5C1.6,7,0,5.4,0,3.5C0,1.6,1.6,0,3.5,0z"/>
	<path class="st6" d="M501.2,0h81.3c1.9,0,3.5,1.6,3.5,3.5c0,1.9-1.6,3.5-3.5,3.5h-81.3c-1.9,0-3.5-1.6-3.5-3.5
		C497.7,1.6,499.3,0,501.2,0z"/>
	<path class="st7" d="M296.2,0h87.9c1.9,0,3.5,1.6,3.5,3.5c0,1.9-1.6,3.5-3.5,3.5h-87.9c-1.9,0-3.5-1.6-3.5-3.5
		C292.7,1.6,294.3,0,296.2,0z"/>
	<path class="st6" d="M72.2,0h60c1.9,0,3.5,1.6,3.5,3.5c0,1.9-1.6,3.5-3.5,3.5h-60c-1.9,0-3.5-1.6-3.5-3.5C68.7,1.6,70.2,0,72.2,0z"
		/>
	<path class="st8" d="M838.2,0h79.3c1.9,0,3.5,1.6,3.5,3.5c0,1.9-1.6,3.5-3.5,3.5h-79.3c-1.9,0-3.5-1.6-3.5-3.5
		C834.7,1.6,836.3,0,838.2,0z"/>
</g>
</svg>
