<?xml version="1.0" encoding="utf-8"?>
<!-- Generator: Adobe Illustrator 16.0.0, SVG Export Plug-In . SVG Version: 6.00 Build 0)  -->
<!DOCTYPE svg PUBLIC "-//W3C//DTD SVG 1.1//EN" "http://www.w3.org/Graphics/SVG/1.1/DTD/svg11.dtd">
<svg version="1.1" id="Calque_1" xmlns="http://www.w3.org/2000/svg" xmlns:xlink="http://www.w3.org/1999/xlink" x="0px" y="0px"
	 width="960px" height="6px" viewBox="0 0 960 6" enable-background="new 0 0 960 6" xml:space="preserve">
<g>
	<g>
		<path fill="#E62D87" d="M816.6,0h140.3c1.7,0,3.1,1.3,3.1,3c0,1.7-1.4,3-3.1,3H816.6c-1.7,0-3.1-1.3-3.1-3
			C813.5,1.3,814.9,0,816.6,0z"/>
		<path fill="#E62D87" d="M680.2,0H746c1.7,0,3.1,1.3,3.1,3c0,1.7-1.4,3-3.1,3h-65.8c-1.7,0-3.1-1.3-3.1-3
			C677.1,1.3,678.5,0,680.2,0z"/>
		<path fill="#FFC300" d="M518.5,0h73.5c1.7,0,3.1,1.3,3.1,3c0,1.7-1.4,3-3.1,3h-73.5c-1.7,0-3.1-1.3-3.1-3
			C515.3,1.3,516.7,0,518.5,0z"/>
		<path fill="#E10019" d="M591.9,0h88.3c1.7,0,3.1,1.3,3.1,3c0,1.7-1.4,3-3.1,3h-88.3c-1.7,0-3.1-1.3-3.1-3
			C588.8,1.3,590.2,0,591.9,0z"/>
		<path fill="#00AAFF" d="M341.9,0h104.2c1.7,0,3.1,1.3,3.1,3c0,1.7-1.4,3-3.1,3H341.9c-1.7,0-3.1-1.3-3.1-3
			C338.8,1.3,340.2,0,341.9,0z"/>
		<path fill="#BECD00" d="M117.7,0h146c1.7,0,3.1,1.3,3.1,3c0,1.7-1.4,3-3.1,3h-146c-1.7,0-3.1-1.3-3.1-3C114.6,1.3,116,0,117.7,0z"
			/>
		<path fill="#69AF23" d="M3.1,0h61.1c1.7,0,3.1,1.3,3.1,3c0,1.7-1.4,3-3.1,3H3.1C1.4,6,0,4.7,0,3C0,1.3,1.4,0,3.1,0z"/>
		<path fill="#008737" d="M446.1,0h72.4c1.7,0,3.1,1.3,3.1,3c0,1.7-1.4,3-3.1,3h-72.4c-1.7,0-3.1-1.3-3.1-3C443,1.3,444.3,0,446.1,0
			z"/>
		<path fill="#005FAA" d="M263.7,0h78.2c1.7,0,3.1,1.3,3.1,3c0,1.7-1.4,3-3.1,3h-78.2c-1.7,0-3.1-1.3-3.1-3
			C260.5,1.3,261.9,0,263.7,0z"/>
		<path fill="#008737" d="M64.2,0h53.4c1.7,0,3.1,1.3,3.1,3c0,1.7-1.4,3-3.1,3H64.2c-1.7,0-3.1-1.3-3.1-3C61.1,1.3,62.5,0,64.2,0z"
			/>
		<path fill="#552382" d="M746,0h70.5c1.7,0,3.1,1.3,3.1,3c0,1.7-1.4,3-3.1,3H746c-1.7,0-3.1-1.3-3.1-3C742.9,1.3,744.3,0,746,0z"/>
	</g>
</g>
</svg>
