<?xml version="1.0" encoding="utf-8"?>
<!-- Generator: Adobe Illustrator 23.0.3, SVG Export Plug-In . SVG Version: 6.00 Build 0)  -->
<svg version="1.1" id="Calque_1" xmlns="http://www.w3.org/2000/svg" xmlns:xlink="http://www.w3.org/1999/xlink" x="0px" y="0px"
	 viewBox="0 0 129.9 48.7" style="enable-background:new 0 0 129.9 48.7;" xml:space="preserve">
<style type="text/css">
	.st0{fill:#FFFFFF;}
</style>
<g>
	<path class="st0" d="M63.1,19.6c3.3,0,6-2.7,6-6c0-3.3-2.7-6-6-6c-3.3,0-6,2.7-6,6C57.1,16.9,59.8,19.6,63.1,19.6z"/>
	<path class="st0" d="M57.8,37.1C57.8,37.1,57.8,37.1,57.8,37.1c0.2,0,0.4,0,0.6,0.1c0.1,0,0.1,0,0.2,0.1c0.1,0,0.3,0.1,0.4,0.1
		c0.1,0,0.1,0.1,0.2,0.1c0.1,0.1,0.2,0.1,0.3,0.2c0.1,0.1,0.2,0.1,0.2,0.2c0.1,0.1,0.1,0.1,0.2,0.2c0,0,0,0,0,0c0,0,0.1,0.1,0.1,0.1
		c0.1,0.1,0.2,0.2,0.2,0.3l0,0c0,0,0,0,0,0l0,0c0,0.1,0.1,0.2,0.1,0.2c0.1,0.2,0.2,0.4,0.3,0.7c0,0,0,0.1,0,0.1c0,0,0,0,0,0
		c0,0.2,0.1,0.4,0.1,0.6c0,0,0,0,0,0c0,0,0,0,0,0c0,0,0,0,0,0.1c0,1.7-1.4,3.1-3.1,3.1c0,0,0,0,0,0v5.3h4.4V39v-0.3l1.8-0.6v0.3v10
		h4.4V37l8-2.5v13.9h10.3V31.3l4.6-1.5l9.2,18.6h11.6L101,26.8l13.8-4.3c0,0,0,0,0,0l0,0l0.2-0.1l0.2-0.1l0.2-0.1
		c0.4,0.8,1.2,1.3,2.1,1.3c1.3,0,2.3-1,2.3-2.3c0-1.3-1-2.3-2.3-2.3c-1.3,0-2.3,1-2.3,2.3c0,0.2,0,0.3,0.1,0.5l-0.2,0.1l-0.2,0.1
		l0,0l-0.2,0.1l0,0l-2.9,0.9c0,0,0,0,0,0l-10.9,3.4l14-23.4l-12.2,1.5l-10,17.1l-5.9,0.8V6.4L76.4,7.7V34l-8,2.5v-4.4l1.7,0.3
		l-1.7-10.7v-0.1l0,0l0,0l0,0l-10.5,1.3v0l-1.7,10.7l1.7-0.3V37.1z"/>
	<path class="st0" d="M128.2,14L128.2,14L128.2,14L128.2,14L128.2,14l-10.6,1.3v0l-0.5,2.8c0.1,0,0.2,0,0.3,0c0,0,0.1,0,0.1,0
		c0,0,0,0,0,0l0,0c0,0,0,0,0,0c0.2,0,0.5,0,0.7,0.1c0,0,0,0,0,0c0,0,0,0,0,0c0.2,0.1,0.4,0.2,0.7,0.3c0,0,0,0,0,0c0,0,0,0,0,0
		c0.1,0.1,0.3,0.2,0.4,0.3c0,0,0,0,0,0c0.1,0.1,0.2,0.2,0.4,0.3c0,0,0,0,0,0c0,0,0,0,0,0c0.1,0.1,0.2,0.2,0.3,0.4c0,0,0,0,0,0
		c0,0,0,0,0,0c0.3,0.5,0.4,1,0.4,1.5c0,0,0,0,0,0s0,0,0,0c0,0.2,0,0.4-0.1,0.6c0,0,0,0,0,0c0,0,0,0.1,0,0.1c0,0,0,0,0,0
		c0,0.2-0.1,0.3-0.1,0.5c0,0,0,0,0,0c0,0,0,0.1-0.1,0.1c-0.1,0.2-0.1,0.3-0.2,0.4c0,0,0,0,0,0c0,0,0,0.1-0.1,0.1c0,0,0,0,0,0
		c-0.1,0.1-0.2,0.2-0.3,0.3c0,0,0,0,0,0c0,0-0.1,0.1-0.1,0.1c0,0,0,0,0,0c-0.1,0.1-0.2,0.2-0.3,0.3l0,0c0,0,0,0-0.1,0l0,0
		c-0.1,0.1-0.3,0.2-0.5,0.3c0,0,0,0,0,0c-0.4,0.2-0.8,0.3-1.2,0.3c-0.1,0-0.2,0-0.3,0l-0.1,0c-0.1,0-0.1,0-0.2,0
		c-0.1,0-0.1,0-0.2-0.1l-0.1,0c-0.1,0-0.3-0.1-0.4-0.1c0,0,0,0,0,0l-0.3,2.1l1.7-0.3v22.6h4.4v-9.7l1.8-0.6v10.3h4.4V24.5l1.7,0.3
		L128.2,14z"/>
	<path class="st0" d="M122.9,12c3.3,0,6-2.7,6-6c0-3.3-2.7-6-6-6c-3.3,0-6,2.7-6,6C116.9,9.3,119.6,12,122.9,12z"/>
	<path class="st0" d="M31.2,48.2L31.2,48.2l0,0.2l0,0l0,0l0.1,0.2l18.3-5.8l5.3-1.7l0,0l0,0l0.2-0.1l0.2-0.1l0.2-0.1
		c0.4,0.8,1.2,1.4,2.1,1.4c1.3,0,2.3-1,2.3-2.3c0-1.3-1-2.3-2.3-2.3c-1.3,0-2.3,1-2.3,2.3c0,0.1,0,0.3,0,0.4l-0.2,0.1l-0.2,0.1l0,0
		l-0.2,0.1l0,0l-2.7,0.9c0,0,0,0,0,0l-2.4,0.7l-4.8,1.5l7.4-33.1l-10.2,1.3l-3.8,22.4l-0.8,5.3h-0.2l-1-5.3L32,13.4L18.8,15L15,34.4
		l-0.9,5.3h-0.2L13,34.4L9.6,16.2L0,17.4l7.4,31h12.6l4.7-24l0.9-5.4h0.2l0.9,5.4L31.2,48.2z"/>
</g>
</svg>
