<?xml version="1.0" encoding="utf-8"?>
<!-- Generator: Adobe Illustrator 23.0.3, SVG Export Plug-In . SVG Version: 6.00 Build 0)  -->
<svg version="1.1" id="Calque_1" xmlns="http://www.w3.org/2000/svg" xmlns:xlink="http://www.w3.org/1999/xlink" x="0px" y="0px"
	 viewBox="0 0 146.7 92.4" style="enable-background:new 0 0 146.7 92.4;" xml:space="preserve">
<style type="text/css">
	.st0{fill:#FFFFFF;}
</style>
<g>
	<path class="st0" d="M21.6,86c0,4.3-2.3,6.4-6.8,6.4S7.9,90.3,7.9,86V75.1h3.8V86c0,2.1,0.9,3,3.1,3s3-0.9,3-3V75.1h3.8V86z"/>
	<path class="st0" d="M35.6,92.1L29,82.8l-1-1.5l0,0v1.8V92h-3.4V75h3.3l6.1,8.8l1,1.5l0,0v-1.8V75h3.4v17h-2.8V92.1z"/>
	<path class="st0" d="M41.8,75.1h3.9v17h-3.9V75.1z"/>
	<path class="st0" d="M63.5,75.1l-5.8,17h-4.3l-5.8-17h4.2l3.3,11.5l0.5,1.8h0.1l0.5-1.8l3.4-11.5H63.5z"/>
	<path class="st0" d="M76.9,88.8l-0.1,3.3H65.2v-17h11.2l0.1,3.4h-7.4v3.4h6.3v3h-6.3v3.9L76.9,88.8L76.9,88.8z"/>
	<path class="st0" d="M89,85l4,7.1h-4.5l-3-6.4h-2.4v6.4h-3.8v-17h6.2c4.2,0,6.3,1.7,6.3,5.3C91.9,82.8,90.9,84.4,89,85z M85.6,78.3
		h-2.4v4.6h2.4c1.7,0,2.4-0.5,2.4-2.4C87.9,78.8,87.3,78.3,85.6,78.3z"/>
	<path class="st0" d="M99.3,92.4c-2,0-3.8-0.5-5.3-1.3l0.5-3.3c1.5,0.8,3,1.2,4.7,1.2c1.9,0,2.7-0.7,2.7-1.9c0-2.7-7.8-1.5-7.8-7.2
		c0-2.9,1.9-5.2,6.2-5.2c1.7,0,3.4,0.3,4.8,0.9l-0.5,3.2c-1.4-0.5-2.8-0.7-4.1-0.7c-2.1,0-2.7,0.7-2.7,1.6c0,2.7,7.8,1.4,7.8,7.2
		C105.6,90.4,103.3,92.4,99.3,92.4z"/>
	<path class="st0" d="M108.1,75.1h3.9v17h-3.9V75.1z"/>
	<path class="st0" d="M122.6,78.5v13.6h-3.9V78.5h-4.6l0.1-3.4h12.9l0.1,3.4H122.6z"/>
	<path class="st0" d="M131.9,75.1l2.9,6.4l0.7,1.7h0.1l0.7-1.7l2.7-6.4h4.2l-5.8,11.6v5.4h-3.9v-5.4l-5.9-11.6H131.9z"/>
</g>
<g>
	<path class="st0" d="M123.1,5.1c0.5-0.6,1-1.2,1.5-1.7c0.8-1,1.7-2,2.5-3c0.1-0.1,0.2-0.1,0.3-0.1c4.9-0.1,9.8-0.2,14.8-0.3
		c0.1,0,0.2,0,0.3,0.1c1.3,1.5,2.7,2.9,4,4.4c0,0,0.1,0.1,0.2,0.2c-0.2,0.1-0.4,0.1-0.6,0.2c-0.9,0.2-1.7,0.5-2.6,0.7
		c-0.1,0-0.3,0-0.4,0c-2.7-0.7-5.3-1.5-8-2.3c-0.1,0-0.2,0-0.2-0.1c-0.2,0-0.4,0.1-0.4,0.3c0,0.2,0.1,0.4,0.3,0.5
		c0.1,0,0.1,0,0.2,0.1c2.3,0.6,4.5,1.3,6.8,1.9c0,0,0.1,0,0.2,0.1c-0.6,0.2-1.3,0.4-1.9,0.5c-1.6,0.5-3.2,0.9-4.9,1.4
		c-0.1,0-0.2,0-0.4,0c-3.9-0.9-7.7-1.9-11.6-2.8C123.2,5.2,123.2,5.2,123.1,5.1z"/>
	<path class="st0" d="M128.9,7.4c0.9,0.2,1.8,0.4,2.6,0.6c1.1,0.3,2.2,0.5,3.3,0.8c0.1,0,0.3,0,0.4,0c1.9-0.5,3.8-1.1,5.7-1.7h0.1
		c0,0.1,0,0.1,0,0.2c0,0.9,0,1.7,0.1,2.6c0,0.4-0.1,0.8-0.6,1c-0.8,0.4-1.6,0.6-2.5,0.8c-1.7,0.3-3.4,0.4-5.1,0.2
		c-1.1-0.1-2.2-0.2-3.2-0.6c-0.2-0.1-0.3-0.1-0.5-0.2c-0.3-0.1-0.4-0.4-0.4-0.7C128.9,9.4,128.9,8.4,128.9,7.4z"/>
	<path class="st0" d="M142.3,6.5c0.3,0,0.6,0,0.9,0c0,0.1,0,0.2,0,0.2c0.1,2.3,0.1,4.6,0.2,6.9c0,0.1,0,0.2,0.1,0.3
		c0.4,0.3,0.4,0.8,0,1.2c-0.1,0.1-0.1,0.2-0.1,0.3c0,0.2,0,0.5,0,0.7s-0.2,0.4-0.4,0.4c-0.2,0-0.4-0.1-0.5-0.4c0-0.1,0-0.3,0-0.4
		c0-0.2,0-0.5-0.2-0.7c-0.3-0.3-0.2-0.7,0-1c0.1-0.1,0.1-0.2,0.1-0.4c-0.1-2.3-0.1-4.5-0.2-6.8C142.3,6.7,142.3,6.6,142.3,6.5z"/>
</g>
<circle class="st0" cx="69.5" cy="33.5" r="6.6"/>
<path class="st0" d="M63.6,59.4L63.6,59.4c0.2,0,0.5,0,0.7,0.1c0.1,0,0.1,0,0.2,0.1c0.2,0,0.3,0.1,0.4,0.1s0.1,0.1,0.2,0.1
	c0.1,0.1,0.3,0.1,0.4,0.2c0.1,0.1,0.2,0.1,0.3,0.2c0.1,0.1,0.2,0.1,0.2,0.2l0,0l0.1,0.1c0.1,0.1,0.2,0.2,0.3,0.3l0,0l0,0l0,0
	c0.1,0.1,0.1,0.2,0.1,0.3c0.1,0.2,0.2,0.5,0.3,0.7c0,0.1,0,0.1,0.1,0.2l0,0c0,0.2,0.1,0.4,0.1,0.6l0,0l0,0c0,0,0,0,0,0.1
	c0,1.9-1.5,3.4-3.4,3.4l0,0v5.8h4.8V61.5v-0.3l2-0.6v0.3v11h4.8V59.3l8.8-2.8v15.3h11.3V52.9l5.1-1.6l10.1,20.5h12.8L111,47.9
	l15.2-4.8l0,0l0,0l0.3-0.1l0.3-0.1l0.3-0.1c0.4,0.9,1.3,1.4,2.3,1.4c1.4,0,2.5-1.1,2.5-2.5s-1.1-2.5-2.5-2.5s-2.5,1.1-2.5,2.5
	c0,0.2,0,0.4,0.1,0.6l-0.3,0.1l-0.3,0.1l0,0l-0.3,0.1l0,0l-3.2,1l0,0l-12,3.8l15.4-25.8l-13.5,1.7l-11,18.8l-6.5,0.8V25.6L84,27
	v28.9l-8.8,2.8v-4.9l1.9,0.3l-1.9-11.8v-0.1l0,0l0,0l0,0l-11.6,1.5l0,0l-1.9,11.8l1.9-0.3V59.4z"/>
<path class="st0" d="M141.2,34L141.2,34L141.2,34L141.2,34L141.2,34l-11.6,1.4l0,0l-0.5,3.1c0.1,0,0.2,0,0.3,0h0.1l0,0l0,0l0,0
	c0.3,0,0.5,0.1,0.8,0.1l0,0l0,0c0.3,0.1,0.5,0.2,0.7,0.3l0,0l0,0c0.2,0.1,0.3,0.2,0.5,0.3l0,0c0.1,0.1,0.3,0.2,0.4,0.4l0,0l0,0
	c0.1,0.1,0.2,0.3,0.3,0.4l0,0l0,0c0.3,0.5,0.5,1.1,0.5,1.7l0,0l0,0c0,0.2,0,0.4-0.1,0.7l0,0v0.1l0,0c-0.1,0.2-0.1,0.4-0.2,0.5l0,0
	c0,0,0,0.1-0.1,0.1c-0.1,0.2-0.2,0.3-0.2,0.4l0,0l-0.1,0.1l0,0c-0.1,0.1-0.2,0.2-0.3,0.4l0,0l-0.1,0.1l0,0c-0.1,0.1-0.2,0.2-0.4,0.3
	l0,0c0,0,0,0-0.1,0.1l0,0c-0.2,0.1-0.3,0.2-0.5,0.3l0,0c-0.4,0.2-0.9,0.3-1.3,0.3c-0.1,0-0.3,0-0.4,0h-0.2c-0.1,0-0.1,0-0.2,0
	c-0.1,0-0.2,0-0.2-0.1h-0.1c-0.1,0-0.3-0.1-0.4-0.2l0,0l-0.4,2.3l1.9-0.3v24.9h4.8V61l2-0.6v11.3h4.8V45.3l1.9,0.3L141.2,34z"/>
<circle class="st0" cx="135.4" cy="25.2" r="6.6"/>
<path class="st0" d="M34.4,71.6L34.4,71.6l0.1,0.3l0,0l0,0l0.1,0.3l20.2-6.4l5.8-1.8l0,0l0,0l0.3-0.1l0.3-0.1l0.3-0.1
	c0.4,0.9,1.3,1.5,2.3,1.5c1.4,0,2.5-1.1,2.5-2.5s-1.1-2.5-2.5-2.5s-2.5,1.1-2.5,2.5c0,0.2,0,0.3,0,0.5L61,63.3l-0.3,0.1l0,0
	l-0.3,0.1l0,0l-3,1l0,0l-2.6,0.8L49.5,67l8.2-36.5l-11.2,1.4l-4.2,24.7l-0.9,5.9h-0.3L40,56.7l-4.8-23.3l-14.5,1.8l-4.2,21.4l-1,5.9
	h-0.2l-1-5.9l-3.7-20.1L0,37.8L8.2,72h13.9l5.2-26.5l1-5.9h0.2l1,5.9L34.4,71.6z"/>
</svg>
