<?xml version="1.0" encoding="utf-8"?>
<!-- Generator: Adobe Illustrator 23.0.3, SVG Export Plug-In . SVG Version: 6.00 Build 0)  -->
<svg version="1.1" id="Calque_1" xmlns="http://www.w3.org/2000/svg" xmlns:xlink="http://www.w3.org/1999/xlink" x="0px" y="0px"
	 viewBox="0 0 322 163" style="enable-background:new 0 0 322 163;" xml:space="preserve">
<style type="text/css">
	.st0{fill-rule:evenodd;clip-rule:evenodd;fill:#FFFFFF;}
	.st1{fill:#FFFFFF;}
</style>
<g>
	<g>
		<path class="st0" d="M322,46.2C278.9,17.4,222.6,0,161,0C99.4,0,43.1,17.4,0,46.2C42.9,32,93.1,23.1,161,23.1
			C228.9,23.1,279.1,32,322,46.2"/>
	</g>
	<g>
		<g>
			<g>
				<path class="st1" d="M220.4,155.4H207l-2.4,7.2h-4.4l11.1-30.3h4.9l11.2,30.3h-4.6L220.4,155.4z M212.7,138.5l-4.5,13.3h10.9
					l-4.4-13.3l-0.9-3.2h-0.1L212.7,138.5z"/>
				<path class="st1" d="M238.9,152.2l-6.1,10.4h-4.3l7.8-12.2l-7.7-11.9h4.5l5.9,10l5.9-10h4.4l-7.5,11.8l7.7,12.3h-4.5
					L238.9,152.2z"/>
				<path class="st1" d="M256.4,134.5c-1.7,0-2.5-0.5-2.5-2.1c0-1.3,0.8-2.1,2.5-2.1c1.7,0,2.5,0.7,2.5,2.1
					C258.8,133.9,258,134.5,256.4,134.5z M254.4,162.6v-24l3.8-0.2v24.2H254.4z"/>
				<path class="st1" d="M292,162.6v-16c0-3.4-1.9-4.9-5-4.9c-2.6,0-4.8,1.5-4.8,4.5v16.4h-3.8v-16.4c0-3.3-2.1-4.6-4.7-4.6
					c-2,0-4.1,1.1-5,2.7v18.3h-3.8v-24l2.8-0.2l0.7,2.6h0.1c1.5-1.8,3.8-2.8,6.2-2.8c3.2,0,5.4,1.2,6.5,3.7h0.1
					c1.4-2.5,3.8-3.7,6.8-3.7c4.6,0,7.8,2.7,7.8,8.4v16H292z"/>
				<path class="st1" d="M314.5,159.7l-0.1,0c-1.4,2.1-4,3.4-7.2,3.4c-4.4,0-7.4-2.3-7.4-7.7c0-4.5,2.9-7.3,8.6-7.3
					c2.1,0,4,0.4,5.5,0.9v-2.4c0-3.8-1.7-5.1-5.6-5.1c-2.5,0-4.6,0.4-6.7,1.5l-0.4-3.2c2.3-1,4.9-1.6,7.8-1.6c6.3,0,8.7,2.7,8.7,9
					v15.5h-2.9L314.5,159.7z M314,151.6c-0.6-0.4-2.4-0.9-4.8-0.9c-4,0-5.7,1.6-5.7,4.5c0,3.4,2.1,4.6,4.8,4.6c3,0,5.7-2,5.7-4
					V151.6z"/>
			</g>
			<g>
				<g>
					<g>
						<g>
							<g>
								<g>
									<path class="st1" d="M136.3,61.2c-3.2,0-4.8,2.6-5.2,5.7c-0.5,3.5-2.3,15.5-2.7,18.5c-0.2,1.8-0.4,3.7-2.2,4.5
										c-1.8,0.8-3.9-0.4-5.8-2c-1.8-1.6-29.1-24.8-29.1-24.8c-1.6-1.4-3.5-2-5.4-2c-4.1,0-8.1,2.6-8.1,8.8v38.7
										c0,3,2.1,4.9,4.7,4.9c2.8,0,4.6-1.9,5-4.6c0,0,3-18.4,3.4-20.5c0.4-2.4,0.8-4.3,3.1-5c2.1-0.6,4.1,0.6,7,3.1
										c2.9,2.5,27.4,24.7,27.4,24.7c1.9,1.6,3.2,2.2,5.9,2.2c2.4,0,6.8-1,6.8-8.4V66.7C141.2,63.2,139,61.2,136.3,61.2z"/>
									<path class="st1" d="M311.9,102.4C290.5,107,266,102.1,266,87c0-11.4,10.6-16.1,19-16.8c8.8-0.7,15.6,1.1,19.1,4.8
										c2.2,2.3,1.6,5.4-2.7,5.7c-4,0.2-11.5,0.5-17.7,0.7c-3.5,0.1-5.4,2-5.4,4.6c0,2,1.5,4.3,5.6,4.3c5.8,0,20.6,0.1,27.9,0.1
										c4.8,0,7.2-2.7,7.2-8.3c0-8.8-8-22.2-31.4-22.2c-21.2,0-36.6,10.6-36.6,27.8c0,24.5,36.1,32,62.5,22.9
										c2.5-0.9,4.8-2.7,4-5.5C317,102.7,314.9,101.8,311.9,102.4z"/>
									<path class="st1" d="M63.8,102.4C42.4,107,17.9,102.1,17.9,87c0-11.4,10.6-16.1,19-16.8c8.8-0.7,15.6,1.1,19.1,4.8
										c2.2,2.3,1.6,5.4-2.7,5.7c-4,0.2-11.5,0.5-17.7,0.7c-3.5,0.1-5.4,2-5.4,4.6c0,2,1.5,4.3,5.6,4.3c5.8,0,20.6,0.1,28,0.1
										c4.8,0,7.2-2.7,7.2-8.3c0-8.8-8-22.2-31.4-22.2c-21.2,0-36.6,10.6-36.6,27.8c0,24.5,36.1,32,62.5,22.9
										c2.5-0.9,4.8-2.7,4-5.5C68.8,102.7,66.8,101.8,63.8,102.4z"/>
									<g>
										<path class="st1" d="M229.4,78.9c0.5,13.4,1.7,24.4,2.1,28.3c0.5,5,3,6.4,5.7,6.4c2.5,0,5.1-1.3,5.6-6.4
											c0.4-4.3,1.7-17.5,2.3-30.6c0-0.7-0.4-1-1-0.9l-13.9,2.3C229.7,78.1,229.4,78.5,229.4,78.9z"/>
										<path class="st1" d="M237.2,59.9c-6.4,0-8.3,5-8.2,8.1c0,0.6,0.1,2.2,0.2,4.1c0,0.4,0.4,0.9,1,0.8l14.5-2.4
											c0.5-0.1,0.7-0.4,0.7-0.8c0-0.7,0.1-1.4,0.1-1.7C245.5,65.1,243.6,59.9,237.2,59.9z"/>
									</g>
									<path class="st1" d="M215.8,81.2c-4.8,0-19.8,0.1-29.4,0.1c-4.6,0-5.8,2.5-5.8,4.6c0,1.8,1.2,4.1,5.6,4.3
										c6.6,0.3,15,0.7,18.9,0.9c5.2,0.3,5.3,3,3.5,5.2c-3.5,4.6-12.2,7.6-21.1,7.6c-11.7,0-24.5-6.6-24.5-17.2
										c0-9.9,11-20.8,43.7-16.2c2.9,0.4,5.7-0.1,6.4-2.8c0.8-2.8-1.1-4.6-4.8-5.6c-7.4-1.9-14.2-2.4-20.6-2.4
										c-22,0-39.6,10.5-39.6,27.5c0,18.1,17.6,27,39.5,27c24.5,0,36.4-13.3,36.4-25C223.9,83.5,220.9,81.2,215.8,81.2z"/>
								</g>
							</g>
						</g>
					</g>
				</g>
			</g>
		</g>
	</g>
</g>
</svg>
