<?xml version="1.0" encoding="utf-8"?>
<!-- Generator: Adobe Illustrator 23.0.3, SVG Export Plug-In . SVG Version: 6.00 Build 0)  -->
<svg version="1.1" id="Calque_1" xmlns="http://www.w3.org/2000/svg" xmlns:xlink="http://www.w3.org/1999/xlink" x="0px" y="0px"
	 viewBox="0 0 223 223" style="enable-background:new 0 0 223 223;" xml:space="preserve">
<style type="text/css">
	.st0{fill:#FFFFFF;}
	.st1{fill:#00718B;}
	.st2{fill:none;stroke:#00718B;stroke-miterlimit:10;}
</style>
<circle class="st0" cx="111.5" cy="111.5" r="111.5"/>
<ellipse class="st1" cx="117.2" cy="186.7" rx="1.5" ry="1.5"/>
<circle class="st1" cx="44.5" cy="177.2" r="2.1"/>
<circle class="st1" cx="67.6" cy="180.1" r="2.1"/>
<circle class="st1" cx="89.5" cy="199.2" r="2.1"/>
<circle class="st1" cx="97.2" cy="193.9" r="2.1"/>
<circle class="st1" cx="105.1" cy="186.6" r="1.5"/>
<circle class="st1" cx="44.1" cy="159.5" r="2.1"/>
<circle class="st1" cx="53.1" cy="142.6" r="2.5"/>
<circle class="st1" cx="83.5" cy="146.6" r="3.6"/>
<circle class="st1" cx="38.4" cy="119.5" r="2.6"/>
<circle class="st1" cx="26.5" cy="124.1" r="2"/>
<circle class="st1" cx="19.7" cy="136.3" r="2"/>
<circle class="st1" cx="17.1" cy="100.5" r="1.9"/>
<circle class="st1" cx="25.7" cy="94.6" r="1.9"/>
<circle class="st1" cx="32.2" cy="65" r="1.9"/>
<circle class="st1" cx="57.9" cy="40.5" r="1.9"/>
<circle class="st1" cx="97.6" cy="24.7" r="1.9"/>
<circle class="st1" cx="45.9" cy="65" r="2.4"/>
<circle class="st1" cx="75.5" cy="41.5" r="2.4"/>
<circle class="st1" cx="57.9" cy="83.4" r="3.5"/>
<circle class="st1" cx="53.9" cy="136.6" r="1.7"/>
<circle class="st1" cx="32.2" cy="143.4" r="1.2"/>
<circle class="st1" cx="21.7" cy="119.5" r="1.2"/>
<circle class="st1" cx="32.2" cy="87.9" r="1.2"/>
<circle class="st1" cx="52.2" cy="58.9" r="1.2"/>
<circle class="st1" cx="76.3" cy="66.2" r="1.6"/>
<circle class="st1" cx="50.2" cy="92.7" r="1.2"/>
<circle class="st1" cx="75.7" cy="169.1" r="2.1"/>
<circle class="st1" cx="68" cy="169.1" r="2.7"/>
<circle class="st1" cx="98.4" cy="178.7" r="2.7"/>
<ellipse transform="matrix(4.510677e-03 -1 1 4.510677e-03 79.482 212.6426)" class="st1" cx="146.5" cy="66.4" rx="1.6" ry="1.6"/>
<ellipse class="st1" cx="168.6" cy="136.9" rx="1.7" ry="1.7"/>
<path class="st1" d="M144,140c-0.6-1.1-1.8-1.8-3.1-1.8c-2,0-3.6,1.6-3.6,3.6s1.6,3.6,3.6,3.6s3.6-1.6,3.6-3.6c0-0.5-0.1-1-0.3-1.5
	C144.1,140.2,144,140.1,144,140z"/>
<ellipse transform="matrix(4.503493e-03 -1 1 4.503493e-03 123.5187 205.5826)" class="st1" cx="165" cy="40.8" rx="1.9" ry="1.9"/>
<ellipse transform="matrix(4.522783e-03 -1 1 4.522783e-03 89.3417 156.0626)" class="st1" cx="123.1" cy="33.2" rx="1.9" ry="1.9"/>
<ellipse class="st1" cx="139" cy="24.8" rx="1.9" ry="1.9"/>
<ellipse transform="matrix(4.509969e-03 -1 1 4.509969e-03 105.1091 188.8747)" class="st1" cx="147.4" cy="41.6" rx="2.4" ry="2.4"/>
<ellipse transform="matrix(4.509934e-03 -1 1 4.509934e-03 45.8591 177.1117)" class="st1" cx="111.9" cy="65.5" rx="2.4" ry="2.4"/>
<ellipse class="st1" cx="164.8" cy="83.7" rx="3.5" ry="3.5"/>
<ellipse class="st1" cx="154.7" cy="180.3" rx="2.1" ry="2.1"/>
<ellipse class="st1" cx="132.7" cy="199.3" rx="2.1" ry="2.1"/>
<ellipse class="st1" cx="125" cy="193.9" rx="2.1" ry="2.1"/>
<ellipse class="st1" cx="111.2" cy="169.7" rx="2.1" ry="2.1"/>
<ellipse class="st1" cx="169.4" cy="142.9" rx="2.5" ry="2.5"/>
<ellipse class="st1" cx="146.7" cy="169.2" rx="2.1" ry="2.1"/>
<ellipse class="st1" cx="154.3" cy="169.3" rx="2.7" ry="2.7"/>
<ellipse class="st1" cx="123.9" cy="178.7" rx="2.7" ry="2.7"/>
<g>
	<polyline class="st2" points="116.2,35.7 132.1,27.5 147.4,41.7 116.2,35.7 111.9,65.6 147.4,41.7 165,40.8 190.6,65.4 
		205.6,100.9 202.8,136.7 177.8,177.5 132.7,199.3 125,193.9 123.9,178.8 154.7,180.3 146.7,169.3 168.6,136.9 190.4,143.8 
		202.8,136.7 	"/>
	<polyline class="st2" points="111.2,169.8 117.2,186.8 146.7,169.3 190.4,143.8 	"/>
	<polygon class="st2" points="178.3,159.8 154.7,180.3 177.8,177.5 178.3,159.8 169.3,142.9 139.8,140.6 123.9,178.8 154.3,169.3 	
		"/>
	<polyline class="st2" points="117.2,186.8 125,193.9 154.7,180.3 132.7,199.3 	"/>
	<line class="st2" x1="132.1" y1="27.5" x2="165" y2="40.8"/>
	<polyline class="st2" points="170.6,59.3 190.6,65.4 196.9,95 196.1,124.4 	"/>
	<polyline class="st2" points="147.4,41.7 164.8,83.7 196.9,95 190.5,88.2 176.9,65.3 164.8,83.7 184.1,119.8 196.1,124.4 
		168.6,136.9 190.5,88.2 190.6,65.4 176.9,65.3 165,40.8 170.6,59.3 146.5,66.4 147.4,41.7 170.6,59.3 	"/>
	<polyline class="st2" points="170.6,59.3 172.3,93 190.5,88.2 200.8,120.2 190.4,143.8 177.8,177.1 	"/>
	<line class="st2" x1="172.3" y1="93" x2="168.6" y2="136.9"/>
	<line class="st2" x1="200.8" y1="120.2" x2="205.6" y2="100.9"/>
	<path class="st2" d="M184.1,119.8l-44.3,20.8c-0.1,0.4,14.5,28.7,14.5,28.7l15-26.4L184.1,119.8L196.9,95l8.6,5.9l-9.4,23.5
		l6.6,12.3l-2-16.5l-4.6,4.2"/>
	<polyline class="st2" points="169.3,142.9 196.1,124.4 178.3,159.8 202.8,136.7 	"/>
</g>
<path class="st1" d="M100.8,108.3L100.8,108.3c0.1,0,0.3,0,0.4,0h0.1c0.1,0,0.2,0,0.3,0.1c0,0,0.1,0,0.1,0.1c0.1,0,0.1,0.1,0.2,0.1
	s0.1,0.1,0.2,0.1l0.1,0.1l0,0c0,0,0,0.1,0.1,0.1c0.1,0.1,0.1,0.1,0.2,0.2l0,0l0,0l0,0l0.1,0.1c0.1,0.1,0.1,0.3,0.2,0.4v0.1l0,0
	c0,0.1,0,0.2,0,0.4l0,0l0,0l0,0c0,1.1-0.9,2-2,2l0,0v3.4h2.8v-6.1v0l1.2-0.4v0.2v6.5h2.8v-7.4l5.2-1.6v9h6.7v-11.1l3-0.9l6,12.1h7.5
	l-7.3-14l9-2.8l0,0l0,0h0.2h0.2h0.2c0.3,0.5,0.8,0.9,1.3,0.9c0.8,0,1.5-0.7,1.5-1.5s-0.7-1.5-1.5-1.5s-1.5,0.7-1.5,1.5
	c0,0.1,0,0.2,0,0.3h-0.2h-0.2l0,0h-0.1l0,0l-1.9,0.6l0,0l-7,2.2l9.1-15.2l-7.9,1l-6.5,11.1l-3.9,0.5V88.5l-6.7,0.8v17l-5.2,1.6V105
	l1.1,0.2l-1.1-6.9l0,0l0,0l0,0l0,0l-6.8,0.9l0,0l-1.1,7l1.1-0.2V108.3z"/>
<path class="st1" d="M117,133.2c-0.3,0-0.6,0.1-0.9,0.2l0.1,0.5c0.2-0.1,0.4-0.1,0.7-0.1c0.4,0,0.5,0.1,0.5,0.4v0.1
	c-0.1,0-0.3-0.1-0.5-0.1c-0.6,0-0.9,0.3-0.9,0.8c0,0.6,0.3,0.9,0.8,0.9c0.3,0,0.5-0.1,0.7-0.3l0,0l0.1,0.2h0.5v-1.6
	C118,133.5,117.7,133.2,117,133.2z M117.3,135c0,0.2-0.2,0.3-0.4,0.3s-0.4-0.1-0.4-0.3c0-0.2,0.1-0.3,0.4-0.3c0.2,0,0.3,0,0.4,0.1
	V135z"/>
<path class="st1" d="M119.4,133.2c-0.7,0-1,0.5-1,1.3c0,0.9,0.3,1.4,1,1.4c0.3,0,0.5-0.1,0.7-0.3l0,0l0.1,0.2h0.5v-3.4H120v0.6v0.3
	l0,0C119.8,133.3,119.6,133.2,119.4,133.2z M120,135.1c-0.1,0.1-0.2,0.2-0.4,0.2c-0.4,0-0.5-0.2-0.5-0.8s0.1-0.8,0.5-0.8
	c0.2,0,0.4,0.1,0.4,0.2V135.1z"/>
<path class="st1" d="M121.1,134.5c0,1,0.4,1.4,1.2,1.4s1.2-0.4,1.2-1.4s-0.4-1.4-1.2-1.4C121.5,133.2,121.1,133.6,121.1,134.5z
	 M122.8,134.5c0,0.6-0.1,0.8-0.5,0.8s-0.5-0.2-0.5-0.8s0.1-0.8,0.5-0.8C122.7,133.7,122.8,133.9,122.8,134.5z"/>
<path class="st1" d="M125.2,133.2c-0.3,0-0.5,0.1-0.7,0.3l-0.1-0.2h-0.5v3.2h0.7V136v-0.3l0,0c0.2,0.2,0.4,0.2,0.6,0.2
	c0.6,0,1-0.4,1-1.3C126.2,133.5,125.8,133.2,125.2,133.2z M125,135.3c-0.2,0-0.4-0.1-0.4-0.2V134c0.1-0.1,0.3-0.2,0.4-0.2
	c0.3,0,0.5,0.1,0.5,0.7C125.5,135.2,125.3,135.3,125,135.3z"/>
<path class="st1" d="M127.4,132.6h-0.5l-0.1,0.6h-0.3v0.5h0.3v1.4c0,0.5,0.3,0.8,0.8,0.8c0.2,0,0.4,0,0.4-0.1v-0.5c0,0-0.1,0-0.2,0
	c-0.2,0-0.3-0.1-0.3-0.3v-1.3h0.6v-0.5h-0.6L127.4,132.6L127.4,132.6z"/>
<path class="st1" d="M130.3,135.7l-0.1-0.5c-0.2,0.1-0.5,0.1-0.7,0.1c-0.4,0-0.7-0.2-0.7-0.6h1.5c0-0.1,0-0.2,0-0.3
	c0-0.8-0.4-1.2-1.1-1.2c-0.8,0-1.1,0.5-1.1,1.3c0,0.9,0.4,1.4,1.3,1.4C129.8,135.9,130.1,135.8,130.3,135.7z M129.3,133.7
	c0.3,0,0.4,0.1,0.5,0.5h-0.9C128.9,133.9,129,133.7,129.3,133.7z"/>
<polygon class="st1" points="130.7,135.4 130.7,135.8 132.6,135.8 132.6,135.3 131.4,135.3 131.4,135.3 131.6,135 132.6,133.7 
	132.6,133.2 130.7,133.2 130.7,133.8 131.8,133.8 131.8,133.8 131.6,134.1 "/>
<polygon class="st1" points="135.7,135.8 136.1,133.7 136.1,133.3 136.2,133.3 136.2,133.7 136.6,135.8 137.5,135.8 138.3,132.6 
	137.5,132.6 137.1,134.8 137.1,135.1 137.1,135.1 137,134.8 136.6,132.6 135.8,132.6 135.3,134.8 135.3,135.1 135.2,135.1 
	135.2,134.8 134.8,132.6 134,132.6 134.8,135.8 "/>
<rect x="138.7" y="132.6" class="st1" width="0.7" height="3.2"/>
<polygon class="st1" points="142.8,132.6 142,132.6 141.2,133.9 140.8,133.9 140.8,132.6 140.1,132.6 140.1,135.8 140.8,135.8 
	140.8,134.5 141.2,134.5 142,135.8 142.8,135.8 141.8,134.1 "/>
<rect x="143.3" y="132.6" class="st1" width="0.7" height="3.2"/>
<path class="st1" d="M146.1,135.9c0.3,0,0.4-0.1,0.4-0.3c0-0.2-0.1-0.3-0.4-0.3c-0.3,0-0.4,0.1-0.4,0.3
	C145.8,135.8,145.9,135.9,146.1,135.9z"/>
<polygon class="st1" points="146.4,134.9 146.5,132.6 145.8,132.6 145.9,134.9 "/>
<path class="st1" d="M146.4,93.4L146.4,93.4L146.4,93.4L146.4,93.4L146.4,93.4l-6.9,0.8l0,0l-0.3,1.8c0.1,0,0.1,0,0.2,0h0.1l0,0l0,0
	l0,0c0.2,0,0.3,0,0.5,0.1l0,0l0,0c0.1,0,0.3,0.1,0.4,0.2l0,0l0,0c0.1,0.1,0.2,0.1,0.3,0.2l0,0c0.1,0.1,0.2,0.1,0.2,0.2l0,0l0,0
	c0.1,0.1,0.1,0.2,0.2,0.2l0,0l0,0c0.2,0.3,0.3,0.6,0.3,1l0,0l0,0c0,0.1,0,0.3,0,0.4l0,0c0,0,0,0,0,0.1l0,0c0,0.1-0.1,0.2-0.1,0.3
	l0,0v0.1c0,0.1-0.1,0.2-0.1,0.3l0,0c0,0,0,0,0,0.1l0,0c-0.1,0.1-0.1,0.1-0.2,0.2l0,0c0,0,0,0-0.1,0.1l0,0c-0.1,0.1-0.1,0.1-0.2,0.2
	l0,0l0,0l0,0c-0.1,0.1-0.2,0.1-0.3,0.2l0,0c-0.2,0.1-0.5,0.2-0.8,0.2c-0.1,0-0.2,0-0.2,0h-0.1h-0.1h-0.1l0,0c-0.1,0-0.2-0.1-0.2-0.1
	l0,0l-0.2,1.4l1.1-0.2v14.7h2.8v-6.5l1.2-0.4v6.7h2.8v-15.5l1.1,0.2L146.4,93.4z"/>
<path class="st1" d="M68.8,133.5c0-0.2,0.1-0.3,0.5-0.3c0.2,0,0.5,0.1,0.8,0.1l0.1-0.6c-0.2-0.1-0.6-0.2-0.9-0.2
	c-0.8,0-1.2,0.4-1.2,1c0,1.1,1.5,0.9,1.5,1.4c0,0.2-0.2,0.4-0.5,0.4s-0.6-0.1-0.9-0.2l-0.1,0.6c0.3,0.2,0.6,0.2,1,0.2
	c0.8,0,1.2-0.4,1.2-1C70.3,133.8,68.8,134,68.8,133.5z"/>
<polygon class="st1" points="71.4,133.2 70.7,133.3 70.7,135.8 71.4,135.8 "/>
<path class="st1" d="M71.1,133c0.3,0,0.4-0.1,0.4-0.3c0-0.2-0.1-0.3-0.4-0.3s-0.4,0.1-0.4,0.3C70.7,132.9,70.8,133,71.1,133z"/>
<path class="st1" d="M75.6,135.8v-1.7c0-0.6-0.4-1-0.9-1c-0.3,0-0.6,0.1-0.7,0.3c-0.1-0.2-0.4-0.3-0.7-0.3c-0.2,0-0.5,0.1-0.7,0.3
	l-0.1-0.2H72v2.6h0.7v-1.9c0.1-0.1,0.2-0.2,0.4-0.2c0.2,0,0.4,0.1,0.4,0.4v1.7h0.6v-1.7c0-0.3,0.2-0.4,0.4-0.4
	c0.2,0,0.4,0.1,0.4,0.4v1.7L75.6,135.8L75.6,135.8z"/>
<path class="st1" d="M77.4,135.9c0.6,0,1-0.4,1-1.3c0-1-0.4-1.3-1-1.3c-0.3,0-0.5,0.1-0.7,0.3l-0.1-0.2h-0.5v3.2h0.7v-0.5v-0.3l0,0
	C76.9,135.8,77.1,135.9,77.4,135.9z M76.7,134c0.1-0.1,0.3-0.2,0.4-0.2c0.3,0,0.5,0.1,0.5,0.7c0,0.7-0.2,0.8-0.5,0.8
	c-0.2,0-0.4-0.1-0.4-0.2V134z"/>
<polygon class="st1" points="78.8,135.8 79.5,135.8 79.5,132.5 78.8,132.5 "/>
<polygon class="st1" points="80.8,133.2 80.2,133.3 80.2,135.8 80.8,135.8 "/>
<path class="st1" d="M80.5,133c0.3,0,0.4-0.1,0.4-0.3c0-0.2-0.1-0.3-0.4-0.3s-0.4,0.1-0.4,0.3C80.1,132.9,80.2,133,80.5,133z"/>
<path class="st1" d="M83.6,132.4c-0.3,0-0.4,0.1-0.4,0.3c0,0.2,0.1,0.3,0.4,0.3s0.4-0.1,0.4-0.3C83.9,132.5,83.8,132.4,83.6,132.4z"
	/>
<path class="st1" d="M83.9,135.8v-2.6h-1.6v-0.1c0-0.2,0.1-0.3,0.4-0.3c0.1,0,0.2,0,0.2,0v-0.4c-0.1,0-0.2,0-0.4,0
	c-0.6,0-0.9,0.3-0.9,0.7v0.1h-0.3v0.5h0.3v2.1h0.7v-2.1h0.9v2.1H83.9z"/>
<path class="st1" d="M85.5,133.2c-0.8,0-1.1,0.5-1.1,1.3c0,0.9,0.4,1.4,1.3,1.4c0.3,0,0.6-0.1,0.8-0.2l-0.1-0.5
	c-0.2,0.1-0.5,0.1-0.7,0.1c-0.4,0-0.7-0.2-0.7-0.6h1.5c0-0.1,0-0.2,0-0.3C86.6,133.6,86.2,133.2,85.5,133.2z M85.1,134.3
	c0-0.4,0.2-0.5,0.5-0.5s0.5,0.1,0.5,0.5H85.1z"/>
<polygon class="st1" points="87.7,135.3 87.9,135 88.8,133.7 88.8,133.2 87,133.2 86.9,133.8 88,133.8 88.1,133.8 87.8,134.1 
	86.9,135.4 86.9,135.8 88.8,135.8 88.9,135.3 "/>
<rect x="89.2" y="134.1" class="st1" width="1.2" height="0.5"/>
<polygon class="st1" points="92,135.2 92,135.2 91.9,134.9 91.4,133.2 90.6,133.2 91.6,135.8 92.4,135.8 93.3,133.2 92.6,133.2 
	92.1,134.9 "/>
<path class="st1" d="M93.4,134.5c0,1,0.4,1.4,1.2,1.4c0.8,0,1.2-0.4,1.2-1.4s-0.4-1.4-1.2-1.4C93.8,133.2,93.4,133.6,93.4,134.5z
	 M95.1,134.5c0,0.6-0.1,0.8-0.5,0.8s-0.5-0.2-0.5-0.8s0.1-0.8,0.5-0.8S95.1,133.9,95.1,134.5z"/>
<path class="st1" d="M97.7,134.9c0,0.3-0.1,0.4-0.4,0.4s-0.4-0.1-0.4-0.4v-1.7h-0.7v1.7c0,0.6,0.4,1,1.1,1s1.1-0.3,1.1-1v-1.7h-0.7
	V134.9z"/>
<path class="st1" d="M99.6,135.3c-0.2,0-0.5-0.1-0.7-0.2l-0.1,0.5c0.2,0.1,0.5,0.2,0.8,0.2c0.7,0,1-0.3,1-0.9c0-0.9-1.2-0.7-1.2-1.1
	c0-0.1,0.1-0.2,0.3-0.2c0.2,0,0.5,0,0.7,0.1l0.1-0.5c-0.2-0.1-0.5-0.1-0.7-0.1c-0.7,0-1,0.3-1,0.8c0,0.9,1.2,0.7,1.2,1.1
	C100,135.2,99.9,135.3,99.6,135.3z"/>
<polygon class="st1" points="102.2,135.8 102.9,135.8 102.9,132.5 102.2,132.5 "/>
<path class="st1" d="M104.9,135.6l0.1,0.2h0.5v-1.6c0-0.7-0.3-1-1-1c-0.3,0-0.6,0.1-0.9,0.2l0.1,0.5c0.2-0.1,0.4-0.1,0.7-0.1
	c0.4,0,0.5,0.1,0.5,0.4v0.1c-0.1,0-0.3-0.1-0.5-0.1c-0.6,0-0.9,0.3-0.9,0.8c0,0.6,0.3,0.9,0.8,0.9
	C104.5,135.9,104.7,135.8,104.9,135.6L104.9,135.6z M104.8,135c0,0.2-0.2,0.3-0.4,0.3c-0.2,0-0.4-0.1-0.4-0.3c0-0.2,0.1-0.3,0.4-0.3
	c0.2,0,0.3,0,0.4,0.1V135z"/>
<polygon class="st1" points="108.3,134.9 108.3,135.2 108.2,135.2 108.1,134.9 107.7,133.2 106.9,133.2 107.9,135.8 108.6,135.8 
	109.6,133.2 108.9,133.2 "/>
<polygon class="st1" points="110,135.8 110.7,135.8 110.7,133.2 110,133.3 "/>
<path class="st1" d="M110.3,132.4c-0.3,0-0.4,0.1-0.4,0.3c0,0.2,0.1,0.3,0.4,0.3c0.3,0,0.4-0.1,0.4-0.3
	C110.7,132.5,110.6,132.4,110.3,132.4z"/>
<path class="st1" d="M113.3,135.7l-0.1-0.5c-0.2,0.1-0.5,0.1-0.7,0.1c-0.4,0-0.7-0.2-0.7-0.6h1.5c0-0.1,0-0.2,0-0.3
	c0-0.8-0.4-1.2-1.1-1.2c-0.8,0-1.1,0.5-1.1,1.3c0,0.9,0.4,1.4,1.3,1.4C112.8,135.9,113.1,135.8,113.3,135.7z M112.3,133.7
	c0.3,0,0.5,0.1,0.5,0.5h-0.9C111.9,133.9,112,133.7,112.3,133.7z"/>
<path class="st1" d="M114,136.5c0.2-0.2,0.4-0.7,0.4-0.9c0-0.2-0.1-0.4-0.4-0.4c-0.3,0-0.4,0.2-0.4,0.4c0,0.2,0.1,0.3,0.2,0.3
	l-0.1,0.5L114,136.5z"/>
<path class="st1" d="M83.6,115.5L83.6,115.5v0.2l0,0l0,0v0.2l11.9-3.7l3.4-1.1l0,0l0,0h0.2h0.2h0.2c0.2,0.6,0.8,0.9,1.4,0.9
	c0.8,0,1.5-0.7,1.5-1.5s-0.7-1.5-1.5-1.5s-1.5,0.7-1.5,1.5c0,0.1,0,0.2,0,0.3h-0.2H99l0,0h-0.1l0,0l-1.8,0.6l0,0l-1.5,0.5l-3.1,1
	l4.8-21.5l-6.6,0.8l-2.5,14.5l-0.5,3.4h-0.1l-0.6-3.4L84.2,93l-8.5,1.1l-2.5,12.6l-0.6,3.4h-0.1l-0.6-3.4l-2.2-11.8l-6.2,0.8
	l4.8,20.1h8.2l3.1-15.6l0.6-3.5h-0.1l0.6,3.5L83.6,115.5z"/>
<g>
	<path class="st1" d="M76.1,125.5c0,2.5-1.4,3.7-4,3.7s-4-1.2-4-3.7v-6.4h2.2v6.4c0,1.2,0.5,1.7,1.8,1.7s1.8-0.5,1.8-1.7v-6.4h2.2
		V125.5z"/>
	<path class="st1" d="M84.3,129l-3.9-5.4l-0.6-0.9l0,0v1.1v5.2h-2v-9.9h1.9l3.5,5.1l0.6,0.9l0,0V124v-4.9h2v9.9H84.3z"/>
	<path class="st1" d="M87.9,119.1h2.3v9.9h-2.3V119.1z"/>
	<path class="st1" d="M100.6,119.1l-3.4,9.9h-2.5l-3.4-9.9h2.5l1.9,6.7l0.3,1l0,0l0.3-1l2-6.7H100.6z"/>
	<path class="st1" d="M108.4,127.1l-0.1,1.9h-6.8v-9.9h6.6v2h-4.4v2h3.7v1.8h-3.7v2.3L108.4,127.1L108.4,127.1z"/>
	<path class="st1" d="M115.5,124.9l2.3,4.2h-2.6l-1.7-3.7h-1.4v3.7h-2.2v-9.9h3.6c2.5,0,3.7,1,3.7,3.1
		C117.2,123.6,116.6,124.5,115.5,124.9z M113.5,120.9h-1.4v2.7h1.4c1,0,1.4-0.3,1.4-1.4C114.8,121.2,114.5,120.9,113.5,120.9z"/>
	<path class="st1" d="M121.5,129.2c-1.2,0-2.2-0.3-3.1-0.7l0.3-1.9c0.9,0.5,1.8,0.7,2.8,0.7c1.1,0,1.6-0.4,1.6-1.1
		c0-1.6-4.6-0.9-4.6-4.2c0-1.7,1.1-3,3.6-3c1,0,2,0.2,2.8,0.5l-0.3,1.9c-0.8-0.3-1.6-0.4-2.4-0.4c-1.2,0-1.6,0.4-1.6,1
		c0,1.6,4.6,0.8,4.6,4.2C125.2,128,123.8,129.2,121.5,129.2z"/>
	<path class="st1" d="M126.6,119.1h2.3v9.9h-2.3V119.1z"/>
	<path class="st1" d="M135.1,121.1v7.9h-2.3v-7.9h-2.7l0.1-2h7.5l0.1,2H135.1z"/>
	<path class="st1" d="M140.5,119.1l1.7,3.8l0.4,1l0,0l0.4-1l1.6-3.8h2.5l-3.4,6.8v3.2h-2.3v-3.2l-3.4-6.8H140.5z"/>
</g>
<g>
	<path class="st1" d="M135.7,81.3c0.3-0.3,0.6-0.7,0.9-1c0.5-0.6,1-1.2,1.5-1.7c0.1-0.1,0.1-0.1,0.2-0.1c2.9-0.1,5.8-0.1,8.6-0.2
		c0.1,0,0.1,0,0.2,0.1c0.8,0.9,1.6,1.7,2.4,2.5l0.1,0.1c-0.1,0-0.2,0.1-0.3,0.1c-0.5,0.1-1,0.3-1.5,0.4c-0.1,0-0.2,0-0.2,0
		c-1.6-0.4-3.1-0.9-4.7-1.3h-0.1c-0.1,0-0.2,0.1-0.3,0.2c0,0.1,0,0.2,0.1,0.3h0.1c1.3,0.4,2.6,0.7,4,1.1h0.1
		c-0.4,0.1-0.7,0.2-1.1,0.3c-0.9,0.3-1.9,0.6-2.8,0.8c-0.1,0-0.1,0-0.2,0C140.3,82.4,138.1,81.8,135.7,81.3
		C135.8,81.3,135.8,81.3,135.7,81.3z"/>
	<path class="st1" d="M139.1,82.6c0.5,0.1,1,0.2,1.5,0.4c0.6,0.2,1.3,0.3,1.9,0.5c0.1,0,0.2,0,0.2,0c1.1-0.3,2.2-0.6,3.4-1
		c0,0,0,0,0.1,0v0.1c0,0.5,0,1,0,1.5c0,0.3-0.1,0.4-0.3,0.6c-0.5,0.2-0.9,0.4-1.4,0.4c-1,0.2-2,0.2-3,0.1c-0.6,0-1.3-0.1-1.9-0.4
		c-0.1,0-0.2-0.1-0.3-0.1c-0.2-0.1-0.3-0.2-0.3-0.4C139.1,83.7,139.1,83.2,139.1,82.6z"/>
	<path class="st1" d="M146.9,82.1c0.2,0,0.3,0,0.5,0c0,0.1,0,0.1,0,0.1c0,1.3,0.1,2.7,0.1,4c0,0.1,0,0.1,0.1,0.2
		c0.2,0.2,0.2,0.5,0,0.7c0,0-0.1,0.1-0.1,0.2s0,0.3,0,0.4s-0.1,0.2-0.2,0.3c-0.1,0-0.3-0.1-0.3-0.2s0-0.2,0-0.3c0-0.1,0-0.3-0.1-0.4
		c-0.2-0.2-0.1-0.4,0-0.6c0.1-0.1,0.1-0.1,0.1-0.2c0-1.3-0.1-2.7-0.1-4C146.9,82.2,146.9,82.1,146.9,82.1z"/>
</g>
<g>
	<path class="st1" d="M97.1,86.1c0.3-0.3,0.6-0.7,0.9-1c0.5-0.6,1-1.2,1.5-1.7c0.1-0.1,0.1-0.1,0.2-0.1c2.9-0.1,5.8-0.1,8.6-0.2
		c0.1,0,0.1,0,0.2,0.1c0.8,0.9,1.6,1.7,2.4,2.5l0.1,0.1c-0.1,0-0.2,0.1-0.3,0.1c-0.5,0.1-1,0.3-1.5,0.4c-0.1,0-0.2,0-0.2,0
		c-1.6-0.4-3.1-0.9-4.7-1.3h-0.1c-0.1,0-0.2,0.1-0.3,0.2c0,0.1,0,0.2,0.1,0.3h0.1c1.3,0.4,2.6,0.7,4,1.1h0.1
		c-0.4,0.1-0.7,0.2-1.1,0.3c-0.9,0.3-1.9,0.6-2.8,0.8c-0.1,0-0.1,0-0.2,0C101.7,87.3,99.5,86.7,97.1,86.1
		C97.2,86.2,97.2,86.2,97.1,86.1z"/>
	<path class="st1" d="M100.5,87.4c0.5,0.1,1,0.2,1.5,0.4c0.6,0.2,1.3,0.3,1.9,0.5c0.1,0,0.2,0,0.2,0c1.1-0.3,2.2-0.6,3.4-1
		c0,0,0,0,0.1,0v0.1c0,0.5,0,1,0,1.5c0,0.3-0.1,0.4-0.3,0.6c-0.5,0.2-0.9,0.4-1.4,0.4c-1,0.2-2,0.2-3,0.1c-0.6,0-1.3-0.1-1.9-0.4
		c-0.1,0-0.2-0.1-0.3-0.1c-0.2-0.1-0.3-0.2-0.3-0.4C100.5,88.6,100.5,88,100.5,87.4z"/>
	<path class="st1" d="M108.3,87c0.2,0,0.3,0,0.5,0c0,0.1,0,0.1,0,0.1c0,1.3,0.1,2.7,0.1,4c0,0.1,0,0.1,0.1,0.2
		c0.2,0.2,0.2,0.5,0,0.7c0,0-0.1,0.1-0.1,0.2s0,0.3,0,0.4s-0.1,0.2-0.2,0.3c-0.1,0-0.3-0.1-0.3-0.2s0-0.2,0-0.3c0-0.1,0-0.3-0.1-0.4
		c-0.2-0.2-0.1-0.4,0-0.6c0.1-0.1,0.1-0.1,0.1-0.2c0-1.3-0.1-2.7-0.1-4C108.3,87.1,108.3,87,108.3,87z"/>
</g>
<g>
	<path class="st1" d="M106,89.9c-0.6-0.3-1.2-0.5-1.9-0.5c-0.7,0-1.4,0.2-2,0.6L106,89.9z"/>
	<path class="st1" d="M106.6,90.3c-0.1,0-0.2,0.1-0.3,0.1c-0.9,0.2-2.1,0.2-3.5,0.2c-0.5,0-0.9-0.1-1.2-0.2
		c-0.8,0.7-1.3,1.7-1.3,2.9c0,2.1,1.7,3.9,3.9,3.9c2.1,0,3.9-1.7,3.9-3.9C108,92,107.5,91,106.6,90.3z"/>
</g>
<g>
	<path class="st1" d="M144.7,85c-0.6-0.3-1.2-0.5-1.9-0.5s-1.4,0.2-2,0.6L144.7,85z"/>
	<path class="st1" d="M145.2,85.4c-0.1,0-0.2,0.1-0.3,0.1c-0.9,0.2-2.1,0.2-3.5,0.2c-0.5,0-0.9-0.1-1.2-0.2
		c-0.8,0.7-1.3,1.7-1.3,2.9c0,2.1,1.7,3.9,3.9,3.9c2.1,0,3.9-1.7,3.9-3.9C146.6,87.2,146.1,86.2,145.2,85.4z"/>
</g>
</svg>
