<?xml version="1.0" encoding="utf-8"?>
<!-- Generator: Adobe Illustrator 23.0.3, SVG Export Plug-In . SVG Version: 6.00 Build 0)  -->
<svg version="1.1" id="Calque_1" xmlns="http://www.w3.org/2000/svg" xmlns:xlink="http://www.w3.org/1999/xlink" x="0px" y="0px"
	 viewBox="0 0 174.3 174.3" style="enable-background:new 0 0 174.3 174.3;" xml:space="preserve">
<style type="text/css">
	.st0{fill:#FFFFFF;}
</style>
<g>
	<path class="st0" d="M87.2,0c48.1,0,87.2,39.1,87.2,87.2c0,48.1-39.1,87.2-87.2,87.2S0,135.2,0,87.2C0,39.1,39.1,0,87.2,0z
		 M87.2,12.5c-41.3,0-74.7,33.4-74.7,74.7c0,41.3,33.4,74.7,74.7,74.7s74.7-33.4,74.7-74.7C161.9,45.8,128.5,12.5,87.2,12.5z
		 M66.7,62.3c0-13.7,7.5-19.3,16.6-12.5s24.1,18.1,33.2,24.9s9.1,18.1,0,24.9s-24.1,18.1-33.2,24.9s-16.6,1.2-16.6-12.5
		S66.7,75.9,66.7,62.3z"/>
</g>
</svg>
