<?xml version="1.0" encoding="utf-8"?>
<!-- Generator: Adobe Illustrator 23.0.3, SVG Export Plug-In . SVG Version: 6.00 Build 0)  -->
<svg version="1.1" id="Calque_1" xmlns="http://www.w3.org/2000/svg" xmlns:xlink="http://www.w3.org/1999/xlink" x="0px" y="0px"
	 viewBox="0 0 216.7 272.5" style="enable-background:new 0 0 216.7 272.5;" xml:space="preserve">
<style type="text/css">
	.st0{fill:#FFFFFF;}
	.st1{fill:none;stroke:#FFFFFF;stroke-miterlimit:10;}
</style>
<g id="Groupe_8" transform="matrix(-0.469, 0.883, -0.883, -0.469, 488.5, 42.267)">
	<path id="Tracé_13" class="st0" d="M239.3,402.7c-5.1-3.8-12.4-2.7-16.2,2.4c-3.8,5.1-2.7,12.4,2.4,16.2
		c5.1,3.8,12.4,2.7,16.2-2.4c0,0,0,0,0,0C245.5,413.7,244.5,406.5,239.3,402.7C239.3,402.7,239.3,402.7,239.3,402.7"/>
	<path id="Tracé_14" class="st0" d="M182.6,389.5c-4.1-3-9.8-2.2-12.8,1.9c-3,4.1-2.2,9.8,1.9,12.8c4.1,3,9.8,2.2,12.8-1.9
		C187.6,398.2,186.7,392.5,182.6,389.5C182.6,389.5,182.6,389.5,182.6,389.5"/>
	<path id="Tracé_15" class="st0" d="M212.7,291.6c2.7-3.7,1.9-8.9-1.7-11.6c-3.7-2.7-8.9-1.9-11.6,1.7c-2.7,3.7-1.9,8.9,1.7,11.6
		C204.8,296.1,210,295.3,212.7,291.6C212.7,291.6,212.7,291.6,212.7,291.6"/>
	<path id="Tracé_16" class="st0" d="M259.7,293.4c2.7-3.7,1.9-8.9-1.7-11.6c-3.7-2.7-8.9-1.9-11.6,1.7c-2.7,3.7-1.9,8.9,1.7,11.6
		C251.8,297.9,257,297.1,259.7,293.4C259.7,293.4,259.7,293.4,259.7,293.4"/>
	<path id="Tracé_17" class="st0" d="M359.5,193.6c-3.7-2.7-8.8-1.9-11.6,1.7c-2.7,3.7-1.9,8.8,1.7,11.6c3.7,2.7,8.8,1.9,11.6-1.7
		C363.9,201.5,363.1,196.3,359.5,193.6"/>
	<path id="Tracé_18" class="st0" d="M175.6,363.2c-2.4-1.8-5.7-1.3-7.5,1.1c-1.8,2.4-1.3,5.7,1.1,7.5c2.4,1.8,5.7,1.3,7.5-1.1
		C178.5,368.3,178,365,175.6,363.2"/>
	<path id="Tracé_19" class="st0" d="M297.6,277.3c-2.4-1.8-5.7-1.3-7.5,1.1c-1.8,2.4-1.3,5.7,1.1,7.5s5.7,1.3,7.5-1.1
		C300.5,282.4,300,279.1,297.6,277.3"/>
	<path id="Tracé_20" class="st1" d="M205.2,288.4h48.2l41.2-6l60.2-83.3"/>
</g>
</svg>
