<?xml version="1.0" encoding="utf-8"?>
<!-- Generator: Adobe Illustrator 23.0.3, SVG Export Plug-In . SVG Version: 6.00 Build 0)  -->
<svg version="1.1" id="Calque_1" xmlns="http://www.w3.org/2000/svg" xmlns:xlink="http://www.w3.org/1999/xlink" x="0px" y="0px"
	 viewBox="0 0 175.9 126.7" style="enable-background:new 0 0 175.9 126.7;" xml:space="preserve">
<style type="text/css">
	.st0{fill:#FFFFFF;}
	.st1{fill:none;stroke:#FFFFFF;stroke-miterlimit:10;}
</style>
<g id="Groupe_9" transform="translate(-340.824 -225.772)">
	<path id="Tracé_21" class="st0" d="M410.1,228.1c-4.7-3.5-11.4-2.5-15,2.2c-3.5,4.7-2.5,11.4,2.2,15s11.4,2.5,15-2.2c0,0,0,0,0,0
		C415.8,238.3,414.8,231.6,410.1,228.1"/>
	<path id="Tracé_22" class="st0" d="M407.1,321.9c-7-5.2-16.8-3.7-22,3.3s-3.7,16.8,3.3,22c7,5.2,16.8,3.7,22-3.3
		C415.6,336.9,414.1,327.1,407.1,321.9C407.1,321.9,407.1,321.9,407.1,321.9"/>
	<path id="Tracé_23" class="st0" d="M439.1,235.4c2.4,1.8,5.7,1.3,7.5-1.1s1.3-5.7-1.1-7.5c-2.4-1.8-5.7-1.3-7.5,1.1
		S436.7,233.7,439.1,235.4C439.1,235.4,439.1,235.4,439.1,235.4"/>
	<path id="Tracé_24" class="st0" d="M513.7,315.6c-3.3-2.4-7.9-1.7-10.3,1.5c-2.4,3.3-1.7,7.9,1.5,10.3c3.3,2.4,7.9,1.7,10.3-1.5
		c0,0,0,0,0,0C517.7,322.6,517,318,513.7,315.6C513.7,315.6,513.7,315.6,513.7,315.6"/>
	<path id="Tracé_25" class="st0" d="M350.5,350.3c1.8-2.4,1.3-5.7-1.1-7.5c-2.4-1.8-5.7-1.3-7.5,1.1c-1.8,2.4-1.3,5.7,1.1,7.5
		C345.4,353.2,348.7,352.7,350.5,350.3C350.5,350.3,350.5,350.3,350.5,350.3"/>
	<line id="Ligne_2" class="st1" x1="396" y1="336" x2="511.1" y2="322.5"/>
</g>
</svg>
