<?xml version="1.0" encoding="utf-8"?>
<!-- Generator: Adobe Illustrator 23.0.3, SVG Export Plug-In . SVG Version: 6.00 Build 0)  -->
<svg version="1.1" id="Calque_1" xmlns="http://www.w3.org/2000/svg" xmlns:xlink="http://www.w3.org/1999/xlink" x="0px" y="0px"
	 viewBox="0 0 83.6 63" style="enable-background:new 0 0 83.6 63;" xml:space="preserve">
<style type="text/css">
	.st0{fill:#BECD00;}
</style>
<path id="Tracé_5" class="st0" d="M16.3,26.8h0.9c20.5,0,40.9,0,61.4,0c2.2-0.1,4.2,1.3,4.8,3.5c0.7,2.5-0.8,5.1-3.4,5.7
	c-0.3,0.1-0.7,0.1-1,0.1s-0.6,0-0.9,0H16c0.3,0.3,0.5,0.5,0.7,0.7C22.8,42.9,28.8,49,34.9,55c1.3,1.2,1.7,2.9,1.2,4.6
	c-0.4,1.7-1.7,2.9-3.4,3.3c-1.5,0.4-3.2-0.1-4.3-1.2c-0.5-0.5-1-1-1.6-1.5c-8.3-8.3-16.7-16.7-25-25c-0.5-0.5-1-1.1-1.3-1.8
	c-0.9-1.6-0.6-3.6,0.7-4.9c0-0.1,0.1-0.1,0.2-0.2c9-9,17.9-17.9,26.9-26.8c1.8-1.8,4.8-1.8,6.6,0c1.7,1.7,1.9,4.5,0.3,6.4
	c-0.5,0.5-1,1-1.5,1.6C28,14.9,22.4,20.6,16.8,26.2c-0.2,0.2-0.4,0.3-0.6,0.4L16.3,26.8z"/>
</svg>
