<?xml version="1.0" encoding="utf-8"?>
<!-- Generator: Adobe Illustrator 23.0.3, SVG Export Plug-In . SVG Version: 6.00 Build 0)  -->
<svg version="1.1" id="Calque_1" xmlns="http://www.w3.org/2000/svg" xmlns:xlink="http://www.w3.org/1999/xlink" x="0px" y="0px"
	 viewBox="0 0 83.6 63" style="enable-background:new 0 0 83.6 63;" xml:space="preserve">
<style type="text/css">
	.st0{fill:#BECD00;}
</style>
<path id="Tracé_5" class="st0" d="M67.3,36.2h-0.9c-20.5,0-40.9,0-61.4,0c-2.2,0.1-4.2-1.3-4.8-3.5C-0.5,30.2,1,27.6,3.5,27
	c0.3-0.1,0.7-0.1,1-0.1c0.3,0,0.6,0,0.9,0h62.2c-0.3-0.3-0.5-0.5-0.7-0.7C60.8,20.1,54.7,14.1,48.7,8c-1.3-1.2-1.7-2.9-1.2-4.6
	c0.4-1.7,1.7-2.9,3.4-3.3c1.5-0.4,3.2,0.1,4.3,1.2c0.5,0.5,1,1,1.6,1.5c8.3,8.3,16.7,16.7,25,25c0.5,0.5,1,1.1,1.3,1.8
	c0.9,1.6,0.6,3.6-0.7,4.9c0,0.1-0.1,0.1-0.2,0.2c-9,9-17.9,17.9-26.9,26.8c-1.8,1.8-4.8,1.8-6.6,0c-1.7-1.7-1.9-4.5-0.3-6.4
	c0.5-0.5,1-1,1.5-1.6c5.6-5.6,11.2-11.3,16.8-16.9c0.2-0.2,0.4-0.3,0.6-0.4L67.3,36.2z"/>
</svg>
