<svg xmlns="http://www.w3.org/2000/svg" width="206.003" height="211.948" viewBox="0 0 206.003 211.948">
  <g id="Groupe_42" data-name="Groupe 42" transform="translate(-1304 -1972.436)">
    <g id="Groupe_20" data-name="Groupe 20" transform="translate(130.76 1605.781)">
      <path id="Tracé_39" data-name="Tracé 39" d="M1302.641,404.094a204.157,204.157,0,0,0-63.5,4.631c-7.074,1.656-14.846,4.318-17.919,10.619-2.83,5.8-.569,12.785,3.141,18.116a40.5,40.5,0,0,0,20.8,15.208c8.652,2.763,17.982,2.649,27.106,2.507l16.307-.256a108.389,108.389,0,0,0,12.619-.689,57.053,57.053,0,0,0,33.312-17.118c2.506-2.624,4.832-5.637,5.38-9.148.724-4.641-1.839-9.253-5.274-12.61C1326.505,407.426,1314.209,405.067,1302.641,404.094Z" transform="translate(7.807 6.138)" fill="#87a515"/>
      <path id="Tracé_40" data-name="Tracé 40" d="M1282.678,411.39v33.633a264.577,264.577,0,0,1-13.89-27.933c-1.3-3.074-6.589-1.732-5.267,1.385a276.373,276.373,0,0,0,17.931,35.183,2.459,2.459,0,0,0,1.227,1.024v14.552a161.807,161.807,0,0,1-30.752-10.478,2.664,2.664,0,0,0-.224-.371,47.8,47.8,0,0,1-7-10.246,2.488,2.488,0,0,0,1.028-.955,55.748,55.748,0,0,0,6.3-14.763c.9-3.648,2.553-7.956-.207-11.118-1.837-2.1-4.67-.037-4.475,2.186a2.614,2.614,0,0,0,.839,2.477c-.007,2.475-2.316,8.208-2.791,9.474a56.772,56.772,0,0,1-3.354,7.2c-2.511-5.763-4.512-11.787-6.548-17.263-1.169-3.144-6.448-1.789-5.267,1.387,3.224,8.669,6.46,18.455,11.425,26.831a153.8,153.8,0,0,1-41.106-32.87c-2.277-2.571-6.12,1.136-3.862,3.685,22.428,25.321,52.2,42.659,85.993,50.193v61c0,3.361,5.462,3.361,5.462,0V411.39C1288.14,408.029,1282.678,408.029,1282.678,411.39Z" transform="translate(3.804 7.055)" fill="#293138"/>
      <path id="Tracé_42" data-name="Tracé 42" d="M1364.117,391.544c-17.152-14.489-39.3-23.74-62.159-24.781-32.473-1.511-63.115,12.924-92.092,27L1187.5,404.625c-3.524,1.694-7.211,3.57-9.969,6.175a14.081,14.081,0,0,0-3.386,4.743c-3.087,7.244,2.157,15.764,9.367,19.44,7.237,3.7,15.812,3.829,24.006,3.856q65.709.273,131.446.521c7.484.027,15.076.027,22.232-2.032,7.156-2.085,13.928-6.593,16.687-13.238a19.06,19.06,0,0,0,.165-13.732C1375.7,403.27,1370.1,396.573,1364.117,391.544Z" fill="#87a515"/>
      <path id="Tracé_43" data-name="Tracé 43" d="M1363.5,391.544c-17.152-14.489-39.3-23.74-62.159-24.781-32.473-1.511-63.115,12.924-92.092,27l-22.368,10.866c-3.524,1.694-7.211,3.57-9.969,6.175a22.981,22.981,0,0,0,10.57,5.369c6.691,1.433,13.737.364,20.292-1.537,10.924-3.154,20.974-8.548,31.681-12.274,10.733-3.7,22.777-5.682,33.428-1.8,9.5,3.465,16.578,11.075,24.908,16.651,20.565,13.758,49.978,14.1,70.9.86a32.824,32.824,0,0,0,8.74-7.714C1375.081,403.27,1369.483,396.573,1363.5,391.544Z" transform="translate(0.614)" fill="#a6d514"/>
    </g>
    <path id="Tracé_44" data-name="Tracé 44" d="M14201.947,1309.719c-.6-1.258,15.522-23.511,38.754-14.458s23.951,56.122,23.951,56.122-29.283-16.918-38.623-23.293S14202.544,1310.978,14201.947,1309.719Z" transform="translate(-12818 833)" fill="#a6d514"/>
  </g>
</svg>
