<?xml version="1.0" encoding="utf-8"?>
<!-- Generator: Adobe Illustrator 23.0.3, SVG Export Plug-In . SVG Version: 6.00 Build 0)  -->
<svg version="1.1" id="Calque_1" xmlns="http://www.w3.org/2000/svg" xmlns:xlink="http://www.w3.org/1999/xlink" x="0px" y="0px"
	 viewBox="0 0 540.1 249.7" style="enable-background:new 0 0 540.1 249.7;" xml:space="preserve">
<style type="text/css">
	.st0{fill:#A8115E;}
	.st1{fill:#293138;}
	.st2{fill:#F21D8C;}
	.st3{fill:#F781BF;}
	.st4{fill:#87A515;}
	.st5{fill:#A6D514;}
	.st6{fill:#9DAD1F;}
	.st7{fill:#3F4F56;}
	.st8{fill:#BCCF00;}
</style>
<g>
	<g>
		<g>
			<path class="st0" d="M113.2,134.4c-2.4-0.6-5-0.5-7.2-1.5c-2.2-1-3.8-2.9-6-3.9c-3.5-1.6-7.8-0.3-11.2,1.5
				c-3.4,1.8-6.7,4.1-10.5,4.8c-8.4,1.6-16.4-5-24.9-4.5c-5,0.3-9.5,3-13.1,6.3c-3.9,3.6-7.2,8.1-8.3,13.2
				c-1.1,5.1,0.2,10.8,4.2,14.4c5.1,4.6,12.9,4.7,19.8,4.6c17.7-0.4,35.3-0.7,53-1.1c2.7-0.1,5.5-0.1,7.8-1.3
				c2.9-1.5,4.7-4.4,5.8-7.3c1.9-4.7,2.6-10,1.1-14.8C122.3,139.9,118.4,135.6,113.2,134.4z"/>
			<path class="st1" d="M96.7,157.3v13.5c-2-2.6-3.7-5.5-5-8.5c-0.2-0.4-0.7-0.4-0.8,0c0,0.2-0.1,0.3-0.1,0.5
				c-0.1,0.3,0.2,0.5,0.5,0.5c0.9,2.1,2,4,3.3,5.9c-1.6-0.5-3.2-1.8-4.3-2.8c-0.2-0.1-0.3-0.3-0.5-0.5v-8.7c0-1.1-1.8-1.1-1.8,0v6.7
				c-0.3-0.4-0.5-0.7-0.7-1.1c-0.2-0.5-1-0.1-0.8,0.4c0.4,0.7,0.9,1.4,1.4,2.1v0.8c0,0-0.1,0.1-0.1,0.2c-0.3,1.5-3,2.8-4.3,3.6
				c-0.9,0.6-1.9,1.1-2.8,1.6c1.1-1.8,2.1-3.7,3-5.6c0.2-0.4-0.2-0.8-0.6-0.6c-0.4,0.2-0.4,0.3-0.4,0.7c0,0,0,0,0,0
				c-1,2.2-2.3,4.3-3.6,6.3c0,0,0,0,0,0c-0.1,0.1-0.2,0.2-0.2,0.3c-1,1.4-2,2.8-3.2,4.2v-3.8c1.6-3.6,3-7.4,4.1-11.2
				c0.1-0.5-0.7-0.7-0.8-0.2c-0.9,3.2-2,6.3-3.3,9.3v-13.8c0-1.1-1.8-1.1-1.8,0v17.4c-3.5-2.5-6.2-5.8-7.6-9.8
				c-0.2-0.5-1-0.3-0.8,0.2c0.9,2.4,2.1,4.6,3.7,6.5c-2-0.4-3.6-2.3-5-3.6c-0.4-0.4-1.4-1.2-2.2-2v-8.6c0-1.1-1.8-1.1-1.8,0v12.2
				c-1.5-3.1-2.6-6.3-3.2-9.6c0.3-0.6,0.5-1.3,0.8-1.9c0.2-0.5-0.6-0.7-0.8-0.2l-0.2,0.4c-0.1-0.4-0.1-0.8-0.1-1.3
				c0-0.5-0.9-0.5-0.9,0c0.1,1,0.2,1.9,0.4,2.9c-0.5,1.2-1,2.4-1.4,3.6c-0.5-0.9-0.9-1.9-1.1-2.9v-3.2c0-1.1-1.8-1.1-1.8,0v17.7
				c-3.5-5.1-6.3-10.4-8.5-16.1c-0.2-0.5-1-0.3-0.8,0.2c1.5,3.8,3.2,7.5,5.3,11c-4-4.1-7.5-8.6-10.4-13.5c-0.3-0.5-1,0-0.8,0.4
				c3.5,5.9,7.8,11.2,12.9,16c0,0,0,0,0.1,0c0.7,1.2,1.5,2.3,2.3,3.5v14.8c0,1.1,1.8,1.1,1.8,0v-23.1c0.1,0,0.2-0.1,0.2-0.2
				c0.4-0.9,0.7-1.8,1.1-2.6c1.5,2.3,3.5,4.3,5.3,6.1v19.9c0,1.1,1.8,1.1,1.8,0v-24.3c0.7,0.7,1.3,1.4,2.1,2.1
				c1.6,1.5,3.5,3.5,5.9,3.5c1.1,1.2,2.4,2.3,3.9,3.2v15.6c0,1.1,1.8,1.1,1.8,0v-12.9c1.5-1.6,2.8-3.4,4.1-5.2
				c2-1.1,3.9-2.2,5.8-3.4c0.8-0.5,1.8-1.1,2.4-1.8v23.3c0,1.1,1.8,1.1,1.8,0v-24.1c0.2,0.2,0.5,0.4,0.7,0.5c1.4,1,2.8,2.2,4.6,2.5
				c0.1,0,0.1,0,0.2,0c0.4,0.6,0.9,1.2,1.4,1.8c0.1,0.1,0.1,0.1,0.2,0.1v19.1c0,1.1,1.8,1.1,1.8,0v-33.9
				C98.5,156.2,96.7,156.2,96.7,157.3z M53.7,166v-3c0.2,0.4,0.4,0.9,0.7,1.3C54.1,164.9,53.9,165.5,53.7,166z M55.3,164.3l1.2-3
				c0.6,2.6,1.4,5.1,2.6,7.6C57.7,167.5,56.4,166,55.3,164.3z"/>
			<path class="st0" d="M78.1,146.9c-9.4-0.1-18.9-0.2-28.3,0.8c-3.5,0.4-7.1,0.9-10,2.8c-2.9,1.8-5,5.3-4.2,8.5
				c1.1,4.1,6.2,6.1,10.7,6c4.8-0.1,9.4-1.8,14.1-2.9c4.7-1.1,9.9-1.4,14,1.1c1.8,1.1,3.2,2.6,5.2,3.3c2.1,0.7,4.5,0.2,6.6-0.4
				c8-1.9,16-3.8,24-5.7c-6.2-5.3-12.8-10.7-20.8-12.6C85.7,147,81.9,147,78.1,146.9z"/>
			<path class="st0" d="M67.5,161.6c-2.4,0-4.4,1.2-4.4,2.6c0,1.4,2,2.6,4.4,2.6c2.4,0,4.4-1.2,4.4-2.6
				C71.9,162.8,70,161.6,67.5,161.6z"/>
		</g>
		<path class="st0" d="M110.8,181.6c-4.6-2.9-8.8-4.5-14.2-3.1c-5.4,1.4-7.4,5.8-11.8,6.2c-4.4,0.4-7.9-1.7-11.7-0.2
			c-3.8,1.5-5.3,3.9-8.2,4c-2.9,0.2-2.5-0.9-6.3-0.3c-3.8,0.6-13.9,3.8-13.9,3.8h74C118.8,192,115.4,184.5,110.8,181.6z"/>
	</g>
	<g>
		<path class="st2" d="M44.1,148.6c-6.8-0.6-13.8-0.1-20.4,1.5c-2.3,0.5-4.8,1.4-5.8,3.4c-0.9,1.9-0.2,4.1,1,5.8
			c1.6,2.3,4,4,6.7,4.9c2.8,0.9,5.8,0.9,8.7,0.8c1.7,0,3.5-0.1,5.2-0.1c1.4,0,2.7,0,4.1-0.2c4.1-0.5,7.9-2.6,10.7-5.5
			c0.8-0.8,1.6-1.8,1.7-2.9c0.2-1.5-0.6-3-1.7-4.1C51.8,149.7,47.8,148.9,44.1,148.6z"/>
		<path class="st1" d="M36.4,151.3v10.8c-1.7-2.9-3.2-5.9-4.5-9c-0.4-1-2.1-0.6-1.7,0.4c1.7,3.9,3.6,7.7,5.8,11.3
			c0.1,0.2,0.2,0.3,0.4,0.3v4.7c-3.5-0.8-6.8-1.9-9.9-3.4c0,0,0-0.1-0.1-0.1c-0.9-1-1.6-2.1-2.2-3.3c0.1-0.1,0.2-0.2,0.3-0.3
			c0.9-1.5,1.6-3.1,2-4.7c0.3-1.2,0.8-2.6-0.1-3.6c-0.6-0.7-1.5,0-1.4,0.7c-0.1,0.3,0,0.6,0.3,0.8c0,0.8-0.7,2.6-0.9,3
			c-0.3,0.8-0.7,1.6-1.1,2.3c-0.8-1.9-1.5-3.8-2.1-5.6c-0.4-1-2.1-0.6-1.7,0.4c1,2.8,2.1,5.9,3.7,8.6c-5-2.7-9.4-6.3-13.2-10.6
			c-0.7-0.8-2,0.4-1.2,1.2c7.2,8.1,16.8,13.7,27.7,16.1v19.6c0,1.1,1.8,1.1,1.8,0v-39.9C38.2,150.2,36.4,150.2,36.4,151.3z"/>
		<path class="st2" d="M61.4,142.6c-5.5-4.7-12.6-7.6-20-8c-10.4-0.5-20.3,4.2-29.6,8.7c-2.4,1.2-4.8,2.3-7.2,3.5
			c-1.1,0.5-2.3,1.1-3.2,2c-0.5,0.4-0.8,0.9-1.1,1.5c-1,2.3,0.7,5.1,3,6.3c2.3,1.2,5.1,1.2,7.7,1.2c14.1,0.1,28.2,0.1,42.3,0.2
			c2.4,0,4.8,0,7.1-0.7c2.3-0.7,4.5-2.1,5.4-4.3c0.6-1.5,0.5-3,0.1-4.4C65.1,146.4,63.3,144.2,61.4,142.6z"/>
		<path class="st3" d="M61.4,142.6c-5.5-4.7-12.6-7.6-20-8c-10.4-0.5-20.3,4.2-29.6,8.7c-2.4,1.2-4.8,2.3-7.2,3.5
			c-1.1,0.5-2.3,1.1-3.2,2c0.9,0.9,2.1,1.4,3.4,1.7c2.2,0.5,4.4,0.1,6.5-0.5c3.5-1,6.7-2.7,10.2-3.9c3.5-1.2,7.3-1.8,10.8-0.6
			c3.1,1.1,5.3,3.6,8,5.4c6.6,4.4,16.1,4.5,22.8,0.3c1.1-0.7,2.1-1.5,2.8-2.5C65.1,146.4,63.3,144.2,61.4,142.6z"/>
	</g>
	<path class="st2" d="M34.8,185.3c-4.7,0-8.4,3-8.4,6.8h16.9C43.2,188.3,39.4,185.3,34.8,185.3z"/>
	<path class="st3" d="M46.1,185.7c-3.7,0-6.7,2.8-6.7,6.4h13.3C52.8,188.5,49.8,185.7,46.1,185.7z"/>
</g>
<g>
	<path class="st4" d="M187.9,138.5c-15.8-1.3-31.8-0.2-47.1,3.4c-5.3,1.2-11,3.2-13.3,7.9c-2.1,4.3-0.4,9.5,2.3,13.4
		c3.7,5.2,9.2,9.3,15.4,11.3c6.4,2.1,13.3,2,20.1,1.9c4-0.1,8.1-0.1,12.1-0.2c3.1,0,6.3-0.1,9.4-0.5c9.5-1.3,18.3-6,24.7-12.7
		c1.9-1.9,3.6-4.2,4-6.8c0.5-3.4-1.4-6.9-3.9-9.4C205.6,141,196.4,139.3,187.9,138.5z"/>
	<path class="st1" d="M170.1,144.6v25c-3.8-6.7-7.3-13.6-10.3-20.7c-1-2.3-4.9-1.3-3.9,1c3.8,9,8.2,17.7,13.3,26.1
		c0.2,0.4,0.6,0.6,0.9,0.8v10.8c-8-1.9-15.6-4.5-22.8-7.8c-0.1-0.1-0.1-0.2-0.2-0.3c-2.1-2.2-3.7-4.8-5.2-7.6
		c0.3-0.2,0.6-0.4,0.8-0.7c2-3.4,3.7-7.1,4.7-11c0.7-2.7,1.9-5.9-0.2-8.3c-1.4-1.6-3.5,0-3.3,1.6c-0.1,0.7,0.1,1.4,0.6,1.8
		c0,1.8-1.7,6.1-2.1,7c-0.7,1.9-1.5,3.6-2.5,5.3c-1.9-4.3-3.3-8.7-4.9-12.8c-0.9-2.3-4.8-1.3-3.9,1c2.4,6.4,4.8,13.7,8.5,19.9
		c-11.5-6.3-21.7-14.5-30.5-24.4c-1.7-1.9-4.5,0.8-2.9,2.7c16.6,18.8,38.7,31.7,63.8,37.3v45.3c0,2.5,4.1,2.5,4.1,0v-92.2
		C174.1,142.1,170.1,142.1,170.1,144.6z"/>
	<path class="st5" d="M173,223.7c-9,0-16.3,7.3-16.3,16.3h32.6C189.3,231,182,223.7,173,223.7z"/>
	<path class="st4" d="M227.7,124.7c-12.7-10.8-29.2-17.6-46.1-18.4c-24.1-1.1-46.9,9.6-68.4,20c-5.5,2.7-11.1,5.4-16.6,8.1
		c-2.6,1.3-5.4,2.7-7.4,4.6c-1.1,1-1.9,2.2-2.5,3.5c-2.3,5.4,1.6,11.7,7,14.4c5.4,2.7,11.7,2.8,17.8,2.9c32.5,0.1,65,0.3,97.6,0.4
		c5.6,0,11.2,0,16.5-1.5c5.3-1.5,10.3-4.9,12.4-9.8c1.4-3.4,1.3-6.8,0.1-10.2C236.3,133.4,232.1,128.4,227.7,124.7z"/>
	<path class="st5" d="M227.7,124.7c-12.7-10.8-29.2-17.6-46.1-18.4c-24.1-1.1-46.9,9.6-68.4,20c-5.5,2.7-11.1,5.4-16.6,8.1
		c-2.6,1.3-5.4,2.7-7.4,4.6c2.1,2,4.9,3.3,7.8,4c5,1.1,10.2,0.3,15.1-1.1c8.1-2.3,15.6-6.3,23.5-9.1c8-2.7,16.9-4.2,24.8-1.3
		c7.1,2.6,12.3,8.2,18.5,12.4c15.3,10.2,37.1,10.5,52.6,0.6c2.4-1.5,4.8-3.5,6.5-5.7C236.3,133.4,232.1,128.4,227.7,124.7z"/>
</g>
<g>
	<path class="st6" d="M359.6,222.3c-10,0-18.1,8.1-18.1,18.1h36.1C377.7,230.4,369.6,222.3,359.6,222.3z"/>
	<g>
		<path class="st6" d="M346.3,138.2c-2.3-1.6-4.7-3-7.2-4.1c-2.6-1.2-5.3-2.1-8.2-2.2c-2.8,0-5.8,0.9-7.6,3.1
			c-1.9,2.1-2.4,5.5-0.8,7.9c1,1.5,2.7,2.5,4.5,2.9c1.8,0.5,3.6,0.5,5.4,0.5c3.1,0,6.2,0,9.3,0.1c1.6,0,3.3,0,4.8-0.6
			c1.5-0.7,2.8-2.2,2.6-3.8C348.9,140.2,347.6,139.1,346.3,138.2z"/>
		<path class="st6" d="M391.4,119.6c-1.4-2.3-3.9-3.7-6.3-4.8c-6.7-3.1-13.9-5-21.3-5.4c-2.6-0.2-5.5-0.2-7.6-1.7
			c-1.2-0.9-2.1-2.1-3.2-3.2c-3-2.9-17.9-5.4-29,0.2c-3,1.5-6.3,3.5-7,6.8c-0.6,2.7,0.6,5.4,2.4,7.5c1.3,1.6,2.9,2.9,4.6,3.9
			c1.5,0.9,3.2,1.7,4.9,2.3c3.7,1.2,7.5,1.7,11.4,2c6.9,0.6,13.8,0.7,20.7,0.7c8.1,0.1,16.1,0.2,24.2,0.3c2,0,4.2,0,5.7-1.3
			c2-1.6,2.1-4.9,0.8-7.1C391.5,119.8,391.5,119.7,391.4,119.6z"/>
		<path class="st6" d="M400.9,125.6c-4.3-2-9.3-0.5-13.7,1.3c-7.4,3-14.4,6.7-21.8,9.6s-15.2,5-23,4.6c-4.3-0.2-8.6-1.2-12.9-1.3
			c-4.3-0.1-8.9,0.9-12.1,4c-2.7,2.6-4,7-2.9,10.5c0.2,0.7,0.5,1.4,1,2.1c1.4,2,3.6,3.2,5.9,3.7c2.3,0.5,4.6,0.4,6.9,0.3
			c4.7-0.2,9.4-0.5,14.2-0.7c-0.7,0.1-1.3,0.3-1.9,0.7c-1.2,0.7-2,2.5-1.3,3.8c0.8,1.4,2.6,1.4,4.1,1c3.6-1,6.8-3.3,10.4-3.9
			c3.6-0.6,7.2,0.5,10.7,1.2c9.6,1.7,19.8,0,28.5-4.8c0.8-0.4,1.6-0.9,2.3-1.4c5.2-3.3,9.9-8,11.6-14.1
			C408.6,135.9,406.3,128.2,400.9,125.6z"/>
		<path class="st7" d="M383.3,150.5c-0.2,0.2-0.4,0.3-0.5,0.5c-0.1,0.1-0.2,0.3-0.3,0.4c-2.5,2.8-5.2,5.5-8.1,7.9
			c-2.8,2.4-6.5,5.5-10.2,6.9c1.6-3.2,3.1-6.4,4.4-9.8c1.2-2.9,2.1-5.9,3-9c0.6-2.2,0.7-5.3,1.5-7.6c0.6-0.4,0.7-1.1,0.2-1.6
			c-0.1-0.1-0.1-0.1-0.2-0.2c-0.4-0.5-1.4-0.4-1.6,0.2c-0.7,1.5-0.6,3.3-1,4.9c-0.7,3.1-1.6,6.1-2.6,9.1c-1.8,5.6-4.3,10.9-7.1,16.1
			V151c1.5-1.9,2.8-3.9,3.8-6.1c0.5,0.1,1-0.1,1.2-0.7c1.2-3.9,2.3-7.8,3.2-11.8c0.5-2.4,2-6.9,1.2-9.3c-0.3-0.8-1.1-1-1.7-0.5
			l-0.1,0.1c-0.4,0.4-0.3,1.1,0,1.5c0.4,2.5-1.1,6.8-1.6,9s-1.1,4.3-1.7,6.4c-0.3,0.1-0.5,0.3-0.7,0.6c-0.9,2.5-2.1,4.9-3.6,7.1v-8
			c0.1-0.1,0.2-0.2,0.2-0.4c2.1-5.4,3.4-10.9,4.2-16.6c0.2-1.3-1.9-1.3-2.1,0c-0.5,3.7-1.3,7.3-2.3,10.8v-12.7c0-1.3-2.1-1.3-2.1,0
			v16.7c-0.6,0.2-1,0.6-1,1.4v10c-1.6-3.3-3-6.7-4.2-10.1c0.1-0.1,0.1-0.3,0.1-0.4c0.3-6.4,0.1-12.8-0.8-19.2
			c-0.2-1.3-2.3-1.3-2.1,0c0.6,4.7,0.9,9.4,0.9,14.2c-1.5-5.1-2.7-10.4-3.4-15.8c-0.2-1.3-2.3-1.3-2.1,0
			c1.6,12.1,5.2,23.7,10.8,34.6c0.2,0.3,0.4,0.5,0.7,0.5v11.6c-1.2-0.5-2.2-1.2-3.3-1.9c-0.1-0.1-0.2-0.2-0.3-0.2
			c-2.8-2.1-5.2-4.8-7.1-7.9c0.3-0.1,0.5-0.4,0.5-0.9c-0.4-12.4-2.3-24.6-5.4-36.6c-0.3-1.3-2.3-0.7-2,0.6c1.3,5,2.4,9.9,3.2,15
			c-4.4-4.2-7.9-9.1-10.6-14.6c-0.6-1.2-2.4-0.1-1.8,1c3.2,6.5,7.5,12.1,12.9,16.9c0.8,5.2,1.3,10.4,1.5,15.7
			c-1.3-2.4-2.3-4.9-3.2-7.4c-0.4-1.3-2.5-0.7-2,0.6c2.4,6.7,5.9,13.5,11.3,18.1c-9,1.8-18.6-5.9-23.6-12.6c-0.8-1.1-2.6,0-1.8,1
			c5.8,7.8,17.2,16.6,27.5,13.1c1.3,0.9,2.6,1.6,4.1,2.2v69c0,2,3.1,2,3.1,0v-63c0.1-0.1,0.3-0.2,0.4-0.4c0.6-1.1,1.3-2.2,1.8-3.3
			c0.1,0,0.3,0,0.4,0c3.8-0.8,7.4-3.8,10.4-6.1c4.1-3.2,7.8-6.7,11.1-10.6C385.6,151,384.3,149.6,383.3,150.5z"/>
		<path class="st7" d="M354.4,93.9c0.1,3.6,0.1,7.2,0.2,10.8c-2.1-3.4-4.1-7-6-10.6c-0.6-1.2-2.4-0.1-1.8,1c2.2,4.2,4.5,8.2,7,12.2
			c0.2,0.3,0.5,0.5,0.8,0.5c0,2.4,0.1,4.7,0.1,7.1c0,1.3,2.1,1.3,2.1,0c-0.1-7-0.2-14-0.3-21C356.4,92.6,354.3,92.5,354.4,93.9z"/>
		<path class="st7" d="M372.9,99.9c-2.7,3.5-6,6.4-9.7,8.6c1.5-2.9,3-5.8,4.3-8.7c0.1-0.1,0.2-0.3,0.3-0.5c0.1-0.3,0.2-0.7,0.3-1
			c0.4-1.1-1.4-1.9-1.9-0.8c-1.5,3.4-3.2,6.8-5,10.1c0.3-3.6,0.7-7.1,1.2-10.6c0.2-1.3-1.8-1.9-2-0.6c-1.1,6.9-1.7,13.8-1.7,20.8
			c0,1.1,1.9,1.5,2,0.3c0.1-0.4,0.1-0.9,0.2-1.3c0-0.2,0-0.5-0.1-0.6c0-1.1,0.1-2.2,0.1-3.2c0.1-0.2,0.2-0.4,0.3-0.6
			c0.1,0,0.2,0,0.3-0.1c5-2.4,9.3-5.9,12.7-10.3C375.2,100.4,373.7,98.9,372.9,99.9z"/>
		<path class="st6" d="M378.7,82.7c-4.1-1.2-8.4-1.1-12.6-1c2.1-2.4,0.9-6.6-1.8-8.4c-2.6-1.9-6.1-2-9.3-1.7
			c-3.8,0.4-7.5,1.2-11,2.5c-0.3,0.1-0.7,0.2-1,0.4c-1.2,0.5-2.3,1-3.2,1.9s-1.5,2.2-1.2,3.4c0.4,1.7,2.4,2.7,4.1,3
			c1.8,0.4,3.7,0.5,5.1,1.7c-1.6,0.5-3.3,0.9-4.7,1.9s-2.5,2.5-2.6,4.2c0,2.5,2.2,4.4,4.5,5.5c4.4,2.2,9.5,2.8,14.4,3.3
			c6,0.7,12,1.4,18,2c1.2,0.1,2.4,0.3,3.6,0.2c1.1,0,2.1-0.2,3.1-0.6c3.9-1.6,5.5-6.8,4-10.7C386.6,86.5,382.8,83.8,378.7,82.7z"/>
		<path class="st8" d="M378.7,82.7c-4.1-1.2-8.4-1.1-12.6-1c2.1-2.4,0.9-6.6-1.8-8.4c-2.6-1.9-6.1-2-9.3-1.7
			c-3.8,0.4-7.5,1.2-11,2.5c-0.4,0.9-0.5,1.8-0.3,2.7c0.7,2.3,3.4,3.3,5.8,3.7c4.2,0.7,8.5,0.8,12.8,0.2c-2.4,2.8-4.8,5.5-7.3,8.3
			c3.8-0.9,7.7-1.8,11.6-2c3.1-0.2,6.2,0.1,9.1,1.3c2.8,1.2,5.3,3.5,6.3,6.4c0.8,2.3,0.4,5-1,7c1.1,0,2.1-0.2,3.1-0.6
			c3.9-1.6,5.5-6.8,4-10.7C386.6,86.5,382.8,83.8,378.7,82.7z"/>
		<path class="st8" d="M385.1,114.8c-6.7-3.1-13.9-5-21.3-5.4c-2.6-0.2-5.5-0.2-7.6-1.7c-1.2-0.9-2.1-2.1-3.2-3.2
			c-3-2.9-17.9-5.4-29,0.2c-3,1.5-6.3,3.5-7,6.8c-0.6,2.7,0.6,5.4,2.4,7.5c1.3,1.6,2.9,2.9,4.6,3.9c6.6-4.4,15.3-5.7,22.8-3.3
			c2.3,0.7,4.4,1.8,6.7,2.5c2.4,0.7,4.9,0.9,7.4,1.2c2.5,0.2,5,0.5,7.5,0.7c1.4,0.1,2.9,0.3,4.3-0.1c2.2-0.5,4-2.1,6-3.1
			c2.5-1.3,5.5-1.8,8.3-1.3c1.5,0.3,3.3,0.7,4.7,0.3c-0.1-0.1-0.1-0.2-0.1-0.2C390,117.3,387.5,115.9,385.1,114.8z"/>
		<path class="st8" d="M400.9,125.6c-4.3-2-9.3-0.5-13.7,1.3c-7.4,3-14.4,6.7-21.8,9.6s-15.2,5-23,4.6c-4.3-0.2-8.6-1.2-12.9-1.3
			c-4.3-0.1-8.9,0.9-12.1,4c-2.7,2.6-4,7-2.9,10.5c0.9-0.5,2-0.8,3-1c3.4-0.6,7,0.1,10.4,0.8c3.4,0.8,6.9,1.6,10.4,1.2
			c4-0.4,7.6-2.4,11-4.5s6.8-4.3,10.6-5.5c3.8-1.1,8.3-0.9,11.4,1.5c2.7,2.2,4,5.7,6.6,8c3.8,3.3,9.5,3.1,14.5,2.8
			c0.2,0,0.4,0,0.6-0.1c0.8-0.4,1.6-0.9,2.3-1.4c5.2-3.3,9.9-8,11.6-14.1C408.6,135.9,406.3,128.2,400.9,125.6z"/>
		<path class="st8" d="M338.1,136.7c-1.5,0.6-3.2,1.4-3.5,3c-0.2,1.2,0.5,2.4,1.4,3c1,0.7,2.2,1,3.3,1.2c10.1,1.8,20.3-1.1,30.1-4
			c2-0.6,4.4-1.7,4.4-3.7C362.4,132.3,349.5,132.5,338.1,136.7z"/>
	</g>
	<path class="st8" d="M353.2,226.8c-7.5,0-13.6,6.1-13.6,13.6h27.3C366.9,232.9,360.8,226.8,353.2,226.8z"/>
</g>
<g>
	<path class="st6" d="M519.1,118.3c-15.6-6-32.7-8.4-49.6-8.7c-17-0.3-33.9,1.3-50.7,3.2c-6.2,0.7-12.4,1.4-18.1,3.6
		c-10.4,4-22.8,19.5-7.5,26.2c4.3,1.9,9,2.2,13.6,3.1c6,1.2,11.4,3.6,16.8,6.5c4.9,2.7,9.6,2.1,15.2,2.4c26,1.5,52.2,2.9,78,0.1
		c8-0.9,17.1-2.8,21.1-9.1c3.3-5.3,1.7-12.2-2.3-17C531.4,123.8,525.3,120.7,519.1,118.3z"/>
	<path class="st6" d="M513.6,71.9c-11.1-4.3-23.3-3.6-35-1.9c-12.4,1.7-24.6,4.3-36.9,6.9c-4.9,1-10.1,2.2-13.9,5.8
		c2.1,4.3,6,7.4,10.1,9.3c4.1,1.9,8.5,2.7,12.9,3.5c7,1.3,14,2.6,21,3.9c8.7,1.6,17.3,3.2,26,4.2c6.4,0.7,13.2,1.1,19.1-1.9
		c5.9-3,10.5-10.2,9-17.3C524.6,78,519.1,74,513.6,71.9z"/>
	<path class="st6" d="M498.2,16.2c-2.6-0.3-5.3,0.1-7.9,0.7c-17.2,3.5-33.8,10.4-48.4,20.2c-2.9,2-6.1,5-5.2,8.3
		c3,1.9,6.9,1.4,10.4,0.8c8.2-1.4,16.4-2.9,24.6-4.3c6.5-1.1,13-2.3,19.4-3.9c4.4-1.1,8.9-2.6,12-5.8c3.2-3.2,4.5-8.7,1.8-12.3
		C503.4,17.7,500.8,16.5,498.2,16.2z"/>
	<path class="st7" d="M516.9,127.3c-11.2,6.9-22.5,13.6-34,19.9c5-6.6,9.6-13.6,13.8-20.8c1-1.7-1.6-3.2-2.6-1.5
		c-7.1,12.4-15.5,23.9-25.1,34.4v-8.8c5.3-6.8,10.2-13.8,14.8-21.1c1-1.6-1.5-3.1-2.6-1.5c-3.8,6.1-7.9,11.9-12.2,17.7v-19.2
		c0-2.9-4.5-2.9-4.5,0v25.8c-4.4-1.7-7.9-5.4-11.3-8.7c-0.2-0.4-0.5-0.7-0.9-0.9c-4.9-4.4-9.6-8.9-14.1-13.7
		c-1.3-1.4-3.4,0.7-2.1,2.1c3.6,3.8,7.3,7.5,11.2,11c-12.8-1.9-25-8.2-35.8-15c-1.6-1-3.1,1.6-1.5,2.6c12.3,7.7,26.3,14.8,41,15.8
		c0.3,0.3,0.7,0.6,1,0.9c3.9,3.5,7.5,7.4,12.6,8.9v0.8c-24.6-3.5-47.7-13-67.8-27.6c-1.6-1.1-3,1.5-1.5,2.6
		c20.6,15,44.2,24.5,69.3,28.1v88.4c0,2.9,4.5,2.9,4.5,0v-83.8c3.2-3.4,6.3-7,9.3-10.6c0.1,0,0.3,0,0.4-0.1
		c13.5-7.3,26.7-15,39.7-23.1C520,128.9,518.5,126.3,516.9,127.3z"/>
	<path class="st7" d="M504.3,74.1c-8.6,11.1-18.6,20.8-29.7,29.2c8.3-11.3,13.9-25.4,19.8-37.5c0.8-1.7-1.6-3.2-2.6-1.5
		c-0.4,0.7-0.8,1.5-1.2,2.2c-0.2,0.3-0.2,0.6-0.2,0.8c-6.1,13.1-12.4,28.2-22,39.1V66.2c0.1-0.1,0.2-0.3,0.3-0.5
		c3.4-12,6.2-24.1,8.3-36.4c1-0.5,0.8-1.9-0.1-2.5c-0.7-0.8-2.4-0.8-2.6,0.5c-1.6,9.4-3.5,18.7-5.9,27.9v-29c0-1.9-3-1.9-3,0v45.6
		C460,59.4,454.8,47,449.9,34.4c-0.7-1.8-3.6-1-2.9,0.8c5.8,14.6,11.8,29.1,18,43.4c0.1,0.2,0.2,0.3,0.3,0.5v30.3
		c-0.2,0.2-0.4,0.5-0.7,0.7c-1.4,1.3,0.7,3.4,2.1,2.1c0.1-0.1,0.1-0.1,0.2-0.2c0.2,0,0.4-0.1,0.7-0.2c14.9-9.7,27.9-21.6,38.8-35.6
		C507.6,74.7,505.5,72.6,504.3,74.1z"/>
	<path class="st6" d="M537.4,111.6c-4-4-10.4-6-15.6-7.6c-0.8-0.2-1.6-0.5-2.4-0.7l0,0c-18.9-5.2-39-6.3-58.4-6.3
		c-11.9,0-23.9,0.5-35.7,2.1c-4.2,0.6-8.1,2.3-12.4,1.9c-6.6-0.6-12.4-2.3-19.1-0.7c-6.5,1.5-12.6,6.2-14.5,12.3
		c-0.4,1.3-0.6,2.7-0.6,4.2c0.1,5.3,3.4,10.1,7.7,13.1c4.3,3,9.5,4.5,14.7,5.5c7,1.3,14.2,1.7,21.3,1.2c6.6-0.4,13.2-2.7,19.8-2.7
		c4.4,0,8.7,1.5,13,1.8c7.1,0.5,14.4,0.1,21.6-0.3c8.6-0.4,17.2-1.2,25.8-2.5c8.3-1.2,17-0.9,25.4-1.1c1.7,0,3.4-0.1,5-0.6
		c5.3-1.7,8-9.1,6.8-14.8C539.4,114.5,538.6,112.8,537.4,111.6z"/>
	<path class="st6" d="M519.6,57c-0.4-0.3-0.9-0.5-1.3-0.7c-7.8-3.9-17-4.1-25.8-3.2c-9.2,1-18.4,3.1-27.6,2.8
		c-6.5-0.3-12.9-1.7-19.3-2.4c-6.5-0.6-13.3-0.4-19,2.7c-1.7,0.9-3.3,2.1-4.6,3.5c-3.2,3.3-5.2,7.8-4.6,12.3
		c0.8,6.1,6.1,10.8,11.8,13.3c9.9,4.3,21.1,3.4,31.9,2.5c14.7-1.3,29.3-2.6,43.9-3.9c5.1-0.4,10.3-0.9,14.8-3.2
		c4.5-2.3,8.3-6.8,8.2-11.9C527.8,63.8,524,59.5,519.6,57z"/>
	<path class="st6" d="M501.9,5.8c-1.8-1.2-3.7-2.1-5.7-3c-6.1-2.5-13-3.2-19.6-2.6C467.8,1,459.4,4,451.4,7.8c-5,2.3-9.8,5-14,8.6
		c-4.1,3.6-7.5,8.2-9,13.5c-0.5,1.8-0.7,3.7-0.6,5.5c0.2,3.7,1.6,7.3,4.5,9.5c3.6,2.7,8.7,2.7,12.9,1.2c4.2-1.6,7.8-4.4,11.3-7.2
		s7.2-5.5,11.6-6.8c4.5-1.3,9.2-1,13.9-1.4c7.4-0.7,14.7-3.5,20.6-8c2.6-2,5.2-4.7,5.3-8C508.1,10.9,505.1,7.8,501.9,5.8z"/>
	<path class="st8" d="M476.6,0.2C467.8,1,459.4,4,451.4,7.8c-5,2.3-9.8,5-14,8.6c-4.1,3.6-7.5,8.2-9,13.5c-0.5,1.8-0.7,3.7-0.6,5.5
		c0.4,0.2,0.9,0.4,1.3,0.6c4.6,1.6,9.6-0.9,13.3-4.1c3.7-3.2,6.7-7.2,11-9.5c4.7-2.5,10.3-2.7,15.6-2.4c5.3,0.3,10.7,0.9,15.9-0.3
		c5.2-1.1,10.3-4.6,11.7-9.7c0.7-2.4,0.4-4.9-0.5-7.2C490.1,0.3,483.2-0.4,476.6,0.2z"/>
	<path class="st8" d="M492.6,53.1c-9.2,1-18.4,3.1-27.6,2.8c-6.5-0.3-12.9-1.7-19.3-2.4c-6.5-0.6-13.3-0.4-19,2.7
		c-1.7,0.9-3.3,2.1-4.6,3.5c-0.3,3.1,0.4,6.5,2.3,9.1c3.9,5.3,11.1,7.3,17.7,6.8c6.6-0.6,12.8-3.3,18.9-5.8c6.1-2.5,12.4-5,19.1-5
		c7.2,0,14,2.9,21.1,3.4s15.6-2.7,17.1-9.7c0.1-0.7,0.2-1.4,0.1-2.1C510.5,52.3,501.3,52.2,492.6,53.1z"/>
	<path class="st8" d="M425.3,99.1c-4.2,0.6-8.1,2.3-12.4,1.9c-6.6-0.6-12.4-2.3-19.1-0.7c-6.5,1.5-12.6,6.2-14.5,12.3
		c0.5,0.8,1.1,1.5,1.7,2.1c6.5,6.7,16.8,8.3,26,6.8c9.2-1.5,17.7-5.6,26.4-9c24.4-9.3,51.1-12.4,76.9-8.9c2.7,0.4,5.5,0.8,8.1,0
		c0.3-0.1,0.6-0.2,0.9-0.3C500.5,98.1,480.4,97,461,97C449.1,97,437.1,97.5,425.3,99.1z"/>
	<path class="st6" d="M485,223.8c-14.3,0-25.9,11.6-25.9,25.9h51.8C510.9,235.4,499.3,223.8,485,223.8z"/>
	<path class="st8" d="M450.5,230.1c-10.8,0-19.6,8.8-19.6,19.6H470C470.1,238.9,461.3,230.1,450.5,230.1z"/>
</g>
</svg>
