<?xml version="1.0" encoding="utf-8"?>
<!-- Generator: Adobe Illustrator 23.0.3, SVG Export Plug-In . SVG Version: 6.00 Build 0)  -->
<svg version="1.1" id="Calque_1" xmlns="http://www.w3.org/2000/svg" xmlns:xlink="http://www.w3.org/1999/xlink" x="0px" y="0px"
	 viewBox="0 0 226.1 249.7" style="enable-background:new 0 0 226.1 249.7;" xml:space="preserve">
<style type="text/css">
	.st0{fill:#9DAD1F;}
	.st1{fill:#3F4F56;}
	.st2{fill:#BCCF00;}
</style>
<g>
	<path class="st0" d="M45.6,222.3c-10,0-18.1,8.1-18.1,18.1h36.1C63.7,230.4,55.6,222.3,45.6,222.3z"/>
	<g>
		<path class="st0" d="M32.3,138.2c-2.3-1.6-4.7-3-7.2-4.1c-2.6-1.2-5.3-2.1-8.2-2.2c-2.8,0-5.8,0.9-7.6,3.1
			c-1.9,2.1-2.4,5.5-0.8,7.9c1,1.5,2.7,2.5,4.5,2.9c1.8,0.5,3.6,0.5,5.4,0.5c3.1,0,6.2,0,9.3,0.1c1.6,0,3.3,0,4.8-0.6
			c1.5-0.7,2.8-2.2,2.6-3.8C34.9,140.2,33.6,139.1,32.3,138.2z"/>
		<path class="st0" d="M77.4,119.6c-1.4-2.3-3.9-3.7-6.3-4.8c-6.7-3.1-13.9-5-21.3-5.4c-2.6-0.2-5.5-0.2-7.6-1.7
			c-1.2-0.9-2.1-2.1-3.2-3.2c-3-2.9-17.9-5.4-29,0.2c-3,1.5-6.3,3.5-7,6.8c-0.6,2.7,0.6,5.4,2.4,7.5c1.3,1.6,2.9,2.9,4.6,3.9
			c1.5,0.9,3.2,1.7,4.9,2.3c3.7,1.2,7.5,1.7,11.4,2c6.9,0.6,13.8,0.7,20.7,0.7c8.1,0.1,16.1,0.2,24.2,0.3c2,0,4.2,0,5.7-1.3
			c2-1.6,2.1-4.9,0.8-7.1C77.5,119.8,77.5,119.7,77.4,119.6z"/>
		<path class="st0" d="M86.9,125.6c-4.3-2-9.3-0.5-13.7,1.3c-7.4,3-14.4,6.7-21.8,9.6c-7.4,2.9-15.2,5-23,4.6
			c-4.3-0.2-8.6-1.2-12.9-1.3c-4.3-0.1-8.9,0.9-12.1,4c-2.7,2.6-4,7-2.9,10.5c0.2,0.7,0.5,1.4,1,2.1c1.4,2,3.6,3.2,5.9,3.7
			c2.3,0.5,4.6,0.4,6.9,0.3c4.7-0.2,9.4-0.5,14.2-0.7c-0.7,0.1-1.3,0.3-1.9,0.7c-1.2,0.7-2,2.5-1.3,3.8c0.8,1.4,2.6,1.4,4.1,1
			c3.6-1,6.8-3.3,10.4-3.9c3.6-0.6,7.2,0.5,10.7,1.2c9.6,1.7,19.8,0,28.5-4.8c0.8-0.4,1.6-0.9,2.3-1.4c5.2-3.3,9.9-8,11.6-14.1
			C94.6,135.9,92.3,128.2,86.9,125.6z"/>
		<path class="st1" d="M69.3,150.5c-0.2,0.2-0.4,0.3-0.5,0.5c-0.1,0.1-0.2,0.3-0.3,0.4c-2.5,2.8-5.2,5.5-8.1,7.9
			c-2.8,2.4-6.5,5.5-10.2,6.9c1.6-3.2,3.1-6.4,4.4-9.8c1.2-2.9,2.1-5.9,3-9c0.6-2.2,0.7-5.3,1.5-7.6c0.6-0.4,0.7-1.1,0.2-1.6
			c-0.1-0.1-0.1-0.1-0.2-0.2c-0.4-0.5-1.4-0.4-1.6,0.2c-0.7,1.5-0.6,3.3-1,4.9c-0.7,3.1-1.6,6.1-2.6,9.1c-1.8,5.6-4.3,10.9-7.1,16.1
			V151c1.5-1.9,2.8-3.9,3.8-6.1c0.5,0.1,1-0.1,1.2-0.7c1.2-3.9,2.3-7.8,3.2-11.8c0.5-2.4,2-6.9,1.2-9.3c-0.3-0.8-1.1-1-1.7-0.5
			c0,0-0.1,0.1-0.1,0.1c-0.4,0.4-0.3,1.1,0,1.5c0.4,2.5-1.1,6.8-1.6,9c-0.5,2.2-1.1,4.3-1.7,6.4c-0.3,0.1-0.5,0.3-0.7,0.6
			c-0.9,2.5-2.1,4.9-3.6,7.1v-8c0.1-0.1,0.2-0.2,0.2-0.4c2.1-5.4,3.4-10.9,4.2-16.6c0.2-1.3-1.9-1.3-2.1,0
			c-0.5,3.7-1.3,7.3-2.3,10.8v-12.7c0-1.3-2.1-1.3-2.1,0v16.7c-0.6,0.2-1,0.6-1,1.4v10c-1.6-3.3-3-6.7-4.2-10.1
			c0.1-0.1,0.1-0.3,0.1-0.4c0.3-6.4,0.1-12.8-0.8-19.2c-0.2-1.3-2.3-1.3-2.1,0c0.6,4.7,0.9,9.4,0.9,14.2c-1.5-5.1-2.7-10.4-3.4-15.8
			c-0.2-1.3-2.3-1.3-2.1,0c1.6,12.1,5.2,23.7,10.8,34.6c0.2,0.3,0.4,0.5,0.7,0.5v11.6c-1.2-0.5-2.2-1.2-3.3-1.9
			c-0.1-0.1-0.2-0.2-0.3-0.2c-2.8-2.1-5.2-4.8-7.1-7.9c0.3-0.1,0.5-0.4,0.5-0.9c-0.4-12.4-2.3-24.6-5.4-36.6c-0.3-1.3-2.3-0.7-2,0.6
			c1.3,5,2.4,9.9,3.2,15c-4.4-4.2-7.9-9.1-10.6-14.6c-0.6-1.2-2.4-0.1-1.8,1c3.2,6.5,7.5,12.1,12.9,16.9c0.8,5.2,1.3,10.4,1.5,15.7
			c-1.3-2.4-2.3-4.9-3.2-7.4c-0.4-1.3-2.5-0.7-2,0.6c2.4,6.7,5.9,13.5,11.3,18.1c-9,1.8-18.6-5.9-23.6-12.6c-0.8-1.1-2.6,0-1.8,1
			c5.8,7.8,17.2,16.6,27.5,13.1c1.3,0.9,2.6,1.6,4.1,2.2v69c0,2,3.1,2,3.1,0v-63c0.1-0.1,0.3-0.2,0.4-0.4c0.6-1.1,1.3-2.2,1.8-3.3
			c0.1,0,0.3,0,0.4,0c3.8-0.8,7.4-3.8,10.4-6.1c4.1-3.2,7.8-6.7,11.1-10.6C71.6,151,70.3,149.6,69.3,150.5z"/>
		<path class="st1" d="M40.4,93.9c0.1,3.6,0.1,7.2,0.2,10.8c-2.1-3.4-4.1-7-6-10.6c-0.6-1.2-2.4-0.1-1.8,1c2.2,4.2,4.5,8.2,7,12.2
			c0.2,0.3,0.5,0.5,0.8,0.5c0,2.4,0.1,4.7,0.1,7.1c0,1.3,2.1,1.3,2.1,0c-0.1-7-0.2-14-0.3-21C42.4,92.6,40.3,92.5,40.4,93.9z"/>
		<path class="st1" d="M58.9,99.9c-2.7,3.5-6,6.4-9.7,8.6c1.5-2.9,3-5.8,4.3-8.7c0.1-0.1,0.2-0.3,0.3-0.5c0.1-0.3,0.2-0.7,0.3-1
			c0.4-1.1-1.4-1.9-1.9-0.8c-1.5,3.4-3.2,6.8-5,10.1c0.3-3.6,0.7-7.1,1.2-10.6c0.2-1.3-1.8-1.9-2-0.6c-1.1,6.9-1.7,13.8-1.7,20.8
			c0,1.1,1.9,1.5,2,0.3c0.1-0.4,0.1-0.9,0.2-1.3c0-0.2,0-0.5-0.1-0.6c0-1.1,0.1-2.2,0.1-3.2c0.1-0.2,0.2-0.4,0.3-0.6
			c0.1,0,0.2,0,0.3-0.1c5-2.4,9.3-5.9,12.7-10.3C61.2,100.4,59.7,98.9,58.9,99.9z"/>
		<path class="st0" d="M64.7,82.7c-4.1-1.2-8.4-1.1-12.6-1c2.1-2.4,0.9-6.6-1.8-8.4c-2.6-1.9-6.1-2-9.3-1.7c-3.8,0.4-7.5,1.2-11,2.5
			c-0.3,0.1-0.7,0.2-1,0.4c-1.2,0.5-2.3,1-3.2,1.9c-0.9,0.9-1.5,2.2-1.2,3.4c0.4,1.7,2.4,2.7,4.1,3c1.8,0.4,3.7,0.5,5.1,1.7
			c-1.6,0.5-3.3,0.9-4.7,1.9c-1.4,1-2.5,2.5-2.6,4.2c0,2.5,2.2,4.4,4.5,5.5c4.4,2.2,9.5,2.8,14.4,3.3c6,0.7,12,1.4,18,2
			c1.2,0.1,2.4,0.3,3.6,0.2c1.1,0,2.1-0.2,3.1-0.6c3.9-1.6,5.5-6.8,4-10.7C72.6,86.5,68.8,83.8,64.7,82.7z"/>
		<path class="st2" d="M64.7,82.7c-4.1-1.2-8.4-1.1-12.6-1c2.1-2.4,0.9-6.6-1.8-8.4c-2.6-1.9-6.1-2-9.3-1.7c-3.8,0.4-7.5,1.2-11,2.5
			c-0.4,0.9-0.5,1.8-0.3,2.7c0.7,2.3,3.4,3.3,5.8,3.7c4.2,0.7,8.5,0.8,12.8,0.2c-2.4,2.8-4.8,5.5-7.3,8.3c3.8-0.9,7.7-1.8,11.6-2
			c3.1-0.2,6.2,0.1,9.1,1.3c2.8,1.2,5.3,3.5,6.3,6.4c0.8,2.3,0.4,5-1,7c1.1,0,2.1-0.2,3.1-0.6c3.9-1.6,5.5-6.8,4-10.7
			C72.6,86.5,68.8,83.8,64.7,82.7z"/>
		<path class="st2" d="M71.1,114.8c-6.7-3.1-13.9-5-21.3-5.4c-2.6-0.2-5.5-0.2-7.6-1.7c-1.2-0.9-2.1-2.1-3.2-3.2
			c-3-2.9-17.9-5.4-29,0.2c-3,1.5-6.3,3.5-7,6.8c-0.6,2.7,0.6,5.4,2.4,7.5c1.3,1.6,2.9,2.9,4.6,3.9c6.6-4.4,15.3-5.7,22.8-3.3
			c2.3,0.7,4.4,1.8,6.7,2.5c2.4,0.7,4.9,0.9,7.4,1.2c2.5,0.2,5,0.5,7.5,0.7c1.4,0.1,2.9,0.3,4.3-0.1c2.2-0.5,4-2.1,6-3.1
			c2.5-1.3,5.5-1.8,8.3-1.3c1.5,0.3,3.3,0.7,4.7,0.3c-0.1-0.1-0.1-0.2-0.1-0.2C76,117.3,73.5,115.9,71.1,114.8z"/>
		<path class="st2" d="M86.9,125.6c-4.3-2-9.3-0.5-13.7,1.3c-7.4,3-14.4,6.7-21.8,9.6c-7.4,2.9-15.2,5-23,4.6
			c-4.3-0.2-8.6-1.2-12.9-1.3c-4.3-0.1-8.9,0.9-12.1,4c-2.7,2.6-4,7-2.9,10.5c0.9-0.5,2-0.8,3-1c3.4-0.6,7,0.1,10.4,0.8
			c3.4,0.8,6.9,1.6,10.4,1.2c4-0.4,7.6-2.4,11-4.5c3.4-2.1,6.8-4.3,10.6-5.5c3.8-1.1,8.3-0.9,11.4,1.5c2.7,2.2,4,5.7,6.6,8
			c3.8,3.3,9.5,3.1,14.5,2.8c0.2,0,0.4,0,0.6-0.1c0.8-0.4,1.6-0.9,2.3-1.4c5.2-3.3,9.9-8,11.6-14.1
			C94.6,135.9,92.3,128.2,86.9,125.6z"/>
		<path class="st2" d="M24.1,136.7c-1.5,0.6-3.2,1.4-3.5,3c-0.2,1.2,0.5,2.4,1.4,3c1,0.7,2.2,1,3.3,1.2c10.1,1.8,20.3-1.1,30.1-4
			c2-0.6,4.4-1.7,4.4-3.7C48.4,132.3,35.5,132.5,24.1,136.7z"/>
	</g>
	<path class="st2" d="M39.2,226.8c-7.5,0-13.6,6.1-13.6,13.6h27.3C52.9,232.9,46.8,226.8,39.2,226.8z"/>
</g>
<g>
	<path class="st0" d="M205.1,118.3c-15.6-6-32.7-8.4-49.6-8.7c-17-0.3-33.9,1.3-50.7,3.2c-6.2,0.7-12.4,1.4-18.1,3.6
		c-10.4,4-22.8,19.5-7.5,26.2c4.3,1.9,9,2.2,13.6,3.1c6,1.2,11.4,3.6,16.8,6.5c4.9,2.7,9.6,2.1,15.2,2.4c26,1.5,52.2,2.9,78,0.1
		c8-0.9,17.1-2.8,21.1-9.1c3.3-5.3,1.7-12.2-2.3-17C217.4,123.8,211.3,120.7,205.1,118.3z"/>
	<path class="st0" d="M199.6,71.9c-11.1-4.3-23.3-3.6-35-1.9c-12.4,1.7-24.6,4.3-36.9,6.9c-4.9,1-10.1,2.2-13.9,5.8
		c2.1,4.3,6,7.4,10.1,9.3c4.1,1.9,8.5,2.7,12.9,3.5c7,1.3,14,2.6,21,3.9c8.7,1.6,17.3,3.2,26,4.2c6.4,0.7,13.2,1.1,19.1-1.9
		c5.9-3,10.5-10.2,9-17.3C210.6,78,205.1,74,199.6,71.9z"/>
	<path class="st0" d="M184.2,16.2c-2.6-0.3-5.3,0.1-7.9,0.7c-17.2,3.5-33.8,10.4-48.4,20.2c-2.9,2-6.1,5-5.2,8.3
		c3,1.9,6.9,1.4,10.4,0.8c8.2-1.4,16.4-2.9,24.6-4.3c6.5-1.1,13-2.3,19.4-3.9c4.4-1.1,8.9-2.6,12-5.8c3.2-3.2,4.5-8.7,1.8-12.3
		C189.4,17.7,186.8,16.5,184.2,16.2z"/>
	<path class="st1" d="M202.9,127.3c-11.2,6.9-22.5,13.6-34,19.9c5-6.6,9.6-13.6,13.8-20.8c1-1.7-1.6-3.2-2.6-1.5
		c-7.1,12.4-15.5,23.9-25.1,34.4v-8.8c5.3-6.8,10.2-13.8,14.8-21.1c1-1.6-1.5-3.1-2.6-1.5c-3.8,6.1-7.9,11.9-12.2,17.7v-19.2
		c0-2.9-4.5-2.9-4.5,0v25.8c-4.4-1.7-7.9-5.4-11.3-8.7c-0.2-0.4-0.5-0.7-0.9-0.9c-4.9-4.4-9.6-8.9-14.1-13.7
		c-1.3-1.4-3.4,0.7-2.1,2.1c3.6,3.8,7.3,7.5,11.2,11c-12.8-1.9-25-8.2-35.8-15c-1.6-1-3.1,1.6-1.5,2.6c12.3,7.7,26.3,14.8,41,15.8
		c0.3,0.3,0.7,0.6,1,0.9c3.9,3.5,7.5,7.4,12.6,8.9v0.8c-24.6-3.5-47.7-13-67.8-27.6c-1.6-1.1-3,1.5-1.5,2.6
		c20.6,15,44.2,24.5,69.3,28.1v88.4c0,2.9,4.5,2.9,4.5,0v-83.8c3.2-3.4,6.3-7,9.3-10.6c0.1,0,0.3,0,0.4-0.1
		c13.5-7.3,26.7-15,39.7-23.1C206,128.9,204.5,126.3,202.9,127.3z"/>
	<path class="st1" d="M190.3,74.1c-8.6,11.1-18.6,20.8-29.7,29.2c8.3-11.3,13.9-25.4,19.8-37.5c0.8-1.7-1.6-3.2-2.6-1.5
		c-0.4,0.7-0.8,1.5-1.2,2.2c-0.2,0.3-0.2,0.6-0.2,0.8c-6.1,13.1-12.4,28.2-22,39.1V66.2c0.1-0.1,0.2-0.3,0.3-0.5
		c3.4-12,6.2-24.1,8.3-36.4c1-0.5,0.8-1.9-0.1-2.5c-0.7-0.8-2.4-0.8-2.6,0.5c-1.6,9.4-3.5,18.7-5.9,27.9v-29c0-1.9-3-1.9-3,0v45.6
		C146,59.4,140.8,47,135.9,34.4c-0.7-1.8-3.6-1-2.9,0.8c5.8,14.6,11.8,29.1,18,43.4c0.1,0.2,0.2,0.3,0.3,0.5v30.3
		c-0.2,0.2-0.4,0.5-0.7,0.7c-1.4,1.3,0.7,3.4,2.1,2.1c0.1-0.1,0.1-0.1,0.2-0.2c0.2,0,0.4-0.1,0.7-0.2c14.9-9.7,27.9-21.6,38.8-35.6
		C193.6,74.7,191.5,72.6,190.3,74.1z"/>
	<path class="st0" d="M223.4,111.6c-4-4-10.4-6-15.6-7.6c-0.8-0.2-1.6-0.5-2.4-0.7c0,0,0,0,0,0C186.5,98.1,166.4,97,147,97
		c-11.9,0-23.9,0.5-35.7,2.1c-4.2,0.6-8.1,2.3-12.4,1.9c-6.6-0.6-12.4-2.3-19.1-0.7c-6.5,1.5-12.6,6.2-14.5,12.3
		c-0.4,1.3-0.6,2.7-0.6,4.2c0.1,5.3,3.4,10.1,7.7,13.1c4.3,3,9.5,4.5,14.7,5.5c7,1.3,14.2,1.7,21.3,1.2c6.6-0.4,13.2-2.7,19.8-2.7
		c4.4,0,8.7,1.5,13,1.8c7.1,0.5,14.4,0.1,21.6-0.3c8.6-0.4,17.2-1.2,25.8-2.5c8.3-1.2,17-0.9,25.4-1.1c1.7,0,3.4-0.1,5-0.6
		c5.3-1.7,8-9.1,6.8-14.8C225.4,114.5,224.6,112.8,223.4,111.6z"/>
	<path class="st0" d="M205.6,57c-0.4-0.3-0.9-0.5-1.3-0.7c-7.8-3.9-17-4.1-25.8-3.2c-9.2,1-18.4,3.1-27.6,2.8
		c-6.5-0.3-12.9-1.7-19.3-2.4c-6.5-0.6-13.3-0.4-19,2.7c-1.7,0.9-3.3,2.1-4.6,3.5c-3.2,3.3-5.2,7.8-4.6,12.3
		c0.8,6.1,6.1,10.8,11.8,13.3c9.9,4.3,21.1,3.4,31.9,2.5c14.7-1.3,29.3-2.6,43.9-3.9c5.1-0.4,10.3-0.9,14.8-3.2
		c4.5-2.3,8.3-6.8,8.2-11.9C213.8,63.8,210,59.5,205.6,57z"/>
	<path class="st0" d="M187.9,5.8c-1.8-1.2-3.7-2.1-5.7-3c-6.1-2.5-13-3.2-19.6-2.6C153.8,1,145.4,4,137.4,7.8c-5,2.3-9.8,5-14,8.6
		c-4.1,3.6-7.5,8.2-9,13.5c-0.5,1.8-0.7,3.7-0.6,5.5c0.2,3.7,1.6,7.3,4.5,9.5c3.6,2.7,8.7,2.7,12.9,1.2c4.2-1.6,7.8-4.4,11.3-7.2
		c3.5-2.8,7.2-5.5,11.6-6.8c4.5-1.3,9.2-1,13.9-1.4c7.4-0.7,14.7-3.5,20.6-8c2.6-2,5.2-4.7,5.3-8C194.1,10.9,191.1,7.8,187.9,5.8z"
		/>
	<path class="st2" d="M162.6,0.2C153.8,1,145.4,4,137.4,7.8c-5,2.3-9.8,5-14,8.6c-4.1,3.6-7.5,8.2-9,13.5c-0.5,1.8-0.7,3.7-0.6,5.5
		c0.4,0.2,0.9,0.4,1.3,0.6c4.6,1.6,9.6-0.9,13.3-4.1c3.7-3.2,6.7-7.2,11-9.5c4.7-2.5,10.3-2.7,15.6-2.4c5.3,0.3,10.7,0.9,15.9-0.3
		c5.2-1.1,10.3-4.6,11.7-9.7c0.7-2.4,0.4-4.9-0.5-7.2C176.1,0.3,169.2-0.4,162.6,0.2z"/>
	<path class="st2" d="M178.6,53.1c-9.2,1-18.4,3.1-27.6,2.8c-6.5-0.3-12.9-1.7-19.3-2.4c-6.5-0.6-13.3-0.4-19,2.7
		c-1.7,0.9-3.3,2.1-4.6,3.5c-0.3,3.1,0.4,6.5,2.3,9.1c3.9,5.3,11.1,7.3,17.7,6.8c6.6-0.6,12.8-3.3,18.9-5.8c6.1-2.5,12.4-5,19.1-5
		c7.2,0,14,2.9,21.1,3.4c7.1,0.5,15.6-2.7,17.1-9.7c0.1-0.7,0.2-1.4,0.1-2.1C196.5,52.3,187.3,52.2,178.6,53.1z"/>
	<path class="st2" d="M111.3,99.1c-4.2,0.6-8.1,2.3-12.4,1.9c-6.6-0.6-12.4-2.3-19.1-0.7c-6.5,1.5-12.6,6.2-14.5,12.3
		c0.5,0.8,1.1,1.5,1.7,2.1c6.5,6.7,16.8,8.3,26,6.8c9.2-1.5,17.7-5.6,26.4-9c24.4-9.3,51.1-12.4,76.9-8.9c2.7,0.4,5.5,0.8,8.1,0
		c0.3-0.1,0.6-0.2,0.9-0.3C186.5,98.1,166.4,97,147,97C135.1,97,123.1,97.5,111.3,99.1z"/>
	<path class="st0" d="M171,223.8c-14.3,0-25.9,11.6-25.9,25.9h51.8C196.9,235.4,185.3,223.8,171,223.8z"/>
	<path class="st2" d="M136.5,230.1c-10.8,0-19.6,8.8-19.6,19.6h39.1C156.1,238.9,147.3,230.1,136.5,230.1z"/>
</g>
</svg>
