<?xml version="1.0" encoding="utf-8"?>
<!-- Generator: Adobe Illustrator 23.0.3, SVG Export Plug-In . SVG Version: 6.00 Build 0)  -->
<svg version="1.1" id="Calque_1" xmlns="http://www.w3.org/2000/svg" xmlns:xlink="http://www.w3.org/1999/xlink" x="0px" y="0px"
	 viewBox="0 0 416.1 95.4" style="enable-background:new 0 0 416.1 95.4;" xml:space="preserve">
<style type="text/css">
	.st0{fill:#F19DC3;}
	.st1{fill:#458688;}
	.st2{fill:#B2286B;}
	.st3{fill:#3F4F56;}
	.st4{fill:#E8308A;}
</style>
<g>
	<path class="st0" d="M333.9,5.4c-22-8.3-47.9-7.5-67.5,5.3c-13.2,8.6-22.5,21.8-33,33.6c-10.5,11.8-23.4,22.8-39.1,24.6
		c-17.9,2-35.5-8.6-53.4-6.7c-18.3,1.8-32.6,15.9-46.5,28.1c-2,1.7-4.1,3.5-6.2,5.1h328c-8.3-16.3-17-32.3-28-46.8
		C374,29.9,355.8,13.6,333.9,5.4z"/>
	<path class="st1" d="M176.7,64.3c-24,0-39.9,31.1-39.9,31.1l79.9,0C216.6,95.3,206.3,64.2,176.7,64.3z"/>
</g>
<g>
	<g>
		<g>
			<path class="st2" d="M158.2,14.8c-3.3-0.8-6.9-0.7-10.1-2.1c-3.1-1.4-5.3-4.1-8.4-5.4c-5-2.2-10.8-0.4-15.6,2.1
				c-4.8,2.5-9.3,5.7-14.7,6.7c-11.7,2.2-22.8-7-34.7-6.3c-7,0.4-13.3,4.2-18.4,8.8c-5.5,5-10,11.3-11.6,18.4
				c-1.5,7.1,0.3,15.1,5.8,20.1c7.1,6.4,18,6.6,27.7,6.4c24.7-0.5,49.4-1,74-1.6c3.7-0.1,7.6-0.2,10.9-1.9c4-2,6.5-6.1,8.2-10.2
				c2.7-6.6,3.7-13.9,1.6-20.7C170.9,22.5,165.3,16.5,158.2,14.8z"/>
			<path class="st3" d="M135.1,46.8v18.9c-2.8-3.7-5.2-7.6-7-11.9c-0.2-0.5-1-0.6-1.2,0c-0.1,0.2-0.1,0.4-0.2,0.6
				c-0.1,0.5,0.3,0.7,0.7,0.7c1.3,2.9,2.9,5.6,4.6,8.2c-2.2-0.7-4.4-2.5-6-3.9c-0.2-0.2-0.5-0.4-0.7-0.6V46.8c0-1.5-2.5-1.5-2.5,0
				v9.4c-0.4-0.5-0.7-1-0.9-1.6c-0.3-0.7-1.4-0.1-1.1,0.6c0.5,1,1.2,2,2,2.9v1.1c-0.1,0.1-0.1,0.1-0.1,0.3c-0.4,2.2-4.2,4-6,5.1
				c-1.3,0.8-2.6,1.6-3.9,2.3c1.6-2.5,3-5.1,4.2-7.8c0.2-0.5-0.3-1.1-0.8-0.8c-0.5,0.3-0.6,0.4-0.6,1c0,0,0,0,0,0
				c-1.4,3.1-3.2,6-5.1,8.9c0,0,0,0,0,0c-0.2,0.1-0.3,0.3-0.3,0.4c-1.4,2-2.9,4-4.5,5.8v-5.3c2.3-5.1,4.2-10.3,5.7-15.7
				c0.2-0.7-1-1-1.2-0.3c-1.3,4.4-2.8,8.7-4.6,13V46.8c0-1.5-2.5-1.5-2.5,0V71c-5-3.4-8.6-8.1-10.6-13.7c-0.3-0.7-1.4-0.4-1.2,0.3
				c1.2,3.3,3,6.4,5.2,9c-2.8-0.6-5.1-3.2-6.9-5c-0.5-0.5-1.9-1.6-3.1-2.8v-12c0-1.5-2.5-1.5-2.5,0v17c-2.1-4.3-3.6-8.8-4.4-13.4
				c0.4-0.9,0.7-1.8,1.1-2.7c0.3-0.7-0.9-1-1.2-0.3L79.4,48c-0.1-0.6-0.2-1.2-0.2-1.8c-0.1-0.7-1.3-0.8-1.2,0c0.1,1.4,0.3,2.7,0.5,4
				c-0.7,1.7-1.3,3.3-2,5c-0.7-1.3-1.2-2.6-1.5-4v-4.4c0-1.5-2.5-1.5-2.5,0v24.7c-4.8-7.1-8.8-14.6-11.9-22.5
				c-0.3-0.7-1.5-0.4-1.2,0.3c2.1,5.3,4.5,10.5,7.4,15.4c-5.6-5.7-10.5-12-14.6-18.9c-0.4-0.7-1.5-0.1-1.1,0.6
				c4.9,8.2,10.9,15.7,18,22.3c0,0,0.1,0,0.1,0.1c1,1.6,2.1,3.2,3.2,4.8v20.6c0,1.5,2.5,1.5,2.5,0V61.9c0.1-0.1,0.2-0.2,0.3-0.3
				c0.5-1.2,1-2.5,1.5-3.7c2.1,3.2,4.9,6,7.4,8.5v27.8c0,1.5,2.5,1.5,2.5,0v-34c0.9,1,1.9,2,2.9,2.9c2.3,2.1,4.8,4.9,8.3,4.8
				c1.6,1.7,3.4,3.2,5.4,4.5v21.7c0,1.5,2.5,1.5,2.5,0v-18c2.1-2.3,4-4.7,5.7-7.2c2.8-1.5,5.5-3,8.1-4.8c1.1-0.7,2.4-1.5,3.4-2.5
				v32.5c0,1.5,2.5,1.5,2.5,0V60.5c0.3,0.3,0.6,0.5,1,0.8c1.9,1.4,4,3.1,6.4,3.5c0.1,0,0.2,0,0.2,0c0.6,0.9,1.3,1.7,1.9,2.6
				c0.1,0.1,0.2,0.2,0.3,0.2v26.7c0,1.5,2.5,1.5,2.5,0V46.8C137.6,45.3,135.1,45.3,135.1,46.8z M75,59v-4.2c0.3,0.6,0.6,1.2,1,1.8
				C75.6,57.4,75.3,58.2,75,59z M77.3,56.6l1.7-4.2c0.8,3.7,2,7.2,3.6,10.6C80.6,61.1,78.7,58.9,77.3,56.6z"/>
			<path class="st2" d="M109.1,32.4c-13.2-0.1-26.4-0.3-39.5,1.1c-4.9,0.5-9.9,1.3-14,3.9c-4.1,2.6-7,7.4-5.8,11.9
				c1.5,5.8,8.6,8.5,14.9,8.4c6.7-0.2,13.1-2.6,19.7-4.1c6.5-1.5,13.9-1.9,19.6,1.5c2.5,1.5,4.5,3.7,7.3,4.6c3,1,6.2,0.2,9.3-0.5
				c11.2-2.7,22.4-5.3,33.6-8c-8.7-7.4-17.8-15-29.1-17.5C119.7,32.5,114.4,32.4,109.1,32.4z"/>
			<path class="st2" d="M94.3,52.9c-3.4,0-6.1,1.6-6.1,3.6c0,2,2.7,3.6,6.1,3.6c3.4,0,6.1-1.6,6.1-3.6
				C100.5,54.5,97.7,52.9,94.3,52.9z"/>
		</g>
		<path class="st2" d="M154.8,80.8c-6.4-4.1-12.3-6.4-19.8-4.4c-7.6,2-10.3,8.2-16.4,8.7c-6.1,0.5-11-2.4-16.3-0.3
			c-5.3,2.1-7.4,5.4-11.5,5.6c-4.1,0.2-3.5-1.2-8.7-0.4c-5.3,0.8-19.5,5.4-19.5,5.4h103.4C165.9,95.3,161.2,84.9,154.8,80.8z"/>
	</g>
	<g>
		<path class="st4" d="M61.6,34.7c-9.5-0.8-19.2-0.1-28.5,2.1c-3.2,0.7-6.7,1.9-8.1,4.8c-1.3,2.6-0.3,5.7,1.4,8.1
			c2.2,3.2,5.6,5.6,9.3,6.8c3.9,1.2,8.1,1.2,12.2,1.1c2.4,0,4.9-0.1,7.3-0.1c1.9,0,3.8-0.1,5.7-0.3c5.7-0.8,11.1-3.6,15-7.7
			c1.1-1.2,2.2-2.5,2.4-4.1c0.3-2.1-0.8-4.2-2.4-5.7C72.4,36.2,66.8,35.1,61.6,34.7z"/>
		<path class="st3" d="M50.9,38.4v15.1c-2.3-4.1-4.4-8.2-6.2-12.5c-0.6-1.4-3-0.8-2.4,0.6c2.3,5.4,5,10.7,8.1,15.8
			c0.1,0.2,0.3,0.4,0.6,0.5v6.5c-4.8-1.1-9.4-2.7-13.8-4.7c0-0.1-0.1-0.1-0.1-0.2c-1.2-1.3-2.3-2.9-3.1-4.6c0.2-0.1,0.3-0.2,0.5-0.4
			c1.2-2.1,2.3-4.3,2.8-6.6c0.4-1.6,1.1-3.6-0.1-5c-0.8-0.9-2.1,0-2,1c-0.1,0.4,0.1,0.8,0.4,1.1c0,1.1-1,3.7-1.3,4.3
			c-0.4,1.1-0.9,2.2-1.5,3.2c-1.1-2.6-2-5.3-2.9-7.8c-0.5-1.4-2.9-0.8-2.4,0.6c1.4,3.9,2.9,8.3,5.1,12.1
			c-6.9-3.8-13.2-8.8-18.5-14.8c-1-1.2-2.7,0.5-1.7,1.7c10.1,11.4,23.4,19.2,38.6,22.5v27.4c0,1.5,2.5,1.5,2.5,0V38.4
			C53.3,36.9,50.9,36.9,50.9,38.4z"/>
		<path class="st4" d="M85.8,26.3C78,19.8,68.1,15.6,57.8,15.2C43.2,14.5,29.5,21,16.5,27.3c-3.3,1.6-6.7,3.3-10,4.9
			C4.8,33,3.2,33.8,1.9,35c-0.7,0.6-1.2,1.3-1.5,2.1c-1.4,3.3,1,7.1,4.2,8.7c3.3,1.7,7.1,1.7,10.8,1.7c19.7,0.1,39.4,0.2,59.1,0.2
			c3.4,0,6.8,0,10-0.9c3.2-0.9,6.3-3,7.5-5.9c0.8-2,0.8-4.1,0.1-6.2C91,31.6,88.4,28.6,85.8,26.3z"/>
		<path class="st0" d="M85.8,26.3C78,19.8,68.1,15.6,57.8,15.2C43.2,14.5,29.5,21,16.5,27.3c-3.3,1.6-6.7,3.3-10,4.9
			C4.8,33,3.2,33.8,1.9,35c1.3,1.2,3,2,4.7,2.4c3,0.6,6.2,0.2,9.1-0.7c4.9-1.4,9.4-3.8,14.2-5.5c4.8-1.7,10.2-2.6,15-0.8
			c4.3,1.6,7.4,5,11.2,7.5c9.2,6.2,22.5,6.3,31.9,0.4c1.5-0.9,2.9-2.1,3.9-3.5C91,31.6,88.4,28.6,85.8,26.3z"/>
	</g>
	<path class="st4" d="M48.6,85.9c-6.5,0-11.8,4.2-11.8,9.4h23.6C60.3,90.1,55.1,85.9,48.6,85.9z"/>
	<path class="st0" d="M64.4,86.4c-5.1,0-9.3,4-9.3,8.9h18.6C73.7,90.4,69.6,86.4,64.4,86.4z"/>
</g>
</svg>
