<svg viewBox="0 0 613.78 613.78" fill="#00222d" color="#f3b200" xmlns="http://www.w3.org/2000/svg" xmlns:xlink="http://www.w3.org/1999/xlink"><symbol id="app-logo-svg" viewBox="0 0 613.78 613.78"><path d="M254 603.48a141.07 141.07 0 0 0 152.59-30.8l166.07-166.09a141.66 141.66 0 0 0 .22-199.53L406.78 41a141.79 141.79 0 0 0-199.65.09L41 207.15a141.19 141.19 0 0 0 .22 199.34l166.12 166.1A140 140 0 0 0 254 603.48zm116.36-67a89.57 89.57 0 0 1-126.67 0L77.19 370a89.57 89.57 0 0 1 0-126.67L243.67 76.9a89.57 89.57 0 0 1 126.67 0l166.47 166.48a89.57 89.57 0 0 1 0 126.67z"/><path d="M287 307l120.12 120.13.21.21 92.84-92.84c15-15 15.21-39.77.22-54.77l-93.06-93.06z"/><path fill="currentColor" class="app-logo-secondary-color" d="M250.79 270.81l120.34-120.33-36.84-36.84c-15-15-39.9-14.9-54.89.09l-92.85 92.85z"/><path d="M334.07 500.59l37.06-37.06-220.77-220.76-37.05 37.05c-15 15-14.78 39.59.22 54.58l166.09 166.09a38.59 38.59 0 0 0 54.45.1z"/></symbol><use xlink:href="#app-logo-svg" width="613.78" height="613.78"/></svg>